<svg width="531" height="590" viewBox="0 0 531 590" fill="none" xmlns="http://www.w3.org/2000/svg">
<path d="M26.4486 394.658L287.327 8.88868L315.604 53.2712L354.03 48.1681L382.919 67.7039L392.891 67.3234L404.251 82.1304L417.61 87.2781L411.593 142.148L462.223 114.209L448.065 184.948L519.11 152.68L231.784 577.559L230.466 506.718L153.563 524.662L141.579 446.608L69.3319 480.654L72.6698 425.915L46.2213 465.025L66.9145 396.115L26.4486 394.658Z" fill="white" stroke="#313131" stroke-width="7.78406"/>
<rect x="253.641" y="90.5503" width="236.869" height="329.15" transform="rotate(34.0687 253.641 90.5503)" stroke="#626262" stroke-width="7.78406"/>
<path d="M245.301 133.091L241.214 130.327L256.416 107.847L260.504 110.611L258.76 119.623L258.936 119.742L266.635 114.757L270.722 117.521L255.52 140.002L251.432 137.237L261.106 122.932L260.947 122.824L256.155 125.54L254.399 124.352L255.178 118.83L255.019 118.722L245.301 133.091ZM265.746 146.917L271.188 138.87L271.028 138.762L263.064 145.103L259.615 142.771L270.671 126.422L274.759 129.186L269.209 137.392L269.368 137.5L277.457 131.01L280.89 133.332L269.833 149.681L265.746 146.917ZM287.028 137.483L291.116 140.247L286.97 146.378L289.013 147.761L293.159 141.63L297.247 144.394L286.191 160.743L282.103 157.979L286.422 151.592L284.378 150.21L280.06 156.597L275.972 153.833L287.028 137.483ZM315.648 156.837L312.949 160.829L307.839 157.374L299.482 169.732L295.395 166.968L303.752 154.61L298.643 151.155L301.342 147.163L315.648 156.837ZM315.223 181.121C313.988 180.286 313.391 179.254 313.431 178.024L313.303 177.938L308.455 185.107L304.368 182.343L319.57 159.862L323.658 162.626L322.956 163.664L323.084 163.751C324.21 163.255 325.39 163.425 326.625 164.26C327.433 164.807 327.92 165.625 328.084 166.713C328.265 167.798 328.097 169.033 327.578 170.42C327.154 171.529 326.218 173.153 324.771 175.293C323.325 177.432 322.166 178.905 321.294 179.712C320.201 180.71 319.113 181.332 318.032 181.578C316.968 181.82 316.032 181.668 315.223 181.121ZM315.919 175.309C315.894 175.758 316.02 176.076 316.297 176.263C316.574 176.45 316.916 176.449 317.324 176.259C317.738 176.059 318.154 175.743 318.57 175.311C319.065 174.808 319.77 173.88 320.684 172.529C321.598 171.177 322.196 170.178 322.479 169.531C322.725 168.984 322.86 168.485 322.884 168.037C322.916 167.577 322.793 167.254 322.516 167.067C322.24 166.879 321.894 166.886 321.479 167.086C321.072 167.276 320.66 167.587 320.243 168.019C319.748 168.522 319.044 169.449 318.13 170.801C317.215 172.153 316.617 173.152 316.335 173.799C316.089 174.346 315.95 174.849 315.919 175.309ZM335.721 184.442L334.635 183.708C334.113 183.355 333.631 183.254 333.188 183.404C332.763 183.551 332.331 183.949 331.892 184.599C331.647 184.961 331.527 185.322 331.532 185.682C331.544 186.031 331.71 186.314 332.029 186.529C332.391 186.774 332.745 186.882 333.091 186.852C333.447 186.829 333.78 186.682 334.088 186.409C334.414 186.134 334.667 185.886 334.847 185.666C335.026 185.446 335.235 185.161 335.472 184.809L335.721 184.442ZM341.893 174.214C342.809 174.833 343.515 175.52 344.013 176.275C344.517 177.02 344.727 177.937 344.641 179.027C344.579 179.807 344.149 180.788 343.35 181.969L335.262 193.928L331.175 191.164L331.747 190.318L331.588 190.21C330.495 190.541 329.491 190.397 328.576 189.778C327.447 189.015 326.79 187.865 326.604 186.328C326.418 184.791 326.811 183.304 327.783 181.867C328.841 180.302 330.181 179.331 331.801 178.953C332.386 178.821 332.946 178.773 333.481 178.809C334.033 178.841 334.54 178.951 335.002 179.14C335.475 179.335 335.841 179.505 336.1 179.65C336.37 179.801 336.68 179.996 337.032 180.233L338.085 180.946L339.208 179.285C339.352 179.072 339.395 178.814 339.336 178.511C339.285 178.197 339.116 177.943 338.828 177.748C337.849 177.086 336.402 176.255 334.488 175.255L337.09 171.407C338.983 172.393 340.584 173.328 341.893 174.214ZM352.458 181.73L356.545 184.494L352.399 190.625L354.443 192.007L358.589 185.876L362.676 188.64L351.62 204.99L347.532 202.226L351.851 195.839L349.808 194.457L345.489 200.844L341.401 198.08L352.458 181.73ZM360.901 203.635C361.345 202.818 361.97 201.813 362.776 200.621C363.582 199.429 364.282 198.475 364.874 197.759C365.478 197.05 366.155 196.461 366.907 195.992C369.38 194.423 371.936 194.53 374.576 196.316C375.779 197.129 377.204 198.232 378.852 199.626L376.261 203.458C374.592 202.05 373.166 200.946 371.985 200.147C371.527 199.838 371.082 199.716 370.651 199.78C370.219 199.845 369.749 200.07 369.24 200.455C368.685 200.887 367.893 201.863 366.863 203.385C365.834 204.907 365.223 206.006 365.029 206.682C364.861 207.298 364.828 207.818 364.928 208.243C365.029 208.667 365.308 209.034 365.765 209.344C367.011 210.186 368.648 211.091 370.676 212.06L368.085 215.892C366.067 214.931 364.43 214.025 363.174 213.176C360.534 211.391 359.482 209.058 360.018 206.179C360.174 205.307 360.468 204.458 360.901 203.635ZM405.128 213.998L400.723 220.513L402.735 221.873C403.65 222.492 404.344 222.899 404.817 223.095C405.641 223.435 406.457 223.467 407.265 223.191C408.082 222.922 408.765 222.383 409.312 221.574C409.859 220.765 410.105 219.931 410.05 219.072C410.006 218.22 409.672 217.475 409.049 216.836C408.692 216.47 408.055 215.978 407.14 215.359L405.128 213.998ZM403.632 207.402L409.699 211.505C411.275 212.571 412.344 213.41 412.906 214.023C414.173 215.407 414.866 217.031 414.986 218.896C415.123 220.757 414.594 222.571 413.399 224.338C412.204 226.105 410.714 227.277 408.928 227.853C407.16 228.426 405.398 228.382 403.642 227.722C402.864 227.428 401.687 226.749 400.111 225.683L398.132 224.344L392.517 232.647L388.43 229.883L403.632 207.402ZM409.593 234.422C410.019 233.035 410.866 231.405 412.133 229.532C413.4 227.658 414.597 226.265 415.726 225.353C416.905 224.413 418.181 223.81 419.555 223.545C420.929 223.28 422.323 223.408 423.738 223.931L425.099 221.919L429.186 224.683L427.826 226.695C428.837 227.814 429.476 229.06 429.741 230.434C430.007 231.808 429.923 233.217 429.489 234.661C429.063 236.048 428.216 237.678 426.949 239.551C425.682 241.425 424.485 242.817 423.356 243.729C422.177 244.67 420.901 245.272 419.527 245.538C418.153 245.803 416.759 245.674 415.344 245.152L414.21 246.828L410.123 244.064L411.257 242.388C410.245 241.269 409.606 240.023 409.341 238.649C409.075 237.275 409.16 235.866 409.593 234.422ZM419.322 228.809C418.348 229.516 417.314 230.678 416.22 232.296C415.126 233.914 414.429 235.311 414.129 236.489C413.836 237.656 414.051 238.623 414.773 239.391L422.266 228.31C421.285 227.926 420.304 228.092 419.322 228.809ZM416.816 240.773C417.797 241.157 418.775 240.996 419.749 240.29C420.73 239.573 421.768 238.405 422.862 236.787C423.956 235.169 424.65 233.777 424.942 232.61C425.242 231.432 425.031 230.46 424.31 229.692L416.816 240.773Z" fill="#626262"/>
<path d="M125.795 303.547C127.71 304.362 129.355 305.233 130.728 306.162C131.749 306.853 132.539 307.612 133.097 308.439C133.665 309.273 133.987 310.104 134.064 310.931C134.151 311.766 134.085 312.574 133.866 313.357C133.647 314.139 133.293 314.893 132.803 315.616C132.328 316.319 131.844 316.875 131.349 317.285C130.872 317.692 130.285 318.078 129.588 318.444L118.008 325.109L123.883 329.082L121.292 332.914L110.754 325.788L113.011 322.451L126.329 314.937C127.337 314.41 128.133 313.714 128.716 312.852C129.479 311.724 129.286 310.771 128.136 309.994C126.848 309.123 125.204 308.251 123.203 307.379L125.795 303.547ZM140.74 317.935C143.175 316.216 145.467 316.083 147.617 317.537C149.768 318.991 150.498 321.168 149.809 324.068C149.648 324.719 149.306 325.535 148.782 326.515C148.259 327.495 147.747 328.367 147.247 329.13C146.764 329.889 146.008 331.03 144.979 332.552C143.95 334.074 143.169 335.206 142.636 335.947C142.122 336.685 141.507 337.48 140.792 338.33C140.078 339.181 139.448 339.802 138.904 340.194C136.469 341.914 134.176 342.046 132.026 340.592C129.876 339.138 129.146 336.961 129.835 334.061C129.996 333.41 130.338 332.595 130.861 331.614C131.385 330.634 131.888 329.764 132.37 329.005C132.871 328.242 133.635 327.099 134.665 325.577C135.694 324.055 136.466 322.925 136.981 322.187C137.513 321.446 138.137 320.65 138.851 319.799C139.566 318.949 140.196 318.327 140.74 317.935ZM144.983 321.433C144.525 321.123 143.747 321.574 142.649 322.786C142.06 323.427 140.74 325.265 138.688 328.298L137.555 329.975L144.456 324.38C144.806 323.702 145.043 323.087 145.168 322.535C145.3 321.973 145.238 321.606 144.983 321.433ZM135.188 333.749C134.838 334.428 134.597 335.048 134.465 335.61C134.34 336.162 134.405 336.524 134.661 336.697C135.118 337.006 135.897 336.555 136.995 335.344C137.584 334.702 138.904 332.865 140.955 329.831L142.089 328.155L135.188 333.749ZM157.097 328.997C159.532 327.278 161.825 327.145 163.975 328.599C166.125 330.053 166.855 332.23 166.166 335.13C166.005 335.781 165.663 336.597 165.14 337.577C164.616 338.557 164.105 339.429 163.604 340.192C163.122 340.951 162.366 342.092 161.336 343.614C160.307 345.136 159.526 346.268 158.994 347.009C158.479 347.747 157.865 348.541 157.15 349.392C156.435 350.243 155.805 350.864 155.261 351.256C152.826 352.975 150.534 353.108 148.384 351.654C146.233 350.2 145.503 348.023 146.192 345.123C146.353 344.472 146.695 343.656 147.219 342.676C147.742 341.696 148.245 340.826 148.727 340.067C149.228 339.304 149.993 338.161 151.022 336.639C152.051 335.117 152.823 333.987 153.338 333.249C153.87 332.508 154.494 331.712 155.209 330.861C155.923 330.011 156.553 329.389 157.097 328.997ZM161.34 332.495C160.883 332.185 160.104 332.636 159.006 333.848C158.417 334.489 157.097 336.326 155.046 339.36L153.912 341.036L160.813 335.442C161.163 334.764 161.401 334.149 161.525 333.597C161.657 333.035 161.596 332.667 161.34 332.495ZM151.545 344.811C151.195 345.489 150.954 346.11 150.822 346.672C150.697 347.223 150.763 347.586 151.018 347.758C151.476 348.068 152.254 347.617 153.352 346.405C153.941 345.764 155.261 343.927 157.313 340.893L158.446 339.217L151.545 344.811ZM165.757 354.608L171.888 358.754L168.001 364.501L161.87 360.355L165.757 354.608ZM189.812 351.121C192.247 349.401 194.539 349.268 196.689 350.722C198.839 352.176 199.57 354.353 198.881 357.253C198.72 357.905 198.377 358.72 197.854 359.7C197.331 360.681 196.819 361.552 196.319 362.315C195.836 363.075 195.08 364.215 194.051 365.737C193.022 367.26 192.241 368.391 191.708 369.133C191.194 369.87 190.579 370.665 189.864 371.515C189.149 372.366 188.52 372.987 187.976 373.379C185.541 375.099 183.248 375.232 181.098 373.778C178.948 372.323 178.218 370.146 178.907 367.246C179.068 366.595 179.41 365.78 179.933 364.799C180.457 363.819 180.96 362.949 181.442 362.19C181.943 361.427 182.707 360.285 183.737 358.762C184.766 357.24 185.538 356.11 186.053 355.372C186.585 354.631 187.208 353.835 187.923 352.985C188.638 352.134 189.268 351.513 189.812 351.121ZM194.055 354.618C193.597 354.309 192.819 354.76 191.72 355.971C191.132 356.612 189.812 358.45 187.76 361.483L186.626 363.16L193.528 357.566C193.878 356.887 194.115 356.272 194.24 355.721C194.372 355.158 194.31 354.791 194.055 354.618ZM184.26 366.934C183.91 367.613 183.669 368.233 183.537 368.795C183.412 369.347 183.477 369.709 183.733 369.882C184.19 370.191 184.969 369.74 186.067 368.529C186.656 367.887 187.976 366.05 190.027 363.017L191.161 361.34L184.26 366.934ZM206.169 362.182C208.604 360.463 210.897 360.33 213.047 361.784C215.197 363.238 215.927 365.415 215.238 368.315C215.077 368.966 214.735 369.782 214.212 370.762C213.688 371.742 213.176 372.614 212.676 373.377C212.193 374.136 211.438 375.277 210.408 376.799C209.379 378.321 208.598 379.453 208.066 380.194C207.551 380.932 206.936 381.726 206.222 382.577C205.507 383.428 204.877 384.049 204.333 384.441C201.898 386.16 199.606 386.293 197.456 384.839C195.305 383.385 194.575 381.208 195.264 378.308C195.425 377.657 195.767 376.841 196.291 375.861C196.814 374.881 197.317 374.011 197.799 373.252C198.3 372.489 199.065 371.346 200.094 369.824C201.123 368.302 201.895 367.172 202.41 366.434C202.942 365.693 203.566 364.897 204.281 364.046C204.995 363.196 205.625 362.574 206.169 362.182ZM210.412 365.68C209.954 365.37 209.176 365.821 208.078 367.033C207.489 367.674 206.169 369.511 204.118 372.545L202.984 374.222L209.885 368.627C210.235 367.949 210.473 367.334 210.597 366.782C210.729 366.22 210.668 365.853 210.412 365.68ZM200.617 377.996C200.267 378.674 200.026 379.295 199.894 379.857C199.769 380.409 199.835 380.771 200.09 380.943C200.548 381.253 201.326 380.802 202.424 379.59C203.013 378.949 204.333 377.112 206.385 374.078L207.518 372.402L200.617 377.996ZM222.527 373.244C224.961 371.525 227.254 371.392 229.404 372.846C231.554 374.3 232.285 376.477 231.595 379.377C231.434 380.028 231.092 380.844 230.569 381.824C230.046 382.804 229.534 383.676 229.033 384.438C228.551 385.198 227.795 386.339 226.765 387.861C225.736 389.383 224.955 390.515 224.423 391.256C223.908 391.994 223.294 392.788 222.579 393.639C221.864 394.489 221.235 395.111 220.69 395.503C218.255 397.222 215.963 397.355 213.813 395.901C211.663 394.447 210.932 392.27 211.621 389.37C211.783 388.719 212.125 387.903 212.648 386.923C213.171 385.943 213.674 385.073 214.157 384.313C214.657 383.551 215.422 382.408 216.451 380.886C217.481 379.364 218.253 378.234 218.767 377.496C219.299 376.755 219.923 375.959 220.638 375.108C221.353 374.257 221.982 373.636 222.527 373.244ZM226.769 376.742C226.312 376.432 225.534 376.883 224.435 378.095C223.846 378.736 222.526 380.573 220.475 383.607L219.341 385.283L226.242 379.689C226.592 379.011 226.83 378.396 226.955 377.844C227.087 377.282 227.025 376.914 226.769 376.742ZM216.975 389.058C216.625 389.736 216.383 390.356 216.251 390.919C216.127 391.47 216.192 391.832 216.447 392.005C216.905 392.315 217.683 391.864 218.782 390.652C219.37 390.011 220.691 388.174 222.742 385.14L223.876 383.464L216.975 389.058ZM248.149 419.446C246.914 418.611 246.317 417.579 246.357 416.35L246.229 416.264L241.381 423.432L237.294 420.668L252.496 398.188L256.584 400.952L255.882 401.99L256.009 402.076C257.135 401.581 258.316 401.751 259.55 402.586C260.359 403.133 260.846 403.951 261.01 405.039C261.191 406.123 261.023 407.359 260.504 408.746C260.08 409.855 259.144 411.479 257.697 413.618C256.251 415.758 255.091 417.231 254.22 418.038C253.126 419.036 252.039 419.657 250.957 419.903C249.894 420.146 248.958 419.993 248.149 419.446ZM248.845 413.635C248.82 414.084 248.946 414.402 249.223 414.589C249.5 414.776 249.842 414.775 250.25 414.585C250.664 414.384 251.08 414.068 251.496 413.636C251.991 413.133 252.696 412.206 253.61 410.854C254.524 409.503 255.122 408.503 255.405 407.856C255.651 407.309 255.786 406.811 255.81 406.362C255.842 405.903 255.719 405.579 255.442 405.392C255.166 405.205 254.82 405.212 254.405 405.412C253.998 405.602 253.586 405.913 253.169 406.345C252.674 406.848 251.97 407.775 251.055 409.127C250.141 410.479 249.543 411.478 249.261 412.125C249.015 412.672 248.876 413.175 248.845 413.635ZM266.878 423.387C270.061 420.607 273.252 417.483 276.451 414.015L280.538 416.779C278.144 419.333 276.025 421.491 274.182 423.254C272.338 425.016 270.152 426.896 267.622 428.893C266.924 429.444 266.36 429.877 265.93 430.191C265.507 430.495 264.999 430.834 264.405 431.208C263.811 431.582 263.251 431.847 262.727 432.004C262.205 432.179 261.698 432.263 261.207 432.256C260.619 432.231 260.122 432.174 259.716 432.086C259.314 432.015 258.71 431.785 257.903 431.395C257.107 431.012 256.151 430.442 255.033 429.686L257.624 425.855C258.401 426.38 259.005 426.749 259.435 426.962C259.868 427.193 260.291 427.301 260.705 427.286C261.111 427.282 261.465 427.195 261.765 427.026C262.073 426.846 262.524 426.546 263.118 426.126C263.208 426.062 263.272 426.013 263.312 425.978L261.731 424.909C262.315 422.279 263.095 419.634 264.071 416.975C265.058 414.323 266.279 411.371 267.733 408.12L271.836 410.895C269.741 415.14 268.035 419.268 266.719 423.279L266.878 423.387ZM288.543 429.01C288.773 428.095 288.617 427.455 288.074 427.088C287.531 426.72 286.879 426.814 286.116 427.369C285.507 427.81 284.612 428.904 283.432 430.649C282.251 432.395 281.57 433.632 281.387 434.362C281.156 435.276 281.312 435.917 281.855 436.284C282.398 436.651 283.051 436.557 283.813 436.003C284.422 435.561 285.317 434.468 286.497 432.722C287.678 430.977 288.36 429.739 288.543 429.01ZM291.1 423.782C292.229 424.545 292.982 425.497 293.359 426.636C293.743 427.765 293.768 428.898 293.433 430.036C293.024 431.466 292.075 433.283 290.585 435.486C290.038 436.295 289.602 436.916 289.279 437.349C288.973 437.778 288.565 438.255 288.056 438.779C287.564 439.299 287.053 439.745 286.523 440.116C284.121 441.764 281.595 441.692 278.944 439.9C277.891 439.187 277.159 438.227 276.75 437.02C276.348 435.802 276.285 434.588 276.56 433.378C276.891 431.973 277.588 430.482 278.654 428.907C280.093 426.778 281.153 425.222 281.833 424.24C282.52 423.246 283.25 422.235 284.024 421.207C284.804 420.168 285.409 419.445 285.839 419.038C287.353 417.626 288.94 416.884 290.601 416.813C291.628 416.763 292.584 416.875 293.47 417.148C294.366 417.428 295.087 417.761 295.634 418.146C296.198 418.527 296.879 418.965 297.678 419.458C298.483 419.941 299.238 420.304 299.942 420.548L297.319 424.428C296.622 424.174 295.84 423.769 294.975 423.215C294.119 422.667 293.34 422.226 292.636 421.889C291.94 421.543 291.248 421.385 290.56 421.416C289.901 421.451 289.198 421.984 288.454 423.016L288.614 423.124C289.558 423.081 290.387 423.3 291.1 423.782ZM116.585 369.18C117.029 368.363 117.654 367.359 118.46 366.167C119.266 364.975 119.966 364.021 120.559 363.305C121.162 362.596 121.839 362.007 122.591 361.538C125.064 359.968 127.62 360.076 130.26 361.861C131.463 362.675 132.888 363.778 134.536 365.172L131.945 369.004C130.276 367.596 128.85 366.492 127.669 365.693C127.211 365.384 126.766 365.261 126.335 365.326C125.903 365.391 125.433 365.616 124.924 366.001C124.369 366.432 123.577 367.409 122.547 368.931C121.518 370.453 120.907 371.552 120.713 372.228C120.545 372.843 120.512 373.363 120.612 373.788C120.713 374.213 120.992 374.58 121.45 374.89C122.695 375.732 124.332 376.637 126.36 377.606L123.769 381.438C121.751 380.476 120.114 379.571 118.858 378.721C116.218 376.936 115.167 374.604 115.702 371.724C115.858 370.852 116.152 370.004 116.585 369.18ZM146.138 372.599C147.373 373.434 148.222 374.45 148.684 375.647C149.154 376.833 149.258 378.021 148.997 379.209C148.869 379.789 148.638 380.417 148.306 381.092C147.984 381.774 147.667 382.358 147.354 382.844C147.058 383.327 146.626 383.989 146.058 384.83L144.762 386.746L137.625 381.919C137.035 382.792 136.701 383.458 136.623 383.917C136.518 384.669 136.86 385.311 137.647 385.843C138.807 386.628 140.476 387.601 142.653 388.763L140.072 392.579C137.984 391.493 136.312 390.525 135.056 389.675C133.736 388.783 132.832 387.722 132.345 386.493C131.858 385.263 131.747 384.017 132.012 382.754C132.188 381.896 132.499 381.059 132.942 380.242C133.386 379.425 134.011 378.421 134.817 377.229C135.645 376.004 136.357 375.02 136.954 374.276C137.568 373.528 138.23 372.905 138.939 372.407C139.931 371.697 141.065 371.34 142.341 371.334C143.627 371.335 144.893 371.757 146.138 372.599ZM143.547 376.431C143.366 376.309 143.187 376.218 143.009 376.16C142.838 376.091 142.664 376.074 142.485 376.108C142.325 376.139 142.178 376.172 142.046 376.207C141.921 376.231 141.768 376.321 141.585 376.477C141.42 376.629 141.285 376.747 141.182 376.832C141.088 376.924 140.945 377.091 140.751 377.332C140.574 377.57 140.45 377.742 140.378 377.848C140.314 377.944 140.182 378.126 139.984 378.396L143.05 380.469C143.77 379.358 144.174 378.577 144.263 378.125C144.424 377.427 144.186 376.863 143.547 376.431ZM152.693 401.975C151.459 401.14 150.861 400.108 150.902 398.879L150.774 398.792L145.926 405.961L141.839 403.197L157.041 380.717L161.128 383.481L160.427 384.518L160.554 384.605C161.68 384.11 162.86 384.28 164.095 385.115C164.904 385.662 165.391 386.479 165.554 387.567C165.736 388.652 165.568 389.888 165.049 391.274C164.625 392.383 163.689 394.007 162.242 396.147C160.795 398.286 159.636 399.76 158.765 400.566C157.671 401.564 156.584 402.186 155.502 402.432C154.439 402.674 153.502 402.522 152.693 401.975ZM153.389 396.163C153.365 396.612 153.491 396.93 153.768 397.117C154.045 397.304 154.387 397.303 154.794 397.113C155.209 396.913 155.625 396.597 156.041 396.165C156.536 395.662 157.241 394.735 158.155 393.383C159.069 392.031 159.667 391.032 159.949 390.385C160.195 389.838 160.331 389.34 160.355 388.891C160.386 388.431 160.264 388.108 159.987 387.921C159.71 387.734 159.365 387.74 158.95 387.941C158.542 388.13 158.13 388.441 157.714 388.873C157.219 389.376 156.514 390.304 155.6 391.655C154.686 393.007 154.088 394.006 153.806 394.653C153.56 395.2 153.421 395.704 153.389 396.163ZM174.176 399.471L175.31 400.237C176.161 400.813 176.783 401.327 177.176 401.779C178.035 402.779 178.457 403.979 178.44 405.379C178.431 406.769 177.959 408.156 177.023 409.54C176.087 410.923 174.973 411.884 173.679 412.42C172.392 412.946 171.125 412.997 169.877 412.572C169.312 412.376 168.603 411.989 167.752 411.414L162.515 407.872L173.571 391.523L177.674 394.298L174.176 399.471ZM171.569 403.292L169.193 406.804L170.343 407.582C171.28 408.215 172.144 407.946 172.936 406.776C173.728 405.605 173.655 404.703 172.718 404.069L171.569 403.292ZM195.21 405.784C196.445 406.619 197.294 407.635 197.756 408.832C198.226 410.018 198.33 411.206 198.069 412.394C197.941 412.975 197.71 413.602 197.378 414.277C197.056 414.959 196.739 415.543 196.426 416.029C196.13 416.512 195.698 417.174 195.129 418.015L193.834 419.931L186.697 415.105C186.107 415.977 185.773 416.643 185.695 417.103C185.59 417.854 185.931 418.496 186.719 419.029C187.879 419.813 189.548 420.786 191.725 421.948L189.144 425.764C187.056 424.678 185.384 423.71 184.128 422.86C182.808 421.968 181.904 420.907 181.417 419.678C180.93 418.449 180.819 417.202 181.084 415.939C181.26 415.081 181.571 414.244 182.014 413.427C182.458 412.61 183.083 411.606 183.889 410.414C184.717 409.19 185.429 408.205 186.026 407.461C186.64 406.713 187.302 406.09 188.011 405.592C189.003 404.882 190.137 404.525 191.412 404.519C192.699 404.52 193.965 404.942 195.21 405.784ZM192.619 409.616C192.438 409.494 192.259 409.403 192.081 409.345C191.91 409.276 191.736 409.259 191.557 409.294C191.397 409.325 191.25 409.358 191.118 409.392C190.993 409.416 190.84 409.506 190.657 409.662C190.492 409.814 190.357 409.933 190.253 410.017C190.16 410.109 190.017 410.276 189.823 410.517C189.646 410.755 189.522 410.927 189.45 411.033C189.385 411.129 189.254 411.312 189.056 411.581L192.122 413.654C192.842 412.543 193.246 411.762 193.335 411.31C193.496 410.613 193.258 410.048 192.619 409.616ZM209.322 427.357C210.348 429.121 210.263 430.886 209.068 432.653C208.104 434.079 206.773 434.878 205.075 435.048C203.378 435.219 201.688 434.735 200.006 433.598C198.548 432.612 196.934 431.443 195.165 430.091L197.756 426.26C199.579 427.647 201.192 428.816 202.597 429.766C203.108 430.112 203.597 430.272 204.064 430.246C204.539 430.21 204.916 429.985 205.197 429.57C205.859 428.59 205.392 427.561 203.795 426.481L201.592 424.991L204.183 421.159L206.403 422.66C207.882 423.661 208.924 423.714 209.529 422.82C209.752 422.49 209.81 422.118 209.702 421.704C209.601 421.279 209.312 420.905 208.833 420.581C207.8 419.882 206.194 418.92 204.014 417.694L206.605 413.862C208.54 414.923 210.147 415.885 211.424 416.749C213.084 417.872 214.125 419.235 214.546 420.838C214.984 422.437 214.757 423.897 213.864 425.217C212.778 426.824 211.3 427.484 209.43 427.197L209.322 427.357ZM222.643 424.708L226.73 427.472L222.584 433.603L224.628 434.985L228.774 428.854L232.861 431.618L221.805 447.968L217.718 445.203L222.037 438.817L219.993 437.435L215.674 443.821L211.587 441.057L222.643 424.708ZM241.152 437.853C242.249 437.928 243.292 438.3 244.282 438.969C245.272 439.639 246.001 440.465 246.468 441.448C246.954 442.428 247.177 443.486 247.137 444.623C247.091 445.585 246.821 446.581 246.326 447.611C245.838 448.631 245.13 449.827 244.201 451.2C243.273 452.573 242.423 453.681 241.651 454.524C240.886 455.357 240.066 455.973 239.19 456.374C238.15 456.834 237.081 457.026 235.984 456.951C234.905 456.873 233.87 456.499 232.88 455.83C231.891 455.16 231.153 454.336 230.668 453.356C230.2 452.373 229.986 451.313 230.026 450.176C230.071 449.214 230.338 448.223 230.826 447.204C231.321 446.174 232.033 444.972 232.961 443.599C233.89 442.226 234.736 441.123 235.501 440.291C236.273 439.447 237.097 438.826 237.972 438.425C239.013 437.965 240.072 437.774 241.152 437.853ZM242.159 444.723C242.39 443.809 242.234 443.168 241.691 442.801C241.148 442.434 240.495 442.528 239.733 443.082C239.124 443.524 238.229 444.617 237.049 446.363C235.868 448.109 235.186 449.346 235.003 450.075C234.773 450.99 234.929 451.631 235.472 451.998C236.015 452.365 236.667 452.271 237.43 451.717C238.039 451.275 238.934 450.182 240.114 448.436C241.295 446.69 241.976 445.453 242.159 444.723Z" fill="#626262"/>
<path d="M162.474 291.366C165.563 284.838 168.067 278.77 169.984 273.163L169.749 273.004C165.306 276.834 160.607 281.417 155.651 286.752L162.474 291.366ZM168.66 264.827L177.978 271.128C174.969 281.391 169.642 293.882 161.998 308.6L155.904 304.479C157.179 302.187 158.363 299.879 159.455 297.554L151.032 291.858C149.281 293.737 147.58 295.695 145.928 297.733L139.834 293.612C150.647 281.036 160.256 271.441 168.66 264.827ZM186.219 296.589C187.396 297.385 188.196 297.857 188.621 298.007C189.606 298.376 190.577 298.393 191.535 298.058C192.52 297.718 193.351 297.046 194.03 296.042C194.698 295.054 195.007 294.039 194.956 292.999C194.905 291.959 194.528 291.064 193.824 290.313C193.396 289.864 192.665 289.289 191.629 288.589L190.594 287.889L185.184 295.889L186.219 296.589ZM191.993 303.922C193.29 305.485 193.893 307.299 193.8 309.362C193.734 311.42 193.017 313.461 191.648 315.485C190.163 317.681 188.31 319.171 186.089 319.954C183.893 320.733 181.724 320.729 179.581 319.943C178.408 319.515 176.652 318.511 174.315 316.93L165.986 311.297L188.389 278.169L195.448 282.942C197.472 284.311 198.846 285.388 199.571 286.176C201.192 287.935 202.095 289.998 202.279 292.362C202.463 294.727 201.802 297.023 200.296 299.25C198.057 302.56 195.343 304.039 192.152 303.687L191.993 303.922ZM181.365 301.536L175.828 309.724L178.157 311.299C179.569 312.254 180.553 312.827 181.108 313.02C182.03 313.347 182.96 313.324 183.898 312.952C184.845 312.564 185.659 311.869 186.338 310.865C187.017 309.861 187.359 308.847 187.366 307.823C187.373 306.799 187.048 305.927 186.391 305.209C185.942 304.722 185.044 304.023 183.695 303.111L181.365 301.536ZM232.071 307.708L228.252 313.355L220.723 308.264L202.138 335.745L196.115 331.672L214.699 304.19L207.17 299.099L210.989 293.452L232.071 307.708ZM233.998 324.304C232.892 325.432 231.406 327.375 229.539 330.136C227.672 332.897 226.422 335 225.787 336.445C225.041 338.158 224.71 339.763 224.794 341.26C224.905 342.752 225.572 343.912 226.796 344.74C228.019 345.567 229.336 345.749 230.747 345.286C232.184 344.817 233.558 343.918 234.869 342.587C235.985 341.444 237.471 339.5 239.327 336.755C241.194 333.995 242.445 331.892 243.08 330.446C243.826 328.734 244.144 327.131 244.033 325.639C243.949 324.142 243.294 322.979 242.071 322.152C240.847 321.325 239.517 321.145 238.08 321.613C236.67 322.077 235.309 322.974 233.998 324.304ZM218.622 334.72C219.36 332.682 220.991 329.796 223.516 326.063C226.041 322.33 228.111 319.741 229.728 318.297C232.074 316.18 234.669 314.895 237.513 314.441C240.368 313.971 243.16 314.659 245.89 316.505C248.619 318.351 250.297 320.686 250.925 323.51C251.563 326.319 251.336 329.206 250.245 332.172C249.507 334.21 247.875 337.095 245.351 340.829C242.826 344.562 240.756 347.151 239.139 348.595C236.793 350.712 234.193 352.005 231.338 352.474C228.493 352.928 225.706 352.232 222.977 350.387C220.248 348.541 218.564 346.214 217.926 343.405C217.299 340.58 217.531 337.685 218.622 334.72ZM259.71 346.493C262.048 348.074 263.633 349.329 264.467 350.259C265.995 351.955 266.759 354.037 266.758 356.506C266.773 358.985 265.969 361.424 264.346 363.824C262.713 366.24 260.767 367.884 258.508 368.757C256.259 369.614 254.056 369.644 251.897 368.847C250.724 368.419 248.968 367.415 246.631 365.834L238.302 360.201L260.705 327.073L278.776 339.293L274.957 344.94L262.91 336.793L257.405 344.934L259.71 346.493ZM253.586 350.581L248.144 358.628L250.473 360.203C251.885 361.158 252.869 361.732 253.424 361.924C254.362 362.261 255.271 362.27 256.15 361.95C257.055 361.625 257.858 360.945 258.558 359.91C259.237 358.906 259.575 357.9 259.571 356.891C259.567 355.883 259.247 355.004 258.611 354.254C258.226 353.81 257.327 353.111 255.915 352.156L253.586 350.581ZM275.614 370.106C275.856 365.287 276.64 360.662 277.966 356.233C279.319 351.799 281.169 347.221 283.517 342.499L289.469 346.525C286.247 352.575 284.109 358.524 283.057 364.373L283.292 364.532C289.019 360.222 293.917 356.139 297.987 352.285L304.175 356.469C295.361 364.636 285.282 372.187 273.939 379.124C272.805 379.82 271.534 380.195 270.127 380.249C268.729 380.287 267.308 379.92 265.864 379.149C264.645 378.484 262.906 377.388 260.647 375.861L264.37 370.355C265.907 371.395 267.134 372.133 268.05 372.57C268.993 373.001 269.769 373.138 270.379 372.979C270.732 372.897 271.074 372.797 271.406 372.678C271.748 372.544 272.127 372.355 272.544 372.111C272.971 371.851 273.282 371.661 273.477 371.542C273.683 371.407 274.057 371.157 274.601 370.793C275.155 370.413 275.492 370.184 275.614 370.106ZM310.242 399.901L306.423 405.548C302.815 403.954 299.787 402.33 297.34 400.675C293.999 398.416 291.842 395.791 290.869 392.801C289.923 389.807 290.017 386.693 291.151 383.46C291.959 381.217 293.52 378.386 295.832 374.967C298.144 371.547 300.191 369.045 301.971 367.46C304.576 365.198 307.407 363.935 310.465 363.672C313.524 363.409 316.708 364.396 320.017 366.634C322.527 368.331 325.048 370.368 327.579 372.742L323.761 378.389C320.523 375.537 318.026 373.517 316.269 372.329C312.803 369.985 309.426 370.33 306.139 373.365C304.844 374.57 303.354 376.419 301.667 378.913C299.981 381.407 298.819 383.479 298.183 385.129C296.606 389.321 297.598 392.62 301.159 395.028C303.12 396.354 306.147 397.978 310.242 399.901Z" fill="#626262"/>
<path d="M217.585 180.549C220.408 181.749 222.831 183.033 224.855 184.402C226.36 185.42 227.524 186.539 228.346 187.757C229.183 188.987 229.658 190.211 229.771 191.43C229.9 192.66 229.802 193.851 229.48 195.005C229.157 196.158 228.635 197.268 227.914 198.335C227.214 199.37 226.499 200.19 225.77 200.794C225.068 201.393 224.203 201.963 223.175 202.502L206.109 212.324L214.768 218.179L210.949 223.826L195.42 213.324L198.746 208.407L218.372 197.334C219.858 196.556 221.031 195.532 221.89 194.261C223.015 192.599 222.73 191.194 221.036 190.049C219.138 188.765 216.715 187.481 213.766 186.196L217.585 180.549ZM239.61 201.752C243.198 199.218 246.576 199.023 249.745 201.165C252.913 203.308 253.99 206.516 252.974 210.79C252.737 211.749 252.232 212.951 251.461 214.396C250.69 215.84 249.936 217.125 249.198 218.249C248.487 219.368 247.373 221.049 245.856 223.293C244.339 225.536 243.189 227.203 242.404 228.296C241.646 229.383 240.74 230.554 239.687 231.807C238.633 233.061 237.705 233.976 236.903 234.554C233.315 237.088 229.937 237.284 226.768 235.141C223.6 232.998 222.523 229.79 223.539 225.516C223.776 224.557 224.281 223.355 225.052 221.91C225.823 220.466 226.564 219.184 227.275 218.065C228.013 216.941 229.14 215.257 230.657 213.014C232.174 210.771 233.311 209.105 234.069 208.018C234.854 206.926 235.773 205.753 236.826 204.499C237.88 203.245 238.807 202.33 239.61 201.752ZM245.862 206.906C245.188 206.45 244.041 207.115 242.422 208.9C241.554 209.845 239.609 212.553 236.586 217.023L234.915 219.494L245.085 211.25C245.601 210.25 245.951 209.344 246.135 208.531C246.33 207.702 246.239 207.161 245.862 206.906ZM231.428 225.056C230.912 226.056 230.557 226.97 230.362 227.799C230.178 228.612 230.274 229.145 230.651 229.4C231.325 229.856 232.472 229.191 234.091 227.406C234.958 226.461 236.904 223.753 239.927 219.283L241.598 216.812L231.428 225.056ZM272.622 217.254L278.081 220.945L255.678 254.074L249.654 250L267.252 223.978L267.017 223.818L262.833 223.972L262.788 217.598L272.622 217.254ZM288.89 246.463C289.92 246.359 290.89 246.615 291.8 247.23C293.541 248.408 294.453 249.95 294.535 251.857C294.678 254.857 293.391 258.365 290.676 262.38C288.798 265.157 287.147 267.057 285.722 268.083C284.239 269.16 282.602 269.722 280.811 269.767C279.046 269.808 277.317 269.256 275.623 268.11C273.725 266.827 272.437 265.35 271.76 263.681C271.094 261.996 270.979 260.238 271.417 258.408C271.665 257.365 272.045 256.364 272.555 255.406C273.066 254.449 273.83 253.217 274.849 251.711C278.084 246.927 280.935 243.437 283.402 241.243C287.106 237.964 292.217 235.442 298.736 233.679L300.762 240.57C298.184 241.272 295.944 242.032 294.043 242.849C292.141 243.666 290.367 244.786 288.719 246.209L288.89 246.463ZM280.789 262.346C281.848 261.896 283.136 260.55 284.653 258.307C286.169 256.064 286.94 254.367 286.963 253.217C286.983 252.545 286.774 252.06 286.334 251.763C285.895 251.466 285.367 251.452 284.751 251.721C283.693 252.171 282.405 253.518 280.888 255.761C279.371 258.004 278.601 259.701 278.578 260.851C278.557 261.523 278.767 262.007 279.206 262.304C279.645 262.601 280.173 262.615 280.789 262.346ZM313.068 244.606L330.009 256.062L326.668 261.003L300.218 284.194L294.124 280.073L319.796 257.728L319.955 257.492L309.25 250.253L313.068 244.606ZM346.296 282.403C343.061 287.188 340.21 290.677 337.742 292.872C334.039 296.151 328.928 298.672 322.409 300.436L320.383 293.545C322.961 292.842 325.201 292.083 327.102 291.265C329.003 290.448 330.778 289.328 332.426 287.905L332.254 287.652C331.224 287.755 330.254 287.499 329.345 286.884C327.604 285.707 326.692 284.164 326.61 282.257C326.467 279.258 327.753 275.75 330.469 271.734C332.347 268.958 333.998 267.057 335.423 266.032C336.932 264.949 338.585 264.398 340.381 264.379C342.177 264.359 343.969 264.954 345.758 266.163C347.546 267.372 348.765 268.814 349.416 270.489C350.067 272.163 350.171 273.902 349.728 275.706C349.48 276.75 349.1 277.75 348.59 278.708C348.079 279.666 347.315 280.897 346.296 282.403ZM340.356 271.768C339.297 272.218 338.009 273.565 336.492 275.808C334.975 278.051 334.205 279.747 334.182 280.897C334.162 281.569 334.371 282.054 334.81 282.351C335.25 282.648 335.777 282.662 336.394 282.393C337.452 281.943 338.74 280.597 340.257 278.354C341.774 276.11 342.544 274.414 342.567 273.264C342.588 272.592 342.378 272.107 341.939 271.81C341.5 271.513 340.972 271.499 340.356 271.768ZM355.111 321.316L349.087 317.243L353.415 310.843L342.874 303.714L346.375 298.538L373.249 283.897L376.596 290.001L353.723 302.478L353.563 302.714L357.234 305.196L359.462 301.902L365.485 305.975L363.257 309.269L366.269 311.306L362.45 316.953L359.439 314.916L355.111 321.316Z" fill="#313131"/>
</svg>
