<svg width="651" height="633" viewBox="0 0 651 633" fill="none" xmlns="http://www.w3.org/2000/svg">
<path d="M70.2844 43.589C143.63 14.4688 347.592 -26.2994 576.673 43.589V67.6883H618.872V106.85H646V197.223H600.787V106.85H618.872V67.6883H576.673V540.64H555.573V628H498.303V540.64H148.654V628H91.3839V540.64H70.2844V67.6883H28.0853V106.85H49.1848V197.223H5V106.85H28.0853V67.6883H70.2844V43.589Z" fill="white"/>
<path d="M91.3839 540.64H70.2844V67.6883M91.3839 540.64V628H148.654V540.64M91.3839 540.64H148.654M148.654 540.64H498.303M555.573 540.64H576.673V67.6883M555.573 540.64V628H498.303V540.64M555.573 540.64H498.303M70.2844 67.6883V43.589C143.63 14.4688 347.592 -26.2994 576.673 43.589V67.6883M70.2844 67.6883H28.0853V106.85M28.0853 106.85H49.1848V197.223H5V106.85H28.0853ZM576.673 67.6883H618.872V106.85M618.872 106.85H646V197.223H600.787V106.85H618.872ZM205.924 459.304V516.54H450.076V459.304H205.924ZM91.3839 67.6883V311.695H555.573V67.6883H91.3839Z" stroke="#313131" stroke-width="10"/>
<mask id="mask0_182_32" style="mask-type:alpha" maskUnits="userSpaceOnUse" x="127" y="111" width="201" height="196">
<rect x="127" y="111" width="201" height="196" fill="#D9D9D9"/>
</mask>
<g mask="url(#mask0_182_32)">
<path d="M260.008 160V147.561C259.113 138.537 251.471 120.39 228.056 120C203.91 120 195.374 145.366 195.374 147.561V160M260.008 160C264.235 159.106 274.061 159.031 274.642 166.585C275.374 176.098 270.495 180.122 260.008 178.293M260.008 160V161.951M260.008 178.293V184.878C258.607 190.649 253.785 200.42 244.154 206.001M260.008 178.293V161.951M195.374 160C190.983 159.106 182.008 159.171 181.227 166.585C180.252 175.854 185.13 180.244 195.374 178.293M195.374 160V161.951M195.374 178.293V184.878C196.923 190.687 201.92 200.425 211.471 205.995M195.374 178.293V161.951M195.374 161.951C205.63 162.623 224.469 162.038 235.861 156.417M244.154 149.024C242.599 152.135 239.64 154.553 235.861 156.417M235.861 156.417C239.032 160.107 248.3 166.378 260.008 161.951M244.154 206.001C239.809 208.518 234.486 210.183 228.056 210.244C221.447 210.306 215.957 208.61 211.471 205.995M244.154 206.001V226.585C230.008 237.927 215.861 231.545 211.471 226.585V205.995" stroke="#626262" stroke-width="7"/>
<path d="M269.276 227.561C284.154 227.561 300.544 229.366 308.544 252.195L322.203 302.439M322.203 302.439C322.528 303.09 323.666 306.571 319.52 307.561H292.203L279.802 288.049M322.203 302.439L294.12 273.415M260.008 257.317H278.544L294.12 273.415M260.008 257.317L253.666 268.537M260.008 257.317C233.3 241.707 206.481 250.732 198.544 257.317M253.666 268.537C245.275 262.927 223.626 255.073 204.154 268.537M253.666 268.537C256.232 270.736 260.694 275.021 264.171 279.512M268.544 286.829L275.617 281.464L279.802 288.049M268.544 286.829C270.691 293.464 269.438 305.041 268.544 310M268.544 286.829C267.711 284.538 266.091 281.994 264.171 279.512M279.802 288.049L294.12 273.415M212 227.561H179.764C172.365 227.399 155.861 232.098 149.032 252.195L136.105 302.439M136.105 302.439C135.495 305.366 137.569 307.561 141.471 307.561H166.105L178.157 288.049M136.105 302.439L164.188 273.415M198.544 257.317H179.764L164.188 273.415M198.544 257.317L204.154 268.537M204.154 268.537C199.969 271.756 196.428 275.861 193.791 279.512M189.276 286.829L181.471 282.683L178.157 288.049M189.276 286.829C186.934 295.22 187.487 305.773 188.056 310M189.276 286.829C190.081 285.183 191.633 282.5 193.791 279.512M164.188 273.415L178.157 288.049M240.983 310C239.977 308.87 238.557 307.626 236.837 306.571M216.593 310C217.919 308.57 219.253 307.442 220.581 306.571M236.837 306.571L264.171 279.512M236.837 306.571C232.656 304.006 226.698 302.556 220.581 306.571M220.581 306.571L193.791 279.512" stroke="#626262" stroke-width="7"/>
</g>
</svg>
