<svg width="634" height="638" viewBox="0 0 634 638" fill="none" xmlns="http://www.w3.org/2000/svg">
<path d="M59.9233 48.0553C211.927 -20.8316 474.456 3.39193 576.499 48.0553V71.8095H606.187V98.5328H629V190.58H591.343V98.5328H606.187V71.8095H576.499V546.891H552.748V633H502V546.891H451.808H181.645H134.144V633H83.6739V546.891H59.9233V71.8095H27.2662V98.5328H42.1103V190.58H5V98.5328H27.2662V71.8095H59.9233V48.0553Z" fill="white"/>
<path d="M552.748 546.891H576.499V71.8095M552.748 546.891V633H502V546.891M552.748 546.891H502M502 546.891H451.808M83.6739 546.891H59.9233V71.8095M83.6739 546.891V633H134.144V546.891M83.6739 546.891H134.144M134.144 546.891H181.645M181.645 546.891V481.568H451.808V546.891M181.645 546.891H451.808M576.499 71.8095V48.0553C474.456 3.39193 211.927 -20.8316 59.9233 48.0553V71.8095M576.499 71.8095H606.187V98.5328M606.187 98.5328H629V190.58H591.343V98.5328H606.187ZM59.9233 71.8095H27.2662V98.5328M27.2662 98.5328H42.1103V190.58H5V98.5328H27.2662ZM181.645 359.828V380.613H451.808V359.828H181.645ZM196.489 398.428V419H433.995V398.428H196.489ZM214.302 434.06V457H419.151V434.06H214.302ZM143 119.318L181.645 294.504H451.808L491 119.318H143Z" stroke="#313131" stroke-width="10"/>
</svg>
