<svg width="582" height="428" viewBox="0 0 582 428" fill="none" xmlns="http://www.w3.org/2000/svg">
<rect x="4.66966" y="137.437" width="513.238" height="295.176" rx="10.3102" transform="rotate(-14.9921 4.66966 137.437)" fill="white" stroke="#313131" stroke-width="7.62612"/>
<path fill-rule="evenodd" clip-rule="evenodd" d="M97.3826 201.522L109.559 134.618C110.465 129.639 115.502 127.106 117.907 126.462L405.721 49.385C423.457 48.1876 432.968 59.3559 435.506 65.0898L467.683 185.24L409.82 200.736C399.645 177.622 376.939 175.013 363.889 178.508C342.803 184.155 332.412 205.962 335.08 220.751L208.505 254.648C199.96 232.39 177.92 229.247 166.066 231.486C145.219 235.422 132.862 256.818 136.176 274.018L118.094 278.86L97.3826 201.522ZM125.055 140.829L115.465 196.68L176.005 180.467L162.691 130.75L125.055 140.829ZM190.045 176.707L176.73 126.99L255.353 105.935L268.667 155.652L190.045 176.707ZM269.392 102.175L282.707 151.892L360.177 131.146L346.863 81.4283L269.392 102.175ZM373.965 127.453L360.651 77.7359L402.77 66.4563C410.632 64.3508 419.406 67.6831 421.988 77.327L431.3 112.099L373.965 127.453Z" fill="white" stroke="#626262" stroke-width="7.62612"/>
<circle cx="173.631" cy="269.155" r="26.1379" transform="rotate(-14.9921 173.631 269.155)" fill="white" stroke="#626262" stroke-width="7.62612"/>
<path d="M400.195 208.481C403.892 222.285 395.256 236.862 380.503 240.813C365.75 244.764 350.984 236.453 347.288 222.649C343.591 208.846 352.227 194.268 366.98 190.317C381.733 186.366 396.498 194.677 400.195 208.481Z" fill="white" stroke="#626262" stroke-width="7.62612"/>
</svg>
