<svg width="697" height="391" viewBox="0 0 697 391" fill="none" xmlns="http://www.w3.org/2000/svg">
<path d="M122.222 124.327C146.435 86.1036 198.412 9.01093 212.617 6.42682C226.822 3.84271 404.706 5.35011 491.873 6.42682C512.858 26.8844 558.701 79.105 574.197 124.327H627.466C643.607 107.1 678.797 82.9812 690.419 124.327L658.135 138.862V353.667L627.466 385.968H574.197L546.756 353.667H456.361V377.893H246.515V353.667H162.577L133.521 385.968H75.4104L44.7407 353.667V138.862L6 124.327C7.07613 104.408 22.4648 76.5209 75.4104 124.327H122.222Z" fill="white"/>
<path d="M122.222 124.327C146.435 86.1036 198.412 9.01093 212.617 6.42682C226.822 3.84271 404.706 5.35011 491.873 6.42682C512.858 26.8844 558.701 79.105 574.197 124.327M122.222 124.327H75.4104C22.4648 76.5209 7.07613 104.408 6 124.327L44.7407 138.862M122.222 124.327H574.197M122.222 124.327L114.347 169.145L44.7407 138.862M574.197 124.327H627.465C643.607 107.1 678.797 82.9812 690.419 124.327L658.135 138.862M574.197 124.327L585.887 169.145L658.135 138.862M658.135 138.862V353.667L627.465 385.968H574.197L546.756 353.667H456.361M456.361 353.667V377.893H246.515V353.667M456.361 353.667L420.848 324.595H283.642L246.515 353.667M246.515 353.667H162.577L133.521 385.968H75.4104L44.7407 353.667V138.862" stroke="#313131" stroke-width="10"/>
<path d="M235.989 237.825H463V299.67H235.989V237.825Z" fill="white" stroke="#313131" stroke-width="10"/>
<mask id="mask0_182_64" style="mask-type:alpha" maskUnits="userSpaceOnUse" x="205" y="5" width="137" height="115">
<rect x="205" y="5.5" width="137" height="114" fill="#D9D9D9"/>
</mask>
<g mask="url(#mask0_182_64)">
<path d="M305.008 60.9659V48.4215C304.113 39.3206 296.471 21.0205 273.056 20.627C248.91 20.627 240.374 46.2078 240.374 48.4215V60.9659M305.008 60.9659C309.235 60.064 319.061 59.9882 319.642 67.6071C320.374 77.1999 315.495 81.2584 305.008 79.4136M305.008 60.9659V62.9337M305.008 79.4136V86.0548C303.607 91.8745 298.785 101.728 289.154 107.356M305.008 79.4136V62.9337M240.374 60.9659C235.983 60.064 227.008 60.1296 226.227 67.6071C225.252 76.9539 230.13 81.3814 240.374 79.4136M240.374 60.9659V62.9337M240.374 79.4136V86.0548C241.923 91.9127 246.92 101.734 256.471 107.35M240.374 79.4136V62.9337M240.374 62.9337C250.63 63.6109 269.469 63.0214 280.861 57.3528M289.154 49.8973C287.599 53.0339 284.64 55.4727 280.861 57.3528M280.861 57.3528C284.032 61.0734 293.3 67.3984 305.008 62.9337M289.154 107.356C284.809 109.895 279.486 111.574 273.056 111.636C266.447 111.698 260.957 109.988 256.471 107.35M289.154 107.356V128.116C275.008 139.553 260.861 133.117 256.471 128.116V107.35" stroke="#626262" stroke-width="7"/>
</g>
<mask id="mask1_182_64" style="mask-type:alpha" maskUnits="userSpaceOnUse" x="363" y="5" width="137" height="115">
<rect x="363" y="5.5" width="137" height="114" fill="#D9D9D9"/>
</mask>
<g mask="url(#mask1_182_64)">
<path d="M463.008 60.9659V48.4215C462.113 39.3206 454.471 21.0205 431.056 20.627C406.91 20.627 398.374 46.2078 398.374 48.4215V60.9659M463.008 60.9659C467.235 60.064 477.061 59.9882 477.642 67.6071C478.374 77.1999 473.495 81.2584 463.008 79.4136M463.008 60.9659V62.9337M463.008 79.4136V86.0548C461.607 91.8745 456.785 101.728 447.154 107.356M463.008 79.4136V62.9337M398.374 60.9659C393.983 60.064 385.008 60.1296 384.227 67.6071C383.252 76.9539 388.13 81.3814 398.374 79.4136M398.374 60.9659V62.9337M398.374 79.4136V86.0548C399.923 91.9127 404.92 101.734 414.471 107.35M398.374 79.4136V62.9337M398.374 62.9337C408.63 63.6109 427.469 63.0214 438.861 57.3528M447.154 49.8973C445.599 53.0339 442.64 55.4727 438.861 57.3528M438.861 57.3528C442.032 61.0734 451.3 67.3984 463.008 62.9337M447.154 107.356C442.809 109.895 437.486 111.574 431.056 111.636C424.447 111.698 418.957 109.988 414.471 107.35M447.154 107.356V128.116C433.008 139.553 418.861 133.117 414.471 128.116V107.35" stroke="#626262" stroke-width="7"/>
</g>
</svg>
