<svg width="662" height="444" viewBox="0 0 662 444" fill="none" xmlns="http://www.w3.org/2000/svg">
<rect x="207.738" y="192.579" width="247.13" height="61.8451" fill="white" stroke="black" stroke-width="10"/>
<path d="M526.041 22.1631C374.788 -3.54991 197.066 2.29362 132.784 22.1631L77.9544 107.243H17.4533L8 131.821H43.9226L17.4533 199.885V438.108H108.205L119.549 390.842H539.276L550.62 438.108H639.481V199.885L616.793 131.821H652.715L639.481 107.243H578.979L526.041 22.1631Z" fill="white"/>
<path d="M178.159 277.402H206M490.118 277.402H463.649M463.649 277.402L403.148 347.357H261L206 277.402M463.649 277.402H206M132.784 22.1631C197.066 2.29362 374.788 -3.54991 526.041 22.1631L578.979 107.243H639.481L652.715 131.821H616.793L639.481 199.885V438.108H550.62L539.276 390.842H119.549L108.205 438.108H17.4533V199.885L43.9226 131.821H8L17.4533 107.243H77.9544L132.784 22.1631ZM113.877 97.7895H539.276L511.861 44.851H146.018L113.877 97.7895Z" stroke="#313131" stroke-width="10"/>
</svg>
