<svg width="1114" height="451" viewBox="0 0 1114 451" fill="none" xmlns="http://www.w3.org/2000/svg">
<circle cx="97" cy="97" r="92" stroke="#E9AD00" stroke-width="10"/>
<path d="M52.415 74.1128C72.8759 70.1236 91.4066 68.129 108.007 68.129C120.361 68.129 131.17 69.9306 140.436 73.5337C149.83 77.1369 157.165 82.027 162.441 88.2038C167.845 94.3807 171.835 101.137 174.408 108.472C176.982 115.807 178.269 123.657 178.269 132.021C178.269 141.801 177.046 150.166 174.601 157.115C172.285 163.935 168.618 171.656 163.599 180.278L83.6855 319.837H186.376V343H52.415V325.821L141.594 169.468C144.553 164.321 146.677 160.396 147.964 157.694C149.25 154.991 150.473 151.324 151.631 146.691C152.918 142.058 153.561 137.168 153.561 132.021C153.561 126.874 152.918 122.112 151.631 117.737C150.344 113.362 148.157 109.115 145.068 104.997C141.98 100.751 137.283 97.4048 130.977 94.9598C124.672 92.5148 117.015 91.2923 108.007 91.2923C92.436 91.2923 73.9054 93.2869 52.415 97.2761V74.1128Z" fill="#313131"/>
<circle cx="1016" cy="353" r="93" stroke="#E9AD00" stroke-width="10"/>
<circle cx="549" cy="122" r="92" stroke="#E9AD00" stroke-width="10"/>
<path d="M572.398 71.2175H593.245V343H568.538V102.488H566.607L506.576 145.726L494.415 127.968L572.398 71.2175Z" fill="#313131"/>
<path d="M953.415 316.555C975.806 320.802 995.366 322.925 1012.1 322.925C1019.69 322.925 1026.25 321.767 1031.78 319.451C1037.45 317.006 1041.95 313.917 1045.3 310.185C1048.64 306.325 1051.28 301.435 1053.21 295.515C1055.27 289.467 1056.62 283.419 1057.26 277.371C1058.04 271.323 1058.42 264.309 1058.42 256.331C1058.42 247.065 1057.84 238.83 1056.68 231.623C1055.53 224.288 1053.53 217.339 1050.7 210.776C1048 204.213 1043.88 199.13 1038.35 195.527C1032.94 191.924 1026.25 190.122 1018.27 190.122C1001.29 190.122 987.838 197.136 977.929 211.162L953.415 204.599V71.2175H1076.95V94.3808H978.122V185.49H980.053C986.487 179.441 992.921 174.873 999.356 171.785C1005.79 168.568 1013.38 166.959 1022.13 166.959C1062.8 166.959 1083.13 196.878 1083.13 256.717C1083.13 287.086 1077.21 309.606 1065.37 324.276C1053.66 338.818 1035.9 346.088 1012.1 346.088C996.396 346.088 976.836 344.094 953.415 340.105V316.555Z" fill="#313131"/>
<line x1="351" y1="49" x2="351" y2="397" stroke="#313131" stroke-width="10" stroke-dasharray="20 20"/>
<line x1="800" y1="48" x2="800" y2="396" stroke="#313131" stroke-width="10" stroke-dasharray="20 20"/>
<path d="M492.5 168H489.5C489.5 167.445 489.523 166.957 489.57 166.535C489.625 166.113 489.727 165.703 489.875 165.305C490.023 164.898 490.223 164.566 490.473 164.309C490.723 164.051 491.059 163.844 491.48 163.687C491.902 163.531 492.402 163.453 492.98 163.453C493.402 163.453 493.785 163.547 494.129 163.734C494.48 163.922 494.75 164.125 494.938 164.344C495.133 164.562 495.348 164.766 495.582 164.953C495.824 165.141 496.059 165.234 496.285 165.234C496.598 165.234 496.793 165.105 496.871 164.848C496.957 164.59 497 164.141 497 163.5H500C500 164.055 499.973 164.543 499.918 164.965C499.871 165.387 499.773 165.801 499.625 166.207C499.477 166.605 499.277 166.934 499.027 167.191C498.777 167.449 498.441 167.656 498.02 167.812C497.598 167.969 497.098 168.047 496.52 168.047C496.098 168.047 495.711 167.953 495.359 167.766C495.016 167.578 494.746 167.375 494.551 167.156C494.363 166.937 494.148 166.734 493.906 166.547C493.672 166.359 493.441 166.266 493.215 166.266C492.902 166.266 492.703 166.395 492.617 166.652C492.539 166.91 492.5 167.359 492.5 168ZM503.006 170.988C504.279 171.246 505.389 171.375 506.334 171.375C506.67 171.375 506.951 171.309 507.178 171.176C507.404 171.043 507.572 170.848 507.682 170.59C507.791 170.332 507.865 170.059 507.904 169.77C507.951 169.48 507.975 169.137 507.975 168.738C507.975 166.996 507.514 166.125 506.592 166.125C506.092 166.125 505.705 166.277 505.432 166.582L503.006 165.949V157.5H510.506V160.312H506.006V163.969H506.123C506.6 163.664 507.115 163.512 507.67 163.512C509.811 163.512 510.881 165.262 510.881 168.762C510.881 170.605 510.521 171.973 509.803 172.863C509.092 173.746 508.014 174.188 506.568 174.188C505.615 174.188 504.428 174.066 503.006 173.824V170.988ZM519.887 168.973C519.887 168.004 519.797 167.309 519.617 166.887C519.445 166.457 519.145 166.242 518.715 166.242C518.324 166.242 517.941 166.324 517.566 166.488L515.82 164.543L519.16 160.312H515.012V157.5H522.512V160.195L519.559 163.652L519.641 163.734C519.758 163.695 519.895 163.676 520.051 163.676C521.941 163.676 522.887 165.449 522.887 168.996C522.887 170.762 522.527 172.07 521.809 172.922C521.09 173.766 520.012 174.188 518.574 174.188C517.621 174.188 516.434 174.066 515.012 173.824V170.988C516.371 171.246 517.559 171.375 518.574 171.375C519.082 171.375 519.426 171.164 519.605 170.742C519.793 170.32 519.887 169.73 519.887 168.973ZM529.467 161.812C530.373 161.812 531.025 162.129 531.424 162.762H531.518V157.5H534.518V174H531.518V173.238H531.424C531.025 173.871 530.373 174.188 529.467 174.188C528.873 174.188 528.346 173.945 527.885 173.461C527.432 172.969 527.1 172.285 526.889 171.41C526.725 170.707 526.643 169.57 526.643 168C526.643 166.43 526.725 165.293 526.889 164.59C527.1 163.715 527.432 163.035 527.885 162.551C528.346 162.059 528.873 161.812 529.467 161.812ZM531.096 164.988C530.955 164.746 530.783 164.625 530.58 164.625C530.377 164.625 530.205 164.746 530.064 164.988C529.924 165.223 529.822 165.52 529.76 165.879C529.682 166.301 529.643 167.008 529.643 168C529.643 168.992 529.682 169.699 529.76 170.121C529.822 170.48 529.924 170.781 530.064 171.023C530.205 171.258 530.377 171.375 530.58 171.375C530.783 171.375 530.955 171.258 531.096 171.023C531.236 170.781 531.338 170.48 531.4 170.121C531.479 169.699 531.518 168.992 531.518 168C531.518 167.008 531.479 166.301 531.4 165.879C531.338 165.52 531.236 165.223 531.096 164.988ZM542.773 161.812C543.68 161.812 544.453 162.035 545.094 162.48C545.734 162.918 546.191 163.48 546.465 164.168C546.598 164.504 546.695 164.898 546.758 165.352C546.828 165.805 546.867 166.207 546.875 166.559C546.891 166.902 546.898 167.383 546.898 168V169.406H541.66C541.66 170.047 541.719 170.496 541.836 170.754C542.039 171.168 542.43 171.375 543.008 171.375C543.859 171.375 545.031 171.297 546.523 171.141V173.941C545.102 174.105 543.93 174.188 543.008 174.188C542.039 174.188 541.223 173.961 540.559 173.508C539.895 173.055 539.414 172.465 539.117 171.738C538.914 171.246 538.785 170.719 538.73 170.156C538.676 169.594 538.648 168.875 538.648 168C538.648 167.102 538.672 166.363 538.719 165.785C538.773 165.199 538.895 164.66 539.082 164.168C539.34 163.473 539.789 162.906 540.43 162.469C541.078 162.031 541.859 161.812 542.773 161.812ZM542.773 164.625C542.641 164.625 542.52 164.641 542.41 164.672C542.301 164.695 542.207 164.746 542.129 164.824C542.059 164.895 541.996 164.961 541.941 165.023C541.887 165.078 541.84 165.176 541.801 165.316C541.77 165.449 541.742 165.555 541.719 165.633C541.703 165.711 541.688 165.844 541.672 166.031C541.664 166.211 541.66 166.34 541.66 166.418C541.66 166.488 541.656 166.625 541.648 166.828H543.898C543.883 166.023 543.82 165.492 543.711 165.234C543.555 164.828 543.242 164.625 542.773 164.625ZM555.529 171.738H555.412C554.959 172.371 554.412 172.687 553.771 172.687C552.904 172.687 552.236 172.371 551.768 171.738C551.025 170.746 550.654 169.25 550.654 167.25C550.654 165.25 551.025 163.754 551.768 162.762C552.236 162.129 552.904 161.812 553.771 161.812C554.412 161.812 554.959 162.129 555.412 162.762H555.529V162H558.529V172.125C558.529 173.461 558.291 174.527 557.814 175.324C557.463 175.902 556.963 176.355 556.314 176.684C555.666 177.02 554.881 177.188 553.959 177.188C553.053 177.188 552.131 177.129 551.193 177.012V174.199C552.248 174.316 553.17 174.375 553.959 174.375C554.521 174.375 554.924 174.16 555.166 173.73C555.408 173.301 555.529 172.766 555.529 172.125V171.738ZM554.041 164.977C553.783 165.375 553.654 166.133 553.654 167.25C553.654 168.367 553.783 169.125 554.041 169.523C554.189 169.758 554.373 169.875 554.592 169.875C554.811 169.875 554.994 169.758 555.143 169.523C555.4 169.125 555.529 168.367 555.529 167.25C555.529 166.133 555.4 165.375 555.143 164.977C554.994 164.742 554.811 164.625 554.592 164.625C554.373 164.625 554.189 164.742 554.041 164.977Z" fill="#E9AD00"/>
<path d="M51 56.4998C61 53.4998 86.2 47.9998 107 49.9998M107 49.9998L100 42M107 49.9998L100 58.5" stroke="#313131" stroke-width="3"/>
<path d="M955 358C965 361 990.2 366.5 1011 364.5M1011 364.5L1004 372.5M1011 364.5L1004 356" stroke="#313131" stroke-width="3"/>
<path d="M529.826 118.867C533.5 126.498 546 140.998 568 139.499M568 139.499L561 146.5M568 139.499L561 131.998" stroke="#313131" stroke-width="3"/>
</svg>
