<svg width="1440" height="836" viewBox="0 0 1440 836" fill="none" xmlns="http://www.w3.org/2000/svg">
<mask id="mask0_202_29" style="mask-type:alpha" maskUnits="userSpaceOnUse" x="0" y="0" width="1440" height="836">
<rect width="1440" height="836" fill="#D9D9D9"/>
</mask>
<g mask="url(#mask0_202_29)">
<mask id="mask1_202_29" style="mask-type:alpha" maskUnits="userSpaceOnUse" x="-301" y="-524" width="2088" height="1360">
<rect x="-301" y="-524" width="2088" height="1360" fill="#D9D9D9"/>
</mask>
<g mask="url(#mask1_202_29)">
<path d="M588.885 138.795L582.036 180.119L618.742 198.035L640.811 186.912M640.811 186.912L624.921 129.372M640.811 186.912L668.995 268.845L733.625 287.253L729.397 238.402L715.932 211.686M715.932 211.686L834.003 206.074M715.932 211.686L702.412 167.519M834.003 206.074L926.12 270.351M834.003 206.074L844.792 123.436L702.412 167.519M702.412 167.519L685.36 110.565M862.272 132.106L882.018 122.153L944.736 133.878M971.404 59.6241L958.626 66.0638L958.152 99.805L945.375 106.245M659.944 349.151L648.775 312.538L685.973 302.53L727.631 414.087L739.839 411.576L790.364 567.461L741.541 580.415M659.944 349.151L615.182 358.601M659.944 349.151L685.51 430.946M615.182 358.601L592.257 284.214L539.355 294.854L564.073 384.36M615.182 358.601L564.073 384.36M615.182 358.601L641.628 442.866M564.073 384.36L582.936 462.25L594.856 460.612L622.16 540.075L584.386 551.83M692.479 427.434L703.944 462.441M741.541 580.415L678.816 612.028M741.541 580.415L703.944 462.441M967.327 513.96L907.757 531.602L919.531 575.193L836.144 603.382M752.757 631.57L717.91 649.133L614.493 689.602L601.028 662.885M752.757 631.57L794.45 617.476M752.757 631.57L805.352 707.026L885.477 750.399M703.944 462.441L540.07 518.814L549.415 530.854L423.299 567.469M1017.67 703.44L976.976 712.295L950.002 745.479M862.018 781.887L885.477 750.399M908.936 718.911L919.061 725.462M908.936 718.911L832.013 676.11L794.45 617.476M908.936 718.911L885.477 750.399M950.002 745.479L900.782 806.777L890.586 801.72L862.018 841.739M950.002 745.479L919.061 725.462M1004.11 647.638L972.739 660.536L953.735 683.522M919.061 725.462L953.735 683.522M836.144 603.382L873.225 648.056L953.735 683.522M836.144 603.382L794.45 617.476M591.378 555.589L546.658 578.128L560.754 620.548L513.13 644.551L507.963 666.091L462.049 679.035M469.26 705.626L601.028 662.885M601.028 662.885L696.035 630.297M742.175 687.885L701.778 698.049M701.778 698.049L666.931 715.612M701.778 698.049L729.943 774.164M666.931 715.612L630.374 744.233L652.666 802.915M666.931 715.612L685.19 786.523M652.666 802.915L685.19 786.523M652.666 802.915L600.513 817.932M652.666 802.915L696.035 879.657M685.19 786.523L729.943 774.164M729.943 774.164L740.281 823.577M729.943 774.164L774.88 773.73M776.789 734.167L774.88 773.73M740.281 823.577L776.29 805.429L774.88 773.73M740.281 823.577L764.051 874.042M511.365 815.643L600.513 817.932M579.31 911.664L600.513 817.932M962.908 496.522C974.378 490.378 999.042 480.933 1005.94 492.313L1024.59 508.405M1246.18 671.298C1245.73 666.066 1242.51 654.042 1233.64 639.746M1024.59 508.405L1047.8 482.872L1195.08 602.373M1024.59 508.405L1070.68 548.174M1195.08 602.373L1222.76 624.835C1227.09 629.947 1230.68 634.973 1233.64 639.746M1195.08 602.373L1129.36 619.473M1129.36 619.473L1116.77 587.943L1070.68 548.174M1129.36 619.473L1134.68 632.812M1233.64 639.746L1173.98 649.423L1157.92 691.021M1157.92 691.021L1134.68 632.812M1157.92 691.021L1170.43 762.86M995.276 613.49L1020.28 610.356M1020.28 610.356L1041.84 583.763M1020.28 610.356L1050.15 634.932L1070.73 715.297M1070.68 548.174L1041.84 583.763M1041.84 583.763L1075.23 608.881L1094.82 654.362M1027.06 730.751L1070.73 715.297M1114.4 699.843L1070.73 715.297M1114.4 699.843L1094.82 654.362M1114.4 699.843L1136.97 771.845M1094.82 654.362L1134.68 632.812M986.517 329.494C990.188 340.362 995.107 354.507 1000.4 369.107M1032.93 443.026L1109.53 504.199C1113.71 507.676 1125.37 512.234 1138.61 502.652L1148.74 488.076M1032.93 443.026C1029.67 441.832 1022.64 426.658 1014.73 406.929M1032.93 443.026L1156.71 399.578M1148.74 488.076L1185.65 478.942L1169.72 435.261M1148.74 488.076C1139.28 480.079 1123.76 467.099 1112.14 457.725M1014.73 406.929L1071.37 388.029M1014.73 406.929C1010.06 395.265 1005.09 382.008 1000.4 369.107M1071.37 388.029C1078.4 406.798 1093.4 444.74 1097.13 446.357C1098.6 446.997 1104.54 451.589 1112.14 457.725M1071.37 388.029L1113.76 373.882M1169.72 435.261L1112.14 457.725M1169.72 435.261L1156.71 399.578M1156.71 399.578L1143.69 363.895L1113.76 373.882M1146.62 279.391L1158.65 312.656L1150.45 323.842M1113.76 373.882L1150.45 323.842M1150.45 323.842L1090.39 341.959M1000.4 369.107L1090.39 341.959M1076.3 299.54L1090.39 341.959M1214.1 188.573L1242.55 284.211M1278.85 334.378L1252.91 319.045L1250.27 310.178M1278.85 334.378L1298.75 373.872L1318.27 383.698M1278.85 334.378L1304.4 321.499L1310.95 321.841M1318.27 383.698L1329.69 406.349M1318.27 383.698L1331.73 363.077M1318.27 383.698L1260 409.706M1329.69 406.349L1338.56 452.858L1277.3 471.487M1329.69 406.349L1366.6 392.886M1329.69 406.349L1313.97 425.922L1266.42 449.889M1393.82 269.15L1408.39 277.829L1429.56 350.185L1427.54 353.391M1393.82 269.15L1385.85 249.496M1393.82 269.15L1369.43 281.444L1362.57 321.313M1366.17 206.611L1377.88 229.842M1377.88 229.842L1362.6 237.545L1354.31 221.1L1325.85 235.443L1335.35 267.3M1377.88 229.842L1385.85 249.496M1335.35 267.3L1242.55 284.211M1335.35 267.3L1343.21 269.893M1242.55 284.211L1250.27 310.178M1343.21 269.893L1385.85 249.496M1343.21 269.893L1345.3 287.047L1332.52 293.487M1250.27 310.178L1319.75 299.926L1332.52 293.487M1332.52 293.487L1341.6 311.491M1341.6 311.491L1320.11 322.321L1310.95 321.841M1341.6 311.491L1362.57 321.313M1310.95 321.841L1331.73 363.077M1331.73 363.077L1337.03 355.897M1362.57 321.313L1359.11 326.002M1427.54 353.391L1413.36 375.833L1366.6 392.886M1427.54 353.391L1393.32 339.697M1359.11 326.002L1393.32 339.697M1359.11 326.002L1337.03 355.897M1393.32 339.697L1388.58 359.915L1349.05 368.185M1349.05 368.185L1337.03 355.897M1349.05 368.185L1366.6 392.886M1260 409.706L1217.19 428.813L1230.51 455.239M1260 409.706L1266.42 449.889M1266.42 449.889L1277.3 471.487M1266.42 449.889L1230.51 455.239M1277.3 471.487L1243.83 481.665L1230.51 455.239M1549.47 190.703L1472.49 222.943L1508.6 327.828L1494.01 404.371L1472.2 416.592M1303.8 681.585L1286.51 666.994L1277.3 648.721M464.597 201.436L418.636 199.837M464.597 201.436L411.852 170.482L389.155 167.355M464.597 201.436L503.607 212.364M464.597 201.436L471.767 223.677M489.138 417.757C514.216 401.621 517.695 373.746 516.3 361.825L478.936 245.919M346.823 209.083L352.68 191.803M389.155 167.355L364.688 156.38L352.68 191.803M389.155 167.355L388.9 178.408L352.68 191.803M505.4 227.483L478.936 245.919M478.936 245.919L471.767 223.677M422.176 215.532L471.767 223.677M314.675 252.233L422.78 222.511M368.706 412.906L425.542 397.065M472.16 384.071L425.542 397.065M458.286 502.495L425.542 397.065M-60.009 690.154L-27.6323 790.366M9.18533 771.81L69.6744 951.078L32.5042 969.811L-27.6323 790.366M9.18533 771.81L-27.6323 790.366M9.18533 771.81L16.8867 768.305M82.6249 634.29C97.3442 659.16 121.154 713.339 98.6402 731.095L16.8867 768.305M-22.8271 675.056L16.8867 768.305M-180.029 540.89C-170.521 539.115 -157.042 535.812 -142.079 530.928M-52.5346 480.275L-41.1188 502.925L-41.0027 539.283L-91.2755 553.695L-50.728 681.835M-52.5346 480.275L-13.1521 470.266M-52.5346 480.275C-65.4884 494.531 -83.9287 506.243 -103.24 515.505M43.662 455.827L40.7349 450.019L122.686 427.652L142.507 440.968M43.662 455.827L55.6297 490.58M43.662 455.827L-13.1521 470.266M142.507 440.968L150.529 464.601M142.507 440.968L357.267 382.984M193.597 591.47L179.452 549.803M101.791 624.631L71.6578 537.125M55.6297 490.58L150.529 464.601M55.6297 490.58L71.6578 537.125M150.529 464.601L165.307 508.134M71.6578 537.125L165.307 508.134M165.307 508.134L179.452 549.803M148.565 607.611L134.473 566.645L179.452 549.803M53.1234 640.783L-13.1521 470.266M-30.0985 675.079L-52.4236 606.217L-27.4498 593.63L0.985099 663.055M-142.079 530.928L-168.956 455.923L-133.505 445.339L-103.24 515.505M-142.079 530.928C-129.68 526.882 -116.262 521.75 -103.24 515.505M324.395 290.304L260.467 309.414L258.766 323.381L202.644 327.632L185.648 288.129L216.16 279.306L217.87 268.248M217.87 268.248L202.008 219.434M217.87 268.248L307.65 238.294M202.008 219.434L265.053 197.128L287.963 141.428M202.008 219.434L-5.4438 289.03L-60.009 124.019L-133.505 124.019M-3.99803 104.038C-1.8905 108.22 16.2363 155.747 25.0362 178.988L190.109 136.577M139.04 83.6581L166.046 70.047L178.261 69.7171L230.92 86.0508M301.503 226.097L327.76 159.697L287.963 141.428M287.963 141.428L301.708 108.008L267.716 97.4638M236.762 172.786L267.716 97.4638M267.716 97.4638L230.92 86.0508M202.928 143.226L230.92 86.0508M651.647 118.816L625.191 31.6428M625.191 31.6428C630.401 23.676 637.962 4.95928 626.525 -6.17324L569.734 -29.2608L588.528 26.8152L621.291 31.1292M625.191 31.6428L621.291 31.1292M614.156 128.243L592.398 54.7253L621.291 31.1292M797.229 75.3045L786.9 28.8C785.136 22.8915 787.537 9.54295 811.251 3.41741M811.251 3.41741L832.09 62.1047M811.251 3.41741L838.279 -3.64937L880.035 47.4087M809.839 -74.5284L783.207 -34.8865L745.456 -15.8602C738.652 -21.171 725.907 -34.9946 729.356 -47.8034C733.668 -63.8145 715.329 -68.4097 712.425 -66.9461M712.425 -66.9461C710.102 -65.7753 697.556 -47.7989 691.573 -38.957L628.072 -68.1313M712.425 -66.9461L735.025 -94.359M423.252 142.523L480.781 -13.5615L488.168 -68.2666M488.168 -68.2666L528.075 -49.7789L556.427 -6.53128M488.168 -68.2666L474.996 -94.4019L508.654 -120.105C511.183 -127.319 514.2 -135.879 517.453 -145.048M552.488 -238.334C550.595 -237.38 531.75 -185.346 517.453 -145.048M388.435 124.019L408.048 71.8926L375.023 39.7397M375.023 39.7397L384.589 12.3412L360.001 -36.4448L378.224 -68.2067M375.023 39.7397L346.041 112.156M437.529 -168.742L442.529 -151.598L426.388 -133.514M254.446 63.366L279.3 12.968L231.908 18.6455L185.041 6.57892L169.875 -6.17047L173.625 -16.0717L161.331 -40.4647C150.465 -42.7569 131.394 -51.8872 142.04 -70.0708M698.222 -142.815L718.146 -188.544M718.146 -188.544L647.606 -236.02M718.146 -188.544L726.398 -245.869L706.828 -308.109M647.606 -236.02L620.964 -199.286M647.606 -236.02L621.638 -261.532M647.606 -236.02L676.13 -275.522M704.653 -315.025L676.13 -275.522M704.653 -315.025L706.828 -308.109M704.653 -315.025L684.688 -373.424M537.266 -268.535L547.925 -300.854M605.892 -365.028L548.636 -351.466L549.365 -305.222L547.925 -300.854M605.892 -365.028L608.362 -348.794M605.892 -365.028L594.653 -423.455M621.638 -261.532L569.739 -300.924L547.925 -300.854M621.638 -261.532L608.362 -348.794M608.362 -348.794L649.539 -359.35M649.539 -359.35L676.13 -275.522M649.539 -359.35L684.688 -373.424M745.345 -323.88L706.828 -308.109M684.688 -373.424L690.732 -375.883M722.161 -388.668L699.798 -379.571M701.583 -456.954L667.072 -444.505M660.909 -442.282L635.35 -521.896L595.555 -505.48L594.653 -423.455M660.909 -442.282L594.653 -423.455M660.909 -442.282L667.072 -444.505M667.072 -444.505L690.732 -375.883M690.732 -375.883L699.798 -379.571M715.08 -420.058L692.429 -408.642L699.798 -379.571M1307.89 159.381L1250.81 82.1639M1250.81 82.1639L1208.79 69.7069L1200.26 77.1751M1250.81 82.1639L1281.77 57.313L1348.52 111.133L1365.15 146.798M1099.12 -17.6932L1191.73 84.6435L1200.26 77.1751M1099.12 -17.6932L1110.51 -27.4911M1099.12 -17.6932L1083.68 38.1035M1234.26 -188.395L1264.27 -161.578L1260.45 -156.544M1234.26 -188.395L1247 -204.376L1175.11 -273.991L1154.1 -254.971L1177.14 -225.087M1234.26 -188.395L1201 -200.286L1177.14 -225.087M1181.66 -88.7277L1107.48 -175.484L1142.31 -200.286M1181.66 -88.7277L1110.51 -27.4911M1181.66 -88.7277L1260.45 -156.544M1177.14 -225.087L1142.31 -200.286M1212.18 -115.002L1142.31 -200.286M1131.67 -147.194L1089.83 -115.951L1092.73 -103.566M1110.51 -27.4911L1106.77 -43.4838M1095.62 -91.1819L1068.64 -92.5953L1038.92 -25.6634L1064.18 -7.19686L1075.54 -45.5406L1106.77 -43.4838M1095.62 -91.1819L1106.77 -43.4838M1095.62 -91.1819L1092.73 -103.566M1261.38 175.543L1200.26 77.1751M1460.32 117.933L1448.1 101.137M1448.1 101.137L1473.78 72.5256L1421.58 19.7251L1424.43 -48.5867L1399.46 -72.4554L1353.27 -30.1655L1383.22 -5.91675L1381.09 18.6981L1377.33 23.0731M1448.1 101.137L1377.33 23.0731M1406.36 133.77L1381.26 120.838L1388.44 96.6213L1348.78 56.3226L1377.33 23.0731M1374.81 -102.817L1347.41 -81.3011L1275.38 -176.204L1260.45 -156.544M1092.73 -103.566L1030.23 -138.799M1030.23 -138.799L992.107 -160.291L961.152 -100.311L991.572 -49.5789L1030.23 -138.799ZM426.388 -133.514L390.107 -162.504L333.053 -168.344M426.388 -133.514L411.417 -116.741M333.053 -168.344L341.482 -258.778M333.053 -168.344L349.643 -131.565M333.053 -168.344L272.952 -164.298M278.19 -267.342L281.308 -318.731L345.301 -299.758L341.482 -258.778M278.19 -267.342L341.482 -258.778M278.19 -267.342L274.793 -230.804M517.453 -145.048L414.226 -200.986L282.033 -216.371M169.97 -238.273L208.671 -235.515M274.793 -230.804L273.544 -217.359L282.033 -216.371M274.793 -230.804L241.732 -233.16M378.224 -68.2067L396.447 -99.9685L411.417 -116.741M378.224 -68.2067L349.643 -131.565M447.08 -73.7915L411.417 -116.741M411.417 -116.741L327.901 -83.1258M268.662 -41.2527L274.732 -61.7246L327.901 -83.1258M268.662 -41.2527L292.43 -14.9813M268.662 -41.2527L227.666 -71.8428L239.907 -113.133M200.907 -125.022L241.995 -120.175L239.907 -113.133M200.907 -125.022L128.021 -168.383L128.533 -205.882L196.352 -193.962M200.907 -125.022L196.352 -193.962M196.352 -193.962L198.464 -201.087M208.671 -235.515L198.464 -201.087M208.671 -235.515L241.732 -233.16M198.464 -201.087L274.108 -189.641M274.108 -189.641L278.07 -203.006M274.108 -189.641L272.952 -164.298M282.033 -216.371L278.07 -203.006M241.732 -233.16L234.465 -208.647L278.07 -203.006M327.901 -83.1258L270.554 -111.708M270.554 -111.708L239.907 -113.133M270.554 -111.708L271.796 -138.955M349.643 -131.565L271.796 -138.955M271.796 -138.955L272.952 -164.298M1277.3 648.721L1250.51 595.558L1404.58 543.396L1386.65 484.699C1387.2 483.13 1387.85 481.579 1388.58 480.049M1277.3 648.721L1354.31 675.633M1472.49 619.473L1517.4 624.835L1504.27 691.021M1472.49 619.473L1444.78 707.252M1472.49 619.473L1451.09 587.943L1439.51 604.61M1444.78 707.252L1497.4 725.643L1504.27 691.021M1444.78 707.252L1354.31 675.633M1504.27 691.021L1422.16 660.536M1354.31 675.633L1366.17 639.746L1392.23 649.423M1392.23 649.423L1413.36 595.558L1439.51 604.61M1392.23 649.423L1422.16 660.536M1439.51 604.61L1422.16 660.536M1450.39 428.813L1429.27 440.644C1424.79 443.095 1418.24 447.34 1411.53 452.858M1450.39 428.813L1472.49 443.026L1472.49 471.487L1464.95 479.781M1450.39 428.813L1472.2 416.592M1457.41 488.076L1411.53 452.858M1457.41 488.076L1439.51 513.96L1388.58 480.049M1457.41 488.076L1464.95 479.781M1411.53 452.858C1402.71 460.114 1393.61 469.571 1388.58 480.049M1472.2 416.592L1508.6 457.725L1504.27 496.523L1464.95 479.781M1142.78 790.375L1164.42 830.805L1185.19 830.805L1173.98 783.241M1142.78 790.375L1173.98 783.241M1142.78 790.375L1136.97 771.845M1173.98 783.241L1170.43 762.86M1170.43 762.86L1136.97 771.845" stroke="#626262" stroke-width="5.26228"/>
<path d="M407.446 521.563L525.965 863.934L306.172 231.027M407.446 521.563L508.631 488.226M407.446 521.563L87.847 630.201C27.8016 650.753 -111.097 704.249 -186.33 753.819M1559.2 142.098L1632.58 166.296M1559.2 142.098L1474.19 117.937L1218.46 188.559C1203.35 191.322 1168.35 186.736 1125.3 159.77L934.094 34.729M1559.2 142.098L1534.22 150.329M934.094 34.729L829.033 -75.4624L742.909 -84.4951M934.094 34.729L907.514 42.6849M742.909 -84.4951L710.228 -117.549M742.909 -84.4951L747.249 -107.075M677.546 -150.603L621.976 -64.3308C606.464 -64.2813 571.521 -52.3028 555.85 -4.7845L476.082 154.861C474.831 158.656 473.913 163.933 474.212 169.642M677.546 -150.603L710.228 -117.549M677.546 -150.603L747.249 -107.075M460.354 330.3L535.888 302.427L499.499 201.324C492.548 199.031 487.368 195.726 483.568 191.874M460.354 330.3L415.434 199.265L348.57 209.659L306.172 231.027M460.354 330.3L508.631 488.226M306.172 231.027L155.387 102.366L-49.7126 102.366L-49.7126 -4.7845C11.2046 4.8134 311.547 74.0617 336.313 105.861C352.649 120.934 381.944 125.591 394.55 126.035L474.212 169.642M508.631 488.226C523.577 500.541 554.413 529.355 558.19 546.096C592.324 548.314 684.096 589.556 778.106 736.78L1045.94 885.272M508.631 488.226L885.887 363.933M885.887 363.933L903.26 398.402C915.492 403.405 942.31 422.128 951.729 457.001L1067 876M885.887 363.933L929.609 349.528M483.568 191.874L499.964 164.674M483.568 191.874C477.067 185.284 474.603 177.095 474.212 169.642M499.964 164.674L474.212 169.642M499.964 164.674L907.514 42.6849M907.514 42.6849L949.463 111.467L916.985 324.48L929.609 349.528M929.609 349.528L1534.22 150.329M673.357 -551.976L772.665 -239.328L751.588 -129.655M751.588 -129.655L710.228 -117.549M751.588 -129.655L747.249 -107.075M1534.22 150.329L1611.39 300.726" stroke="#626262" stroke-width="10.5246"/>
<circle cx="406.001" cy="521.466" r="11.577" fill="#626262"/>
<circle cx="932.229" cy="32.0734" r="11.577" fill="#626262"/>
</g>
<rect x="-237" y="-531" width="2038" height="1362" stroke="#626262" stroke-width="10"/>
<path d="M464.994 761.733C460.33 761.76 454.169 762.101 446.51 762.753L445.57 759.92C445.868 759.902 446.61 759.847 447.797 759.758C448.964 759.658 449.719 759.592 450.06 759.559C450.387 759.53 451.081 759.476 452.143 759.396C453.19 759.32 453.934 759.273 454.376 759.255C454.799 759.226 455.496 759.179 456.466 759.113C457.422 759.052 458.179 759.017 458.736 759.008C459.289 758.985 460.024 758.957 460.941 758.925C461.859 758.892 462.678 758.876 463.399 758.877C464.114 758.864 464.921 758.86 465.82 758.866C466.713 758.858 467.602 758.859 468.486 758.87C469.581 758.89 470.407 758.92 470.964 758.959C471.531 758.979 472.192 759.064 472.946 759.214C473.7 759.364 474.312 759.593 474.782 759.901C476.371 760.878 477.634 762.78 478.572 765.606L475.977 766.467C475.293 764.405 474.528 763.09 473.684 762.522C473.328 762.272 472.853 762.094 472.257 761.987C471.657 761.866 471.114 761.799 470.629 761.783C470.139 761.754 469.155 761.729 467.675 761.708L468.048 762.832C465.739 765.327 463.188 767.622 460.394 769.718C457.595 771.799 454.437 773.904 450.917 776.032L449.977 773.199C456.371 769.412 461.401 765.662 465.066 761.949L464.994 761.733ZM438.597 738.91L460.743 731.561L461.662 734.329L442.111 740.817L443.949 746.353L456.492 742.191C457.746 741.774 458.876 741.584 459.88 741.619C460.883 741.654 461.851 741.941 462.782 742.48C463.694 743.009 464.438 743.707 465.013 744.572C465.584 745.423 466.113 746.584 466.601 748.055L464.006 748.916C463.657 747.864 463.3 747.03 462.936 746.414C462.571 745.799 462.104 745.33 461.532 745.007C460.923 744.666 460.315 744.499 459.71 744.508C459.086 744.507 458.319 744.657 457.411 744.959L442.272 749.983L438.597 738.91ZM451.874 722.199L450.037 716.663L455.227 714.941L457.065 720.477L451.874 722.199ZM444.196 681.7L413.745 691.806L412.827 689.038L440.682 679.794L438.844 674.257L410.989 683.502L410.071 680.733L437.926 671.489L436.088 665.953L408.233 675.197L407.315 672.429L437.765 662.323L444.196 681.7ZM421.176 649.378L422.583 653.617C422.76 654.15 422.913 654.563 423.042 654.857C423.167 655.135 423.397 655.467 423.733 655.852C424.054 656.242 424.453 656.549 424.928 656.776C426.046 657.301 427.298 657.334 428.682 656.874C429.907 656.468 430.816 655.782 431.408 654.817C431.996 653.838 432.091 652.75 431.694 651.553C431.464 650.861 431.16 650.282 430.781 649.816C430.397 649.335 429.996 648.972 429.579 648.726C429.156 648.466 428.659 648.295 428.088 648.212C427.512 648.116 426.995 648.079 426.539 648.102C426.063 648.116 425.518 648.185 424.903 648.309C424.288 648.433 423.79 648.55 423.411 648.66C423.031 648.77 422.582 648.911 422.063 649.084L421.176 649.378ZM410.906 656.628C410.494 655.388 410.328 654.235 410.406 653.168C410.47 652.107 410.935 651.096 411.8 650.137C412.421 649.45 413.532 648.842 415.132 648.311L431.33 642.935L432.249 645.703L429.589 646.586L429.661 646.802C432.148 647.593 433.748 649.063 434.461 651.211C435.035 652.941 434.87 654.613 433.964 656.226C433.059 657.839 431.619 658.973 429.644 659.628C427.568 660.317 425.685 660.238 423.995 659.39C423.395 659.077 422.864 658.709 422.404 658.286C421.943 657.862 421.569 657.386 421.282 656.858C420.975 656.319 420.762 655.894 420.642 655.581C420.503 655.259 420.352 654.853 420.19 654.363L418.797 650.167L416.159 651.043C414.904 651.459 414.097 651.871 413.736 652.279C413.399 652.663 413.206 653.119 413.158 653.648C413.09 654.166 413.204 654.873 413.501 655.766C414.075 657.497 414.915 659.523 416.022 661.844L413.384 662.72C412.32 660.432 411.494 658.401 410.906 656.628ZM412.67 627.436C413.005 624.876 414.477 623.163 417.086 622.297C419.148 621.613 421.079 621.788 422.879 622.823C424.665 623.863 425.936 625.522 426.692 627.8C427.347 629.776 428.017 632.034 428.7 634.576L426.105 635.438C425.398 632.823 424.728 630.565 424.096 628.662C423.594 627.148 422.793 626.061 421.694 625.402C420.59 624.728 419.36 624.615 418.005 625.065C416.924 625.424 416.111 626.038 415.567 626.907C415.009 627.78 414.786 628.75 414.9 629.817C414.967 630.451 415.196 631.359 415.589 632.542L416.579 635.526L413.984 636.387L412.986 633.381C412.57 632.127 412.187 631.19 411.837 630.57C411.415 629.829 410.851 629.264 410.146 628.874C409.421 628.474 408.684 628.399 407.934 628.648C407.098 628.925 406.518 629.59 406.195 630.641C405.852 631.683 405.935 632.968 406.442 634.497C406.906 635.895 407.718 637.955 408.877 640.675L406.281 641.537C405.232 639.148 404.421 637.088 403.847 635.358C403.1 633.109 403.043 631.103 403.674 629.341C404.301 627.564 405.415 626.411 407.015 625.879C409.106 625.186 410.919 625.728 412.453 627.508L412.67 627.436ZM406.47 605.065L407.876 609.304C408.054 609.837 408.207 610.251 408.336 610.544C408.461 610.823 408.691 611.154 409.026 611.539C409.348 611.929 409.746 612.237 410.221 612.463C411.34 612.988 412.591 613.021 413.975 612.562C415.201 612.155 416.11 611.469 416.702 610.504C417.289 609.525 417.384 608.437 416.987 607.241C416.758 606.549 416.453 605.969 416.074 605.503C415.691 605.022 415.29 604.659 414.872 604.413C414.45 604.153 413.953 603.982 413.382 603.9C412.805 603.803 412.289 603.766 411.832 603.789C411.357 603.803 410.812 603.872 410.196 603.996C409.581 604.12 409.084 604.237 408.704 604.347C408.325 604.457 407.875 604.599 407.356 604.771L406.47 605.065ZM396.199 612.315C395.788 611.075 395.621 609.922 395.699 608.856C395.763 607.794 396.228 606.783 397.094 605.824C397.715 605.138 398.825 604.529 400.426 603.998L416.624 598.622L417.543 601.39L414.882 602.273L414.954 602.489C417.442 603.28 419.042 604.75 419.755 606.898C420.329 608.628 420.163 610.3 419.258 611.913C418.353 613.526 416.913 614.66 414.937 615.315C412.861 616.005 410.978 615.925 409.288 615.077C408.688 614.764 408.158 614.396 407.697 613.973C407.237 613.55 406.863 613.074 406.575 612.545C406.268 612.006 406.055 611.581 405.936 611.268C405.797 610.946 405.646 610.54 405.483 610.05L404.091 605.855L401.452 606.73C400.198 607.146 399.39 607.559 399.03 607.966C398.693 608.35 398.5 608.806 398.451 609.335C398.383 609.853 398.498 610.56 398.794 611.454C399.369 613.184 400.209 615.21 401.316 617.531L398.677 618.407C397.614 616.119 396.788 614.088 396.199 612.315ZM413.864 590.307L414.783 593.075L392.637 600.424L391.719 597.656L400.487 587.183L400.408 586.946L387.125 583.815L386.206 581.047L408.352 573.697L409.271 576.466L392.056 582.179L392.128 582.395L402.868 584.953L403.658 587.332L396.578 595.804L396.649 596.02L413.864 590.307Z" fill="#626262"/>
<path d="M963.512 27.6906C967.184 24.8136 971.848 20.7731 977.504 15.5692L979.982 17.2339C979.758 17.4311 979.204 17.9284 978.321 18.7257C977.458 19.5189 976.902 20.033 976.653 20.2681C976.412 20.4905 975.896 20.9584 975.106 21.6718C974.324 22.3726 973.764 22.8656 973.426 23.1509C973.109 23.432 972.587 23.8957 971.86 24.5419C971.141 25.1755 970.564 25.6664 970.129 26.0145C969.706 26.3711 969.142 26.8431 968.436 27.4304C967.731 28.0177 967.093 28.5315 966.522 28.9718C965.964 29.4206 965.329 29.9176 964.615 30.4627C963.913 31.0163 963.21 31.5594 962.504 32.0919C961.625 32.746 960.954 33.2281 960.489 33.5382C960.029 33.8694 959.455 34.2065 958.767 34.5495C958.079 34.8925 957.454 35.0861 956.894 35.1304C955.039 35.3302 952.876 34.5998 950.405 32.9393L951.93 30.6696C953.733 31.8811 955.142 32.4529 956.158 32.385C956.592 32.3655 957.077 32.2155 957.613 31.9352C958.162 31.6633 958.633 31.3848 959.025 31.0998C959.431 30.8231 960.225 30.2404 961.408 29.3515L960.425 28.6906C960.723 25.3043 961.336 21.9275 962.262 18.5602C963.201 15.2014 964.411 11.6035 965.891 7.76636L968.369 9.43113C965.63 16.3394 963.949 22.3835 963.323 27.5635L963.512 27.6906ZM998.356 29.5799L985.343 48.9475L982.922 47.3208L994.41 30.2229L989.569 26.9696L982.198 37.9395C981.461 39.0365 980.685 39.8785 979.869 40.4654C979.054 41.0523 978.113 41.4175 977.047 41.5611C976.001 41.7006 974.986 41.6042 974.002 41.272C973.029 40.9483 971.9 40.3544 970.614 39.4902L972.139 37.2206C973.06 37.839 973.852 38.2801 974.517 38.5437C975.182 38.8073 975.839 38.8919 976.488 38.7973C977.179 38.6945 977.762 38.4543 978.235 38.0769C978.729 37.6952 979.243 37.1072 979.777 36.3129L988.673 23.0733L998.356 29.5799ZM998.086 50.9211L1002.93 54.1744L999.878 58.7137L995.036 55.4604L998.086 50.9211ZM1040.69 75.5963C1040.74 71.3832 1041.3 67.3658 1042.37 63.5441C1043.46 59.7182 1045 55.7802 1047.01 51.7301L1049.38 53.3186C1045.45 61.4022 1043.42 68.6964 1043.29 75.2012L1043.48 75.3283C1049.79 71.0031 1055.65 66.2844 1061.06 61.1722L1063.62 62.8878C1056.77 69.2672 1048.7 75.3493 1039.42 81.1342C1038.51 81.6955 1037.49 81.9994 1036.36 82.0459C1035.24 82.0797 1034.1 81.7891 1032.94 81.174C1031.96 80.6438 1030.56 79.7687 1028.75 78.5487L1030.19 76.3926C1032.09 77.6634 1033.39 78.4855 1034.11 78.8588C1034.83 79.2322 1035.48 79.422 1036.06 79.4284C1036.64 79.4347 1037.31 79.2496 1038.05 78.8731C1039.27 78.2834 1040.58 77.4792 1041.98 76.4605L1040.69 75.5963ZM1063.76 73.5247L1075.86 81.6579L1074.34 83.9275L1064.66 77.421L1053.17 94.5189L1050.75 92.8922L1063.76 73.5247ZM1095.24 94.6774L1082.23 114.045L1079.81 112.418L1091.3 95.3204L1086.45 92.0671L1079.08 103.037C1078.35 104.134 1077.57 104.976 1076.75 105.563C1075.94 106.15 1075 106.515 1073.93 106.659C1072.89 106.798 1071.87 106.702 1070.89 106.37C1069.91 106.046 1068.79 105.452 1067.5 104.588L1069.02 102.318C1069.94 102.937 1070.74 103.378 1071.4 103.641C1072.07 103.905 1072.72 103.989 1073.37 103.895C1074.06 103.792 1074.65 103.552 1075.12 103.174C1075.61 102.793 1076.13 102.205 1076.66 101.41L1085.56 88.1708L1095.24 94.6774ZM1104.33 101.965C1105.85 101.908 1107.33 102.362 1108.77 103.328C1110.21 104.293 1111.18 105.487 1111.69 106.909C1112.21 108.339 1112.31 109.797 1111.99 111.283C1111.77 112.311 1111.41 113.302 1110.9 114.256C1110.38 115.211 1109.66 116.388 1108.72 117.787C1107.78 119.187 1106.96 120.305 1106.27 121.141C1105.58 121.977 1104.8 122.688 1103.93 123.275C1102.68 124.134 1101.29 124.592 1099.77 124.65C1098.26 124.716 1096.79 124.266 1095.35 123.3C1093.91 122.335 1092.93 121.137 1092.41 119.706C1091.9 118.285 1091.81 116.831 1092.13 115.345C1092.34 114.317 1092.71 113.327 1093.22 112.372C1093.73 111.417 1094.46 110.24 1095.4 108.841C1096.34 107.441 1097.16 106.323 1097.85 105.487C1098.54 104.652 1099.32 103.94 1100.19 103.353C1101.44 102.494 1102.82 102.032 1104.33 101.965ZM1109.21 110.515C1109.65 108.414 1109 106.775 1107.24 105.597C1105.49 104.42 1103.73 104.432 1101.95 105.635C1100.87 106.373 1099.49 107.983 1097.82 110.467C1096.15 112.951 1095.18 114.833 1094.91 116.113C1094.47 118.214 1095.12 119.853 1096.87 121.031C1098.63 122.208 1100.39 122.196 1102.17 120.993C1103.25 120.255 1104.63 118.645 1106.3 116.161C1107.97 113.677 1108.94 111.795 1109.21 110.515ZM1119.38 121.548L1123.92 124.598C1124.53 125.005 1124.97 125.257 1125.25 125.355C1125.85 125.576 1126.45 125.574 1127.04 125.349C1127.63 125.124 1128.14 124.689 1128.57 124.046C1129.01 123.403 1129.21 122.766 1129.2 122.134C1129.19 121.502 1128.96 120.949 1128.53 120.475C1128.31 120.234 1127.91 119.919 1127.33 119.529L1122.79 116.479L1119.38 121.548ZM1112.82 131.308L1116.61 133.849C1117.32 134.332 1117.93 134.663 1118.41 134.842C1119.28 135.153 1120.14 135.126 1120.99 134.763C1121.85 134.408 1122.59 133.77 1123.21 132.849C1123.83 131.916 1124.15 130.984 1124.15 130.053C1124.16 129.122 1123.85 128.323 1123.24 127.655C1122.89 127.274 1122.36 126.842 1121.64 126.36L1117.86 123.818L1112.82 131.308ZM1108.88 131.951L1121.89 112.583L1128.85 117.26C1129.63 117.785 1130.22 118.261 1130.61 118.688C1131.47 119.635 1131.95 120.741 1132.03 122.005C1132.14 123.265 1131.79 124.488 1130.99 125.673C1130.45 126.48 1129.77 127.08 1128.93 127.473C1128.12 127.862 1127.27 128.036 1126.36 127.995C1127.22 130.311 1126.98 132.471 1125.63 134.476C1124.64 135.951 1123.42 136.952 1121.97 137.477C1120.52 137.99 1119.07 137.991 1117.6 137.481C1116.93 137.251 1116.09 136.797 1115.08 136.119L1108.88 131.951ZM1144.44 141.793L1140.74 139.302C1140.27 138.989 1139.9 138.756 1139.62 138.603C1139.35 138.459 1138.96 138.337 1138.46 138.239C1137.97 138.127 1137.46 138.128 1136.95 138.239C1135.74 138.509 1134.73 139.249 1133.92 140.459C1133.2 141.531 1132.9 142.63 1133.02 143.755C1133.16 144.889 1133.75 145.807 1134.8 146.511C1135.4 146.917 1136 147.189 1136.58 147.326C1137.18 147.471 1137.72 147.513 1138.2 147.452C1138.69 147.399 1139.19 147.23 1139.69 146.945C1140.21 146.669 1140.64 146.382 1140.99 146.084C1141.35 145.782 1141.74 145.394 1142.15 144.919C1142.56 144.445 1142.88 144.048 1143.12 143.728C1143.35 143.409 1143.62 143.022 1143.92 142.568L1144.44 141.793ZM1148.13 129.773C1149.21 130.502 1150.05 131.312 1150.64 132.203C1151.24 133.081 1151.49 134.165 1151.39 135.454C1151.32 136.376 1150.82 137.538 1149.88 138.937L1140.36 153.103L1137.94 151.477L1139.5 149.15L1139.31 149.023C1136.86 149.92 1134.7 149.738 1132.82 148.475C1131.3 147.459 1130.41 146.036 1130.14 144.206C1129.87 142.376 1130.31 140.598 1131.47 138.871C1132.69 137.055 1134.23 135.965 1136.09 135.601C1136.75 135.481 1137.4 135.448 1138.02 135.5C1138.64 135.553 1139.23 135.701 1139.78 135.943C1140.36 136.181 1140.78 136.387 1141.07 136.561C1141.38 136.73 1141.74 136.959 1142.17 137.247L1145.84 139.713L1147.39 137.405C1148.13 136.308 1148.52 135.488 1148.55 134.945C1148.58 134.435 1148.46 133.956 1148.17 133.509C1147.91 133.057 1147.39 132.568 1146.6 132.043C1145.09 131.026 1143.19 129.939 1140.89 128.78L1142.44 126.473C1144.68 127.631 1146.58 128.731 1148.13 129.773ZM1162.23 157.145L1158.46 154.616C1158.38 154.557 1158.22 154.455 1158.01 154.311C1157.82 154.163 1157.66 154.051 1157.55 153.975L1149.5 159.248L1146.99 157.558L1155.55 151.838C1154.88 150.723 1154.56 149.498 1154.62 148.162C1154.68 146.814 1155.14 145.504 1156 144.23C1156.99 142.755 1158.21 141.761 1159.65 141.248C1161.1 140.722 1162.56 140.715 1164.03 141.226C1164.7 141.455 1165.54 141.909 1166.55 142.587L1172.75 146.755L1159.74 166.123L1157.3 164.484L1162.23 157.145ZM1163.77 154.888L1168.8 147.398L1165.02 144.857C1164.3 144.374 1163.7 144.043 1163.22 143.864C1162.35 143.554 1161.48 143.576 1160.62 143.931C1159.77 144.294 1159.04 144.936 1158.42 145.857C1157.8 146.777 1157.48 147.699 1157.47 148.621C1157.46 149.552 1157.77 150.363 1158.39 151.052C1158.74 151.432 1159.27 151.864 1159.99 152.347L1163.77 154.888Z" fill="#626262"/>
<path d="M608.485 147.542L610.824 146.777L620.805 177.268L618.033 178.175L609.2 151.192L608.984 151.263L603.837 158.319L601.82 156.773L608.485 147.542Z" fill="#626262"/>
<path d="M909.564 741.448C911.831 742.404 913.778 743.429 915.405 744.522C916.615 745.335 917.556 746.223 918.227 747.186C918.91 748.158 919.307 749.12 919.417 750.072C919.54 751.033 919.486 751.958 919.255 752.846C919.025 753.734 918.634 754.588 918.083 755.408C917.439 756.366 916.769 757.105 916.072 757.625C915.396 758.141 914.528 758.656 913.469 759.17L896.45 767.584L906.513 774.345L904.988 776.614L891.861 767.795L892.992 766.111L912.024 756.663C912.653 756.353 913.12 756.108 913.424 755.928C913.728 755.748 914.089 755.469 914.507 755.092C914.938 754.722 915.323 754.286 915.662 753.781C916.001 753.277 916.252 752.768 916.413 752.255C916.575 751.741 916.641 751.181 916.609 750.574C916.586 749.955 916.346 749.318 915.889 748.663C915.432 748.008 914.763 747.384 913.88 746.791C912.354 745.766 910.407 744.742 908.039 743.718L909.564 741.448Z" fill="#626262"/>
<path d="M297.455 194.793L294.75 193.703L298.02 185.587L285.845 180.682L286.697 178.569L305.138 162.611L306.965 164.723L290.207 179.246L290.122 179.457L299.041 183.051L301.289 177.471L303.995 178.561L301.747 184.141L304.452 185.23L303.43 187.767L300.725 186.677L297.455 194.793Z" fill="#626262"/>
<path d="M108.479 584.879C111.153 584.589 113.435 584.157 115.325 583.582C116.182 583.321 116.884 582.965 117.429 582.513C117.984 582.043 118.387 581.539 118.637 581.003C118.882 580.452 119.012 579.809 119.026 579.074C119.051 578.32 118.996 577.591 118.861 576.886C118.74 576.176 118.543 575.371 118.269 574.47C117.95 573.423 117.602 572.513 117.224 571.739C116.841 570.95 116.377 570.234 115.832 569.59C115.301 568.942 114.661 568.509 113.912 568.292C113.178 568.071 112.361 568.098 111.46 568.372C109.541 568.955 108.263 570.209 107.626 572.134L104.632 572.235L100.049 557.171L114.001 552.927L114.797 555.543L103.636 558.938L106.766 569.228L106.984 569.162C107.503 568.257 108.073 567.52 108.693 566.951C109.309 566.366 110.111 565.924 111.1 565.623C115.692 564.226 119.016 566.906 121.072 573.664C122.116 577.094 122.221 579.841 121.388 581.904C120.565 583.949 118.809 585.38 116.121 586.198C114.348 586.738 112.07 587.184 109.288 587.539L108.479 584.879Z" fill="#626262"/>
<path d="M1417.99 637.958C1418.96 635.645 1419.3 633.818 1419 632.476C1418.7 631.135 1417.69 630.101 1415.95 629.375C1415.39 629.141 1414.81 628.99 1414.21 628.922L1413.64 626.805L1424.27 619.369L1414.1 615.12L1415.15 612.597L1428.61 618.216L1427.64 620.529L1417.04 627.462L1417.13 627.67C1417.65 627.723 1418.14 627.844 1418.58 628.031C1419.48 628.405 1420.2 628.911 1420.74 629.549C1421.29 630.172 1421.65 630.842 1421.83 631.558C1422.02 632.28 1422.09 633.09 1422.02 633.986C1421.96 634.882 1421.81 635.74 1421.57 636.56C1421.34 637.372 1421.04 638.227 1420.67 639.124C1419.35 642.292 1417.72 644.371 1415.79 645.361C1413.87 646.336 1411.62 646.285 1409.04 645.208C1407.33 644.494 1405.29 643.387 1402.92 641.887L1403.99 639.322C1406.24 640.803 1408.27 641.924 1410.09 642.685C1410.92 643.03 1411.69 643.21 1412.39 643.223C1413.1 643.242 1413.73 643.132 1414.26 642.891C1414.79 642.637 1415.29 642.252 1415.75 641.737C1416.23 641.214 1416.64 640.659 1416.96 640.071C1417.31 639.476 1417.66 638.771 1417.99 637.958Z" fill="#626262"/>
<path d="M1291.57 111.408L1289.99 109.178L1304.27 99.0557L1305.45 100.729L1314.12 131.396L1311.73 133.096L1303.47 103.251L1303.34 103.066L1291.57 111.408Z" fill="#626262"/>
<path d="M1396.64 291.74C1393.24 295.499 1390.59 298.913 1388.71 301.982L1388.89 302.113C1390.07 301.55 1391.34 301.413 1392.73 301.701C1394.32 302.033 1395.57 302.713 1396.49 303.742C1397.42 304.775 1398 306.028 1398.22 307.501C1398.3 308.077 1398.32 308.723 1398.26 309.441C1398.22 310.162 1398.15 310.776 1398.06 311.285C1397.97 311.794 1397.82 312.539 1397.62 313.52C1397.07 316.153 1396.42 318.066 1395.68 319.261C1394.91 320.512 1393.86 321.427 1392.55 322.007C1391.25 322.574 1389.8 322.691 1388.19 322.356C1386.39 321.981 1384.99 321.277 1383.98 320.244C1382.97 319.196 1382.35 317.927 1382.12 316.435C1381.98 315.585 1381.96 314.727 1382.05 313.86C1382.14 312.979 1382.33 311.825 1382.63 310.397C1383.49 306.248 1384.91 302.649 1386.88 299.599C1388.79 296.614 1391.32 293.37 1394.47 289.868L1396.64 291.74ZM1386.05 308.597C1385.87 309.242 1385.68 310.04 1385.48 310.992C1385.29 311.944 1385.14 312.759 1385.04 313.438C1384.97 314.104 1384.94 314.813 1384.97 315.564C1385.02 316.318 1385.16 316.945 1385.4 317.445C1385.63 317.944 1386.01 318.395 1386.53 318.799C1387.06 319.187 1387.72 319.465 1388.53 319.633C1389.33 319.8 1390.05 319.81 1390.68 319.663C1391.32 319.502 1391.85 319.239 1392.27 318.876C1392.68 318.513 1393.06 317.993 1393.38 317.316C1393.73 316.643 1393.99 315.984 1394.17 315.338C1394.37 314.682 1394.57 313.877 1394.76 312.926C1394.96 311.974 1395.1 311.165 1395.18 310.498C1395.27 309.819 1395.3 309.103 1395.25 308.349C1395.22 307.598 1395.09 306.973 1394.85 306.473C1394.61 305.974 1394.23 305.53 1393.71 305.141C1393.19 304.738 1392.53 304.452 1391.72 304.285C1390.92 304.118 1390.2 304.115 1389.56 304.277C1388.92 304.424 1388.4 304.679 1387.98 305.042C1387.56 305.405 1387.18 305.923 1386.84 306.597C1386.51 307.273 1386.25 307.94 1386.05 308.597Z" fill="#626262"/>
<path d="M621.563 71.8721C620.52 71.0442 619.25 70.8561 617.752 71.3079C616.253 71.7596 615.291 72.6209 614.866 73.8918C614.454 75.1583 614.501 76.6278 615.005 78.3003C615.514 79.9875 616.31 81.2864 617.394 82.1971C618.488 83.089 619.769 83.3134 621.238 82.8704C622.707 82.4274 623.644 81.5341 624.048 80.1905C624.462 78.828 624.415 77.3032 623.906 75.6161C623.402 73.9436 622.621 72.6955 621.563 71.8721ZM612.328 72.6579C613.119 70.7056 614.664 69.3829 616.962 68.69C619.26 67.997 621.278 68.2451 623.017 69.4342C624.752 70.6089 625.979 72.3888 626.698 74.774C627.698 78.0901 627.263 80.7759 625.392 82.8317L625.457 83.0498C628.453 83.6697 630.483 85.7468 631.549 89.281C632.295 91.7535 632.233 93.9936 631.362 96.0013C630.492 98.0091 628.85 99.377 626.436 100.105C624.021 100.833 621.897 100.601 620.062 99.4092C618.227 98.2173 616.936 96.3851 616.191 93.9126C615.125 90.3784 615.669 87.525 617.822 85.3525L617.756 85.1343C615.06 84.4558 613.213 82.4585 612.213 79.1425C611.493 76.7572 611.532 74.5957 612.328 72.6579ZM626.191 86.1131C625.03 85.2097 623.642 85.0015 622.028 85.4883C620.413 85.9752 619.365 86.9181 618.882 88.317C618.415 89.7116 618.448 91.2961 618.983 93.0705C619.514 94.8303 620.351 96.1328 621.494 96.978C622.633 97.8087 624.017 97.9784 625.646 97.4871C627.275 96.9959 628.335 96.0893 628.825 94.7675C629.31 93.4311 629.287 91.8829 628.757 90.1231C628.222 88.3487 627.366 87.0121 626.191 86.1131Z" fill="#626262"/>
<path d="M1026.82 655.475C1027.76 654.384 1029.07 653.622 1030.74 653.188C1032.42 652.755 1033.94 652.787 1035.29 653.285C1036.64 653.782 1037.74 654.643 1038.59 655.867C1039.09 656.57 1039.49 657.33 1039.79 658.145C1040.1 658.961 1040.43 660.082 1040.8 661.509C1041.86 665.612 1042.19 669.467 1041.77 673.074C1041.38 676.596 1040.54 680.624 1039.27 685.159L1036.49 684.44C1037.88 679.562 1038.74 675.331 1039.07 671.747L1038.85 671.71C1038.05 672.733 1036.96 673.422 1035.59 673.775C1034.02 674.182 1032.59 674.129 1031.29 673.616C1030.01 673.1 1028.95 672.229 1028.1 671.005C1027.77 670.525 1027.47 669.953 1027.19 669.288C1026.92 668.62 1026.71 668.038 1026.57 667.541C1026.43 667.045 1026.23 666.312 1025.98 665.341C1025.3 662.738 1025.04 660.736 1025.18 659.334C1025.33 657.852 1025.87 656.565 1026.82 655.475ZM1033.59 655.725C1032.94 655.593 1032.22 655.63 1031.43 655.836C1030.63 656.041 1029.99 656.358 1029.48 656.785C1028.98 657.198 1028.62 657.66 1028.41 658.17C1028.19 658.68 1028.08 659.313 1028.07 660.068C1028.08 660.82 1028.14 661.534 1028.25 662.211C1028.37 662.87 1028.56 663.67 1028.8 664.611C1029.04 665.552 1029.27 666.348 1029.49 666.999C1029.72 667.631 1030.01 668.277 1030.37 668.937C1030.74 669.594 1031.14 670.093 1031.58 670.436C1032.01 670.779 1032.55 671.016 1033.2 671.147C1033.84 671.264 1034.56 671.219 1035.35 671.014C1036.15 670.809 1036.8 670.499 1037.3 670.086C1037.8 669.659 1038.16 669.19 1038.37 668.68C1038.59 668.169 1038.69 667.539 1038.68 666.787C1038.69 666.032 1038.64 665.325 1038.51 664.666C1038.4 663.989 1038.22 663.18 1037.98 662.239C1037.74 661.297 1037.5 660.511 1037.27 659.879C1037.06 659.228 1036.76 658.575 1036.39 657.918C1036.03 657.258 1035.64 656.756 1035.2 656.414C1034.77 656.071 1034.23 655.841 1033.59 655.725Z" fill="#626262"/>
<path d="M726.042 717.732L728.424 717.115L736.458 748.177L733.634 748.907L726.525 721.42L726.304 721.477L720.721 728.193L718.807 726.523L726.042 717.732ZM749.83 739.046C751.123 740.829 752.586 741.51 754.219 741.088C755.16 740.844 755.858 740.327 756.312 739.534C756.781 738.738 757.047 737.767 757.111 736.621C757.154 735.998 757.075 735.116 756.874 733.976C756.67 732.82 756.457 731.785 756.236 730.869C756.015 729.954 755.668 728.584 755.196 726.76C754.394 723.657 753.8 721.512 753.414 720.325L749.83 739.046ZM747.394 714.704C746.453 714.947 745.748 715.467 745.279 716.263C744.825 717.055 744.566 718.024 744.501 719.171C744.459 719.794 744.539 720.683 744.744 721.838C744.945 722.979 745.156 724.007 745.377 724.922C745.598 725.838 745.945 727.208 746.416 729.031C747.219 732.134 747.813 734.279 748.199 735.466L751.782 716.746C750.489 714.962 749.027 714.281 747.394 714.704ZM741.66 718.376C742.04 714.872 743.716 712.736 746.687 711.968C749.657 711.2 752.159 712.255 754.19 715.135C754.641 715.787 755.096 716.728 755.556 717.959C756.016 719.189 756.388 720.325 756.672 721.365C756.968 722.387 757.388 723.95 757.932 726.053C758.476 728.156 758.868 729.733 759.109 730.785C759.361 731.818 759.584 732.984 759.778 734.284C759.973 735.583 760.031 736.627 759.953 737.416C759.573 740.919 757.897 743.055 754.926 743.823C751.955 744.592 749.454 743.536 747.423 740.657C746.972 740.005 746.516 739.063 746.057 737.833C745.597 736.602 745.22 735.476 744.924 734.454C744.639 733.414 744.225 731.842 743.681 729.739C743.137 727.636 742.739 726.067 742.488 725.034C742.247 723.982 742.029 722.807 741.834 721.508C741.64 720.209 741.581 719.165 741.66 718.376Z" fill="#626262"/>
</g>
</svg>
