<svg width="561" height="327" viewBox="0 0 561 327" fill="none" xmlns="http://www.w3.org/2000/svg">
<rect x="3.34327" y="3.34327" width="554.313" height="319.448" rx="11.8682" fill="white" stroke="#313131" stroke-width="6.68653"/>
<path d="M150.752 231.7H54.1235C52.7025 211.676 63.2183 172.7 102.438 172.7C141.658 172.7 152.883 209.888 150.752 231.7Z" stroke="#626262" stroke-width="6.69"/>
<rect x="40.1206" y="78.2105" width="125.349" height="153.338" rx="11.8682" stroke="#313131" stroke-width="6.68653"/>
<rect x="218.333" y="225.279" width="28.5976" height="36.5076" stroke="#313131" stroke-width="3.0423"/>
<rect x="254.516" y="225.279" width="28.5976" height="36.5076" stroke="#313131" stroke-width="3.0423"/>
<rect x="290.7" y="225.279" width="28.5976" height="36.5076" stroke="#313131" stroke-width="3.0423"/>
<rect x="326.883" y="225.279" width="28.5976" height="36.5076" stroke="#313131" stroke-width="3.0423"/>
<rect x="363.067" y="225.279" width="44.4176" height="36.5076" stroke="#313131" stroke-width="3.0423"/>
<rect x="218.403" y="271.703" width="126.56" height="36.5076" stroke="#313131" stroke-width="3.0423"/>
<rect x="351.777" y="271.595" width="160.025" height="36.5076" stroke="#313131" stroke-width="3.0423"/>
<rect x="415.171" y="225.279" width="44.4176" height="36.5076" stroke="#313131" stroke-width="3.0423"/>
<rect x="467.275" y="225.279" width="44.4176" height="36.5076" stroke="#313131" stroke-width="3.0423"/>
<path d="M83.2813 31.4636C84.0498 31.4636 84.5519 31.4328 84.7876 31.3713C85.3409 31.2381 85.7815 30.9512 86.1094 30.5106C86.4475 30.0598 86.6166 29.5064 86.6166 28.8506C86.6166 28.2051 86.4475 27.6569 86.1094 27.2061C85.7712 26.7552 85.3306 26.4683 84.7876 26.3453C84.4597 26.2736 83.9576 26.2377 83.2813 26.2377H82.605V31.4636H83.2813ZM88.0921 33.0006C89.1475 33.308 89.9673 33.9381 90.5513 34.8911C91.1456 35.8338 91.4428 36.966 91.4428 38.2878C91.4428 39.7224 91.0637 40.952 90.3054 41.9767C89.5574 42.9911 88.584 43.6469 87.3851 43.944C86.7293 44.108 85.638 44.1899 84.1113 44.1899H78.6703V22.5489H83.2813C84.6031 22.5489 85.5458 22.6155 86.1094 22.7487C87.3697 23.0459 88.3995 23.6966 89.1988 24.7007C89.998 25.7049 90.3976 26.9345 90.3976 28.3895C90.3976 30.5516 89.6291 32.0374 88.0921 32.8469V33.0006ZM82.605 35.1524V40.5011H84.1266C85.0488 40.5011 85.6636 40.4601 85.9711 40.3782C86.4834 40.245 86.8933 39.9529 87.2007 39.5021C87.5081 39.041 87.6618 38.4825 87.6618 37.8267C87.6618 37.171 87.5081 36.6125 87.2007 36.1514C86.8933 35.6903 86.4834 35.3983 85.9711 35.2753C85.6227 35.1933 85.0079 35.1524 84.1266 35.1524H82.605ZM97.3526 29.404C97.1989 30.2442 97.122 31.566 97.122 33.3694C97.122 35.1729 97.1989 36.4947 97.3526 37.3349C97.537 38.3288 97.8751 39.1486 98.367 39.7941C98.8691 40.4294 99.5197 40.7471 100.319 40.7471C101.118 40.7471 101.764 40.4294 102.256 39.7941C102.758 39.1486 103.101 38.3288 103.285 37.3349C103.439 36.4844 103.516 35.1626 103.516 33.3694C103.516 31.566 103.439 30.2442 103.285 29.404C103.101 28.41 102.758 27.5954 102.256 26.9601C101.764 26.3146 101.118 25.9918 100.319 25.9918C99.5197 25.9918 98.8691 26.3146 98.367 26.9601C97.8751 27.5954 97.537 28.41 97.3526 29.404ZM93.6176 38.7336C93.3307 37.5962 93.1873 35.8081 93.1873 33.3694C93.1873 30.9307 93.3307 29.1427 93.6176 28.0053C94.0275 26.3453 94.8011 24.9825 95.9385 23.9169C97.0759 22.841 98.5361 22.303 100.319 22.303C102.102 22.303 103.562 22.841 104.699 23.9169C105.837 24.9825 106.61 26.3453 107.02 28.0053C107.307 29.1427 107.451 30.9307 107.451 33.3694C107.451 35.8081 107.307 37.5962 107.02 38.7336C106.61 40.3935 105.837 41.7615 104.699 42.8374C103.562 43.903 102.102 44.4359 100.319 44.4359C98.5361 44.4359 97.0759 43.903 95.9385 42.8374C94.8011 41.7615 94.0275 40.3935 93.6176 38.7336ZM113.33 40.5011H117.049V26.2377H115.082C115.061 31.9554 114.477 36.7099 113.33 40.5011ZM109.349 40.5011C109.769 39.1076 110.107 37.7038 110.363 36.2897C110.619 34.8655 110.799 33.3336 110.901 31.6941C111.014 30.0444 111.081 28.6252 111.101 27.4366C111.132 26.2377 111.147 24.6085 111.147 22.5489H120.984V40.5011H122.951V48.1247H119.017V44.1899H111.147V48.1247H107.212V40.5011H109.349ZM134.763 44.1899V30.3877H134.61L128.861 44.1899H124.926V22.5489H128.861V36.3512H129.015L134.779 22.5489H138.698V44.1899H134.763ZM154.445 22.5489V26.2377H149.526V44.1899H145.591V26.2377H140.673V22.5489H154.445ZM157.403 22.5489H169.207V26.2377H161.338V31.4636H167.24V35.1524H161.338V40.5011H169.207V44.1899H157.403V22.5489ZM180.036 26.084C180.036 29.2503 180 31.8376 179.928 33.8459C179.867 35.6288 179.733 37.0839 179.528 38.211C179.324 39.3381 178.914 40.3884 178.299 41.3619C177.059 43.4112 175.015 44.4359 172.166 44.4359V40.7471C172.955 40.7471 173.529 40.6651 173.888 40.5011C174.246 40.3269 174.579 39.999 174.887 39.5175C175.174 39.0973 175.399 38.5389 175.563 37.8421C175.727 37.1453 175.829 36.5152 175.87 35.9516C175.922 35.3778 175.963 34.6349 175.993 33.7229C176.065 31.7761 176.101 29.2708 176.101 26.207V22.5489H180.036H185.938V44.1899H182.003V26.084H180.036ZM194.337 31.5558C195.864 31.5558 196.955 31.6377 197.611 31.8017C198.81 32.0988 199.784 32.8007 200.532 33.9074C201.29 35.014 201.669 36.3512 201.669 37.919C201.669 39.497 201.295 40.8239 200.547 41.8998C199.799 42.9655 198.82 43.6469 197.611 43.944C196.955 44.108 195.864 44.1899 194.337 44.1899H188.896V22.5489H192.831V31.5558H194.337ZM192.831 35.2446V40.5011H194.353C195.275 40.5011 195.89 40.4601 196.197 40.3782C196.72 40.245 197.13 39.9734 197.427 39.5636C197.734 39.1434 197.888 38.5952 197.888 37.919C197.888 37.2632 197.734 36.7099 197.427 36.259C197.119 35.8082 196.71 35.511 196.197 35.3675C195.89 35.2856 195.275 35.2446 194.353 35.2446H192.831ZM217.431 40.1784V43.8672C215.33 44.2463 213.481 44.4359 211.882 44.4359C209.7 44.4359 207.937 43.9133 206.595 42.8681C205.263 41.8127 204.361 40.3884 203.89 38.5952C203.572 37.3452 203.413 35.6032 203.413 33.3694C203.413 31.1357 203.572 29.3937 203.89 28.1436C204.372 26.3402 205.258 24.9159 206.549 23.8708C207.84 22.8256 209.567 22.303 211.729 22.303C213.368 22.303 215.115 22.4516 216.97 22.7487V26.4376C214.654 26.1404 212.922 25.9918 211.775 25.9918C209.51 25.9918 208.101 27.1702 207.548 29.5269C207.333 30.4594 207.225 31.7402 207.225 33.3694C207.225 34.9987 207.333 36.2795 207.548 37.2119C208.112 39.5687 209.556 40.7471 211.882 40.7471C213.163 40.7471 215.013 40.5575 217.431 40.1784ZM223.341 44.1899H219.406V22.5489H223.341V31.0025L227.89 22.5489H232.332L227.183 31.6173L233.762 44.1899H229.35L224.54 34.7989L223.341 36.8277V44.1899ZM239.072 29.404C238.918 30.2442 238.841 31.566 238.841 33.3694C238.841 35.1729 238.918 36.4947 239.072 37.3349C239.256 38.3288 239.595 39.1486 240.086 39.7941C240.588 40.4294 241.239 40.7471 242.038 40.7471C242.838 40.7471 243.483 40.4294 243.975 39.7941C244.477 39.1486 244.82 38.3288 245.005 37.3349C245.158 36.4844 245.235 35.1626 245.235 33.3694C245.235 31.566 245.158 30.2442 245.005 29.404C244.82 28.41 244.477 27.5954 243.975 26.9601C243.483 26.3146 242.838 25.9918 242.038 25.9918C241.239 25.9918 240.588 26.3146 240.086 26.9601C239.595 27.5954 239.256 28.41 239.072 29.404ZM235.337 38.7336C235.05 37.5962 234.907 35.8081 234.907 33.3694C234.907 30.9307 235.05 29.1427 235.337 28.0053C235.747 26.3453 236.521 24.9825 237.658 23.9169C238.795 22.841 240.255 22.303 242.038 22.303C243.821 22.303 245.281 22.841 246.419 23.9169C247.556 24.9825 248.33 26.3453 248.74 28.0053C249.027 29.1427 249.17 30.9307 249.17 33.3694C249.17 35.8081 249.027 37.5962 248.74 38.7336C248.33 40.3935 247.556 41.7615 246.419 42.8374C245.281 43.903 243.821 44.4359 242.038 44.4359C240.255 44.4359 238.795 43.903 237.658 42.8374C236.521 41.7615 235.747 40.3935 235.337 38.7336ZM251.883 22.5489H263.687V26.2377H255.818V31.4636H261.72V35.1524H255.818V40.5011H263.687V44.1899H251.883V22.5489ZM287.357 37.3195C286.004 35.0858 284.954 32.7751 284.206 30.3877C283.468 27.9899 282.91 25.377 282.531 22.5489H286.419C286.809 26.2377 287.654 29.5525 288.955 32.4933H289.109C290.369 28.825 291.327 25.5102 291.983 22.5489H296.026C294.55 28.8814 292.321 35.3214 289.34 41.8691C289.042 42.5249 288.587 43.0782 287.972 43.529C287.357 43.9696 286.609 44.2361 285.728 44.3283C284.98 44.4 283.868 44.4359 282.392 44.4359V40.8393C283.397 40.8393 284.17 40.7983 284.713 40.7163C285.267 40.6241 285.656 40.4499 285.881 40.1937C286.015 40.0503 286.138 39.9017 286.25 39.748C286.363 39.5841 286.476 39.3842 286.588 39.1486C286.701 38.9027 286.783 38.7233 286.834 38.6106C286.886 38.4877 286.978 38.2622 287.111 37.9343C287.244 37.5962 287.326 37.3913 287.357 37.3195ZM302.289 40.5011H306.008V26.2377H304.041C304.021 31.9554 303.437 36.7099 302.289 40.5011ZM298.308 40.5011C298.728 39.1076 299.066 37.7038 299.322 36.2897C299.579 34.8655 299.758 33.3336 299.86 31.6941C299.973 30.0444 300.04 28.6252 300.06 27.4366C300.091 26.2377 300.106 24.6085 300.106 22.5489H309.943V40.5011H311.911V48.1247H307.976V44.1899H300.106V48.1247H296.172V40.5011H298.308ZM317.805 29.404C317.651 30.2442 317.574 31.566 317.574 33.3694C317.574 35.1729 317.651 36.4947 317.805 37.3349C317.989 38.3288 318.328 39.1486 318.819 39.7941C319.321 40.4294 319.972 40.7471 320.771 40.7471C321.571 40.7471 322.216 40.4294 322.708 39.7941C323.21 39.1486 323.553 38.3288 323.738 37.3349C323.891 36.4844 323.968 35.1626 323.968 33.3694C323.968 31.566 323.891 30.2442 323.738 29.404C323.553 28.41 323.21 27.5954 322.708 26.9601C322.216 26.3146 321.571 25.9918 320.771 25.9918C319.972 25.9918 319.321 26.3146 318.819 26.9601C318.328 27.5954 317.989 28.41 317.805 29.404ZM314.07 38.7336C313.783 37.5962 313.64 35.8081 313.64 33.3694C313.64 30.9307 313.783 29.1427 314.07 28.0053C314.48 26.3453 315.254 24.9825 316.391 23.9169C317.528 22.841 318.988 22.303 320.771 22.303C322.554 22.303 324.014 22.841 325.152 23.9169C326.289 24.9825 327.063 26.3453 327.473 28.0053C327.76 29.1427 327.903 30.9307 327.903 33.3694C327.903 35.8081 327.76 37.5962 327.473 38.7336C327.063 40.3935 326.289 41.7615 325.152 42.8374C324.014 43.903 322.554 44.4359 320.771 44.4359C318.988 44.4359 317.528 43.903 316.391 42.8374C315.254 41.7615 314.48 40.3935 314.07 38.7336ZM343.404 40.1784V43.8672C341.303 44.2463 339.454 44.4359 337.855 44.4359C335.673 44.4359 333.91 43.9133 332.568 42.8681C331.236 41.8127 330.334 40.3884 329.863 38.5952C329.545 37.3452 329.386 35.6032 329.386 33.3694C329.386 31.1357 329.545 29.3937 329.863 28.1436C330.344 26.3402 331.231 24.9159 332.522 23.8708C333.813 22.8256 335.539 22.303 337.701 22.303C339.341 22.303 341.088 22.4516 342.943 22.7487V26.4376C340.627 26.1404 338.895 25.9918 337.748 25.9918C335.483 25.9918 334.074 27.1702 333.521 29.5269C333.306 30.4594 333.198 31.7402 333.198 33.3694C333.198 34.9987 333.306 36.2795 333.521 37.2119C334.084 39.5687 335.529 40.7471 337.855 40.7471C339.136 40.7471 340.986 40.5575 343.404 40.1784ZM359.15 22.5489V26.2377H354.232V44.1899H350.297V26.2377H345.379V22.5489H359.15ZM365.045 29.404C364.891 30.2442 364.814 31.566 364.814 33.3694C364.814 35.1729 364.891 36.4947 365.045 37.3349C365.229 38.3288 365.567 39.1486 366.059 39.7941C366.561 40.4294 367.212 40.7471 368.011 40.7471C368.81 40.7471 369.456 40.4294 369.948 39.7941C370.45 39.1486 370.793 38.3288 370.978 37.3349C371.131 36.4844 371.208 35.1626 371.208 33.3694C371.208 31.566 371.131 30.2442 370.978 29.404C370.793 28.41 370.45 27.5954 369.948 26.9601C369.456 26.3146 368.81 25.9918 368.011 25.9918C367.212 25.9918 366.561 26.3146 366.059 26.9601C365.567 27.5954 365.229 28.41 365.045 29.404ZM361.31 38.7336C361.023 37.5962 360.879 35.8081 360.879 33.3694C360.879 30.9307 361.023 29.1427 361.31 28.0053C361.72 26.3453 362.493 24.9825 363.631 23.9169C364.768 22.841 366.228 22.303 368.011 22.303C369.794 22.303 371.254 22.841 372.392 23.9169C373.529 24.9825 374.303 26.3453 374.712 28.0053C374.999 29.1427 375.143 30.9307 375.143 33.3694C375.143 35.8081 374.999 37.5962 374.712 38.7336C374.303 40.3935 373.529 41.7615 372.392 42.8374C371.254 43.903 369.794 44.4359 368.011 44.4359C366.228 44.4359 364.768 43.903 363.631 42.8374C362.493 41.7615 361.72 40.3935 361.31 38.7336ZM382.467 31.4636C383.235 31.4636 383.737 31.4328 383.973 31.3713C384.526 31.2381 384.967 30.9512 385.295 30.5106C385.633 30.0598 385.802 29.5064 385.802 28.8506C385.802 28.2051 385.633 27.6569 385.295 27.2061C384.957 26.7552 384.516 26.4683 383.973 26.3453C383.645 26.2736 383.143 26.2377 382.467 26.2377H381.79V31.4636H382.467ZM387.277 33.0006C388.333 33.308 389.153 33.9381 389.737 34.8911C390.331 35.8338 390.628 36.966 390.628 38.2878C390.628 39.7224 390.249 40.952 389.491 41.9767C388.743 42.9911 387.769 43.6469 386.57 43.944C385.915 44.108 384.823 44.1899 383.297 44.1899H377.856V22.5489H382.467C383.788 22.5489 384.731 22.6155 385.295 22.7487C386.555 23.0459 387.585 23.6966 388.384 24.7007C389.183 25.7049 389.583 26.9345 389.583 28.3895C389.583 30.5516 388.814 32.0374 387.277 32.8469V33.0006ZM381.79 35.1524V40.5011H383.312C384.234 40.5011 384.849 40.4601 385.156 40.3782C385.669 40.245 386.079 39.9529 386.386 39.5021C386.693 39.041 386.847 38.4825 386.847 37.8267C386.847 37.171 386.693 36.6125 386.386 36.1514C386.079 35.6903 385.669 35.3983 385.156 35.2753C384.808 35.1933 384.193 35.1524 383.312 35.1524H381.79ZM393.602 22.5489H405.406V26.2377H397.537V31.4636H403.439V35.1524H397.537V40.5011H405.406V44.1899H393.602V22.5489ZM412.3 26.2377V32.5087H414.237C415.118 32.5087 415.758 32.4677 416.158 32.3858C416.855 32.2423 417.408 31.899 417.818 31.356C418.238 30.8129 418.448 30.152 418.448 29.3732C418.448 28.5945 418.238 27.9336 417.818 27.3905C417.408 26.8474 416.855 26.5042 416.158 26.3607C415.758 26.2787 415.118 26.2377 414.237 26.2377H412.3ZM408.365 22.5489H414.206C415.722 22.5489 416.803 22.6258 417.449 22.7795C418.904 23.1279 420.087 23.8913 420.999 25.0696C421.922 26.2377 422.383 27.6723 422.383 29.3732C422.383 31.0742 421.922 32.5138 420.999 33.6922C420.087 34.8603 418.904 35.6186 417.449 35.967C416.803 36.1207 415.722 36.1975 414.206 36.1975H412.3V44.1899H408.365V22.5489ZM425.095 22.5489H436.9V26.2377H429.03V31.4636H434.932V35.1524H429.03V40.5011H436.9V44.1899H425.095V22.5489ZM439.858 22.5489H443.793V31.5865H449.695V22.5489H453.63V44.1899H449.695V35.2753H443.793V44.1899H439.858V22.5489ZM465.442 44.1899V30.3877H465.288L459.54 44.1899H455.605V22.5489H459.54V36.3512H459.693L465.457 22.5489H469.377V44.1899H465.442ZM472.335 22.5489H484.139V26.2377H476.27V31.4636H482.172V35.1524H476.27V40.5011H484.139V44.1899H472.335V22.5489Z" fill="#313131"/>
<path d="M217.49 87.3486H214.245V69.5005H217.49V76.4724L221.242 69.5005H224.906L220.659 76.9795L226.085 87.3486H222.447L218.479 79.6034L217.49 81.2767V87.3486ZM231.326 81.6824C230.211 79.8401 229.345 77.9344 228.728 75.9654C228.119 73.9879 227.659 71.8329 227.346 69.5005H230.553C230.874 72.5428 231.571 75.2766 232.645 77.702H232.771C233.811 74.6766 234.601 71.9428 235.142 69.5005H238.476C237.259 74.7231 235.421 80.0344 232.962 85.4345C232.717 85.9754 232.34 86.4317 231.833 86.8036C231.326 87.1669 230.709 87.3867 229.983 87.4627C229.366 87.5219 228.449 87.5515 227.232 87.5515V84.5852C228.06 84.5852 228.698 84.5514 229.146 84.4838C229.602 84.4077 229.924 84.2641 230.109 84.0528C230.219 83.9345 230.321 83.812 230.414 83.6852C230.507 83.55 230.6 83.3852 230.693 83.1908C230.786 82.988 230.853 82.8401 230.895 82.7472C230.938 82.6457 231.014 82.4598 231.124 82.1894C231.233 81.9105 231.301 81.7415 231.326 81.6824ZM244.757 69.2977C245.67 69.2977 246.472 69.4202 247.165 69.6653C247.858 69.9103 248.416 70.2568 248.839 70.7047C249.261 71.1526 249.578 71.6723 249.789 72.2639C250.001 72.8555 250.106 73.5146 250.106 74.2414C250.106 75.1118 249.95 75.9062 249.637 76.6245C249.325 77.3344 248.877 77.8964 248.294 78.3105V78.4372C248.936 78.8344 249.439 79.4006 249.802 80.1358C250.174 80.8626 250.36 81.6739 250.36 82.5697V82.6077C250.351 84.0613 249.882 85.2486 248.953 86.1697C248.023 87.0909 246.667 87.5515 244.884 87.5515C243.455 87.5515 241.9 87.3571 240.219 86.9683V83.9134C241.993 84.3106 243.506 84.5092 244.757 84.5092C246.329 84.5092 247.115 83.7908 247.115 82.3542C247.115 81.5007 246.937 80.888 246.582 80.5161C246.236 80.1358 245.61 79.9457 244.706 79.9457H242.653V76.9034H244.719C245.572 76.9034 246.143 76.7133 246.43 76.333C246.717 75.9527 246.861 75.34 246.861 74.4949C246.861 73.8104 246.701 73.2822 246.379 72.9104C246.067 72.5301 245.526 72.34 244.757 72.34C244.579 72.34 244.402 72.3442 244.224 72.3526C244.055 72.3611 243.87 72.3738 243.667 72.3907C243.472 72.4076 243.303 72.4245 243.16 72.4414C243.024 72.4498 242.847 72.4709 242.627 72.5047C242.408 72.5386 242.243 72.5639 242.133 72.5808C242.031 72.5977 241.858 72.6315 241.613 72.6822C241.377 72.7245 241.224 72.754 241.157 72.7709C241.089 72.7794 240.924 72.809 240.662 72.8597C240.4 72.9104 240.253 72.94 240.219 72.9484V69.9061C241.993 69.5005 243.506 69.2977 244.757 69.2977ZM258.504 76.9288C259.763 76.9288 260.663 76.9964 261.204 77.1316C262.193 77.3767 262.996 77.9555 263.613 78.8682C264.238 79.7809 264.551 80.8837 264.551 82.1767C264.551 83.4782 264.242 84.5725 263.625 85.4599C263.009 86.3388 262.201 86.9007 261.204 87.1458C260.663 87.281 259.763 87.3486 258.504 87.3486H254.017V69.5005H257.262V76.9288H258.504ZM257.262 79.9711V84.3063H258.517C259.277 84.3063 259.785 84.2725 260.038 84.2049C260.469 84.0951 260.807 83.8711 261.052 83.5331C261.306 83.1866 261.432 82.7345 261.432 82.1767C261.432 81.6359 261.306 81.1795 261.052 80.8077C260.799 80.4359 260.461 80.1908 260.038 80.0725C259.785 80.0049 259.277 79.9711 258.517 79.9711H257.262ZM269.437 87.3486H266.192V69.5005H269.437L271.808 75.0527H271.947L274.305 69.5005H277.55V87.3486H274.305V75.9907H274.178L272.569 79.2358H271.174L269.564 75.94H269.437V87.3486ZM287.292 87.3486V75.9654H287.165L282.424 87.3486H279.179V69.5005H282.424V80.8837H282.551L287.305 69.5005H290.537V87.3486H287.292ZM292.166 69.5005H295.411V76.9541H300.279V69.5005H303.524V87.3486H300.279V79.9964H295.411V87.3486H292.166V69.5005ZM308.385 75.1541C308.258 75.8471 308.195 76.9372 308.195 78.4246C308.195 79.9119 308.258 81.0021 308.385 81.695C308.537 82.5148 308.816 83.1908 309.222 83.7232C309.636 84.2472 310.173 84.5092 310.832 84.5092C311.491 84.5092 312.023 84.2472 312.429 83.7232C312.843 83.1908 313.126 82.5148 313.278 81.695C313.405 80.9936 313.468 79.9035 313.468 78.4246C313.468 76.9372 313.405 75.8471 313.278 75.1541C313.126 74.3344 312.843 73.6625 312.429 73.1386C312.023 72.6062 311.491 72.34 310.832 72.34C310.173 72.34 309.636 72.6062 309.222 73.1386C308.816 73.6625 308.537 74.3344 308.385 75.1541ZM305.305 82.8486C305.068 81.9105 304.95 80.4359 304.95 78.4246C304.95 76.4133 305.068 74.9386 305.305 74.0005C305.643 72.6315 306.281 71.5075 307.219 70.6287C308.157 69.7413 309.361 69.2977 310.832 69.2977C312.302 69.2977 313.506 69.7413 314.445 70.6287C315.383 71.5075 316.021 72.6315 316.359 74.0005C316.595 74.9386 316.714 76.4133 316.714 78.4246C316.714 80.4359 316.595 81.9105 316.359 82.8486C316.021 84.2176 315.383 85.3458 314.445 86.2331C313.506 87.112 312.302 87.5515 310.832 87.5515C309.361 87.5515 308.157 87.112 307.219 86.2331C306.281 85.3458 305.643 84.2176 305.305 82.8486ZM322.754 76.8527C323.388 76.8527 323.802 76.8273 323.996 76.7766C324.452 76.6668 324.816 76.4302 325.086 76.0668C325.365 75.6949 325.505 75.2386 325.505 74.6977C325.505 74.1653 325.365 73.7132 325.086 73.3414C324.807 72.9695 324.444 72.7329 323.996 72.6315C323.726 72.5724 323.312 72.5428 322.754 72.5428H322.196V76.8527H322.754ZM326.721 78.1203C327.592 78.3739 328.268 78.8936 328.75 79.6795C329.24 80.457 329.485 81.3908 329.485 82.481C329.485 83.6641 329.172 84.6782 328.547 85.5233C327.93 86.3599 327.127 86.9007 326.138 87.1458C325.597 87.281 324.697 87.3486 323.438 87.3486H318.951V69.5005H322.754C323.844 69.5005 324.621 69.5554 325.086 69.6653C326.126 69.9103 326.975 70.447 327.634 71.2752C328.293 72.1033 328.623 73.1174 328.623 74.3175C328.623 76.1006 327.989 77.3259 326.721 77.9936V78.1203ZM322.196 79.895V84.3063H323.451C324.212 84.3063 324.719 84.2725 324.972 84.2049C325.395 84.0951 325.733 83.8542 325.986 83.4824C326.24 83.1021 326.367 82.6415 326.367 82.1007C326.367 81.5598 326.24 81.0992 325.986 80.719C325.733 80.3387 325.395 80.0978 324.972 79.9964C324.685 79.9288 324.178 79.895 323.451 79.895H322.196Z" fill="#313131"/>
<path d="M215.868 107.621H214.245V89.7725H215.868V98.5064L223.144 89.7725H224.906L218.72 97.3148L226.085 107.621H224.095L217.642 98.481L215.868 100.547V107.621ZM227.232 89.7725H228.854V101.13C228.854 102.263 228.905 103.032 229.007 103.437C229.218 104.299 229.67 104.992 230.363 105.516C231.064 106.04 231.914 106.302 232.911 106.302C233.908 106.302 234.753 106.04 235.446 105.516C236.148 104.992 236.604 104.299 236.815 103.437C236.917 103.032 236.967 102.263 236.967 101.13V89.7725H238.59V101.13C238.59 102.322 238.522 103.205 238.387 103.78C238.1 104.971 237.457 105.943 236.46 106.695C235.471 107.447 234.288 107.823 232.911 107.823C231.533 107.823 230.346 107.447 229.349 106.695C228.352 105.943 227.714 104.971 227.435 103.78C227.3 103.205 227.232 102.322 227.232 101.13V89.7725ZM240.472 91.2936V89.7725H251.323V90.9133L242.31 105.973V106.099H251.577V107.621H240.219V106.454L249.232 91.4204V91.2936H240.472ZM254.828 107.621H253.206V89.7725H254.828L258.821 97.7331H258.961L262.941 89.7725H264.563V107.621H262.941V93.0429H262.814L259.582 99.5078H258.187L254.955 93.0429H254.828V107.621ZM275.928 89.7725V91.2936H272.683V106.099H275.928V107.621H267.815V106.099H271.06V91.2936H267.815V89.7725H275.928ZM280.802 107.621H279.179V89.7725H280.789L288.788 104.452H288.915V89.7725H290.537V107.621H288.915L280.929 92.9415H280.802V107.621ZM293.903 94.6148C293.691 95.5359 293.586 96.8965 293.586 98.6965C293.586 100.497 293.691 101.857 293.903 102.778C294.156 103.809 294.608 104.654 295.259 105.314C295.918 105.973 296.78 106.302 297.845 106.302C298.91 106.302 299.768 105.973 300.418 105.314C301.077 104.654 301.534 103.809 301.787 102.778C301.999 101.857 302.104 100.497 302.104 98.6965C302.104 96.8965 301.999 95.5359 301.787 94.6148C301.534 93.5838 301.077 92.7387 300.418 92.0795C299.768 91.4204 298.91 91.0908 297.845 91.0908C296.78 91.0908 295.918 91.4204 295.259 92.0795C294.608 92.7387 294.156 93.5838 293.903 94.6148ZM292.318 103.121C292.081 102.182 291.963 100.708 291.963 98.6965C291.963 96.6852 292.081 95.2106 292.318 94.2725C292.656 92.9035 293.294 91.7795 294.232 90.9006C295.17 90.0133 296.375 89.5696 297.845 89.5696C299.315 89.5696 300.52 90.0133 301.458 90.9006C302.396 91.7795 303.034 92.9035 303.372 94.2725C303.608 95.2106 303.727 96.6852 303.727 98.6965C303.727 100.708 303.608 102.182 303.372 103.121C303.034 104.49 302.396 105.618 301.458 106.505C300.52 107.384 299.315 107.823 297.845 107.823C296.375 107.823 295.17 107.384 294.232 106.505C293.294 105.618 292.656 104.49 292.318 103.121ZM310.895 105.63C311.875 103.306 312.699 100.851 313.367 98.2655C314.035 95.6711 314.63 92.8401 315.154 89.7725H316.802C316.194 93.2373 315.484 96.4275 314.673 99.343C313.861 102.25 312.826 105.009 311.567 107.621H310.097C308.837 105.009 307.802 102.25 306.991 99.343C306.18 96.4275 305.47 93.2373 304.861 89.7725H306.509C307.625 96.2711 309.044 101.557 310.768 105.63H310.895Z" fill="#313131"/>
<path d="M213.434 141.363H223.169V142.884H215.057V149.577H221.547V151.099H215.057V159.211H213.434V141.363ZM226.421 141.363H236.156V142.884H228.043V149.476H234.534V150.997H228.043V157.69H236.156V159.211H226.421V141.363ZM242.171 141.363C244.892 141.363 246.874 142.365 248.116 144.368C248.598 145.128 248.923 145.99 249.092 146.953C249.261 147.917 249.346 149.028 249.346 150.287C249.346 151.547 249.261 152.658 249.092 153.621C248.923 154.585 248.598 155.447 248.116 156.207C246.874 158.21 244.892 159.211 242.171 159.211H237.785V141.363H242.171ZM247.47 153.469C247.639 152.599 247.723 151.538 247.723 150.287C247.723 149.037 247.639 147.976 247.47 147.106C247.309 146.235 247.026 145.513 246.62 144.938C245.657 143.569 244.174 142.884 242.171 142.884H239.408V157.69H242.171C244.174 157.69 245.657 157.006 246.62 155.637C247.026 155.062 247.309 154.34 247.47 153.469ZM252.509 146.206C252.297 147.127 252.192 148.487 252.192 150.287C252.192 152.087 252.297 153.448 252.509 154.369C252.762 155.4 253.214 156.245 253.865 156.904C254.524 157.564 255.386 157.893 256.451 157.893C257.516 157.893 258.373 157.564 259.024 156.904C259.683 156.245 260.14 155.4 260.393 154.369C260.605 153.448 260.71 152.087 260.71 150.287C260.71 148.487 260.605 147.127 260.393 146.206C260.14 145.175 259.683 144.33 259.024 143.67C258.373 143.011 257.516 142.682 256.451 142.682C255.386 142.682 254.524 143.011 253.865 143.67C253.214 144.33 252.762 145.175 252.509 146.206ZM250.924 154.711C250.687 153.773 250.569 152.299 250.569 150.287C250.569 148.276 250.687 146.801 250.924 145.863C251.262 144.494 251.9 143.37 252.838 142.491C253.776 141.604 254.98 141.16 256.451 141.16C257.921 141.16 259.126 141.604 260.064 142.491C261.002 143.37 261.64 144.494 261.978 145.863C262.214 146.801 262.333 148.276 262.333 150.287C262.333 152.299 262.214 153.773 261.978 154.711C261.64 156.08 261.002 157.209 260.064 158.096C259.126 158.975 257.921 159.414 256.451 159.414C254.98 159.414 253.776 158.975 252.838 158.096C251.9 157.209 251.262 156.08 250.924 154.711ZM273.329 148.817C273.574 148.259 273.697 147.651 273.697 146.992C273.697 146.332 273.574 145.728 273.329 145.179C273.084 144.621 272.755 144.165 272.341 143.81C272.087 143.59 271.812 143.413 271.517 143.277C271.229 143.142 270.917 143.049 270.579 142.999C270.241 142.948 269.966 142.918 269.755 142.91C269.543 142.893 269.256 142.884 268.893 142.884H267.004V151.099H268.893C269.366 151.099 269.75 151.09 270.046 151.073C270.342 151.048 270.714 150.963 271.162 150.82C271.618 150.668 272.011 150.452 272.341 150.173C272.755 149.818 273.084 149.366 273.329 148.817ZM268.893 141.363C269.307 141.363 269.645 141.372 269.907 141.389C270.177 141.406 270.536 141.452 270.984 141.528C271.441 141.596 271.872 141.731 272.277 141.934C272.691 142.128 273.076 142.382 273.431 142.694C274.69 143.81 275.32 145.242 275.32 146.992C275.32 148.741 274.69 150.173 273.431 151.289C273.135 151.551 272.805 151.775 272.442 151.961L275.636 159.211H273.912L270.908 152.48C270.401 152.573 269.729 152.62 268.893 152.62H267.004V159.211H265.381V141.363H268.893Z" fill="#313131"/>
<path d="M212.331 191.167C212.12 192.088 212.014 193.448 212.014 195.248C212.014 197.048 212.12 198.409 212.331 199.33C212.585 200.361 213.037 201.206 213.688 201.865C214.347 202.524 215.209 202.854 216.274 202.854C217.338 202.854 218.196 202.524 218.847 201.865C219.506 201.206 219.962 200.361 220.216 199.33C220.427 198.409 220.533 197.048 220.533 195.248C220.533 193.448 220.427 192.088 220.216 191.167C219.962 190.136 219.506 189.29 218.847 188.631C218.196 187.972 217.338 187.643 216.274 187.643C215.209 187.643 214.347 187.972 213.688 188.631C213.037 189.29 212.585 190.136 212.331 191.167ZM210.747 199.672C210.51 198.734 210.392 197.26 210.392 195.248C210.392 193.237 210.51 191.762 210.747 190.824C211.085 189.455 211.723 188.331 212.661 187.452C213.599 186.565 214.803 186.121 216.274 186.121C217.744 186.121 218.948 186.565 219.886 187.452C220.824 188.331 221.462 189.455 221.801 190.824C222.037 191.762 222.155 193.237 222.155 195.248C222.155 197.26 222.037 198.734 221.801 199.672C221.462 201.041 220.824 202.17 219.886 203.057C218.948 203.936 217.744 204.375 216.274 204.375C214.803 204.375 213.599 203.936 212.661 203.057C211.723 202.17 211.085 201.041 210.747 199.672ZM229.818 204.375C228.432 204.375 226.869 204.24 225.128 203.97V202.41C227.004 202.706 228.568 202.854 229.818 202.854C231.01 202.854 231.952 202.533 232.645 201.891C233.346 201.248 233.697 200.382 233.697 199.292C233.697 198.675 233.554 198.113 233.266 197.606C232.987 197.099 232.599 196.698 232.1 196.402C231.661 196.148 230.951 195.954 229.97 195.819C228.99 195.675 228.284 195.527 227.853 195.375C226.932 195.037 226.197 194.488 225.648 193.727C225.098 192.958 224.824 192.024 224.824 190.926C224.824 189.54 225.289 188.395 226.218 187.49C227.148 186.578 228.348 186.121 229.818 186.121C230.959 186.121 232.523 186.227 234.508 186.438V187.972C232.455 187.752 230.892 187.643 229.818 187.643C228.796 187.643 227.976 187.955 227.359 188.581C226.751 189.197 226.446 189.979 226.446 190.926C226.446 191.593 226.59 192.176 226.877 192.675C227.173 193.165 227.57 193.537 228.069 193.791C228.458 193.993 229.197 194.171 230.287 194.323C231.377 194.475 232.193 194.695 232.734 194.982C233.52 195.396 234.145 195.984 234.61 196.744C235.083 197.505 235.32 198.354 235.32 199.292C235.32 200.805 234.813 202.03 233.799 202.968C232.784 203.906 231.458 204.375 229.818 204.375ZM246.304 186.324V187.845H243.059V202.651H246.304V204.172H238.191V202.651H241.436V187.845H238.191V186.324H246.304ZM254.689 186.324C255.103 186.324 255.441 186.333 255.703 186.35C255.974 186.366 256.333 186.413 256.781 186.489C257.237 186.557 257.668 186.692 258.074 186.895C258.488 187.089 258.872 187.343 259.227 187.655C260.486 188.771 261.116 190.203 261.116 191.952C261.116 193.702 260.486 195.134 259.227 196.25C258.872 196.562 258.488 196.82 258.074 197.023C257.668 197.217 257.237 197.353 256.781 197.429C256.333 197.496 255.974 197.538 255.703 197.555C255.441 197.572 255.103 197.581 254.689 197.581H252.8V204.172H251.178V186.324H254.689ZM259.126 193.778C259.371 193.22 259.493 192.612 259.493 191.952C259.493 191.293 259.371 190.689 259.126 190.14C258.881 189.582 258.551 189.126 258.137 188.771C257.883 188.551 257.609 188.374 257.313 188.238C257.026 188.103 256.713 188.01 256.375 187.959C256.037 187.909 255.762 187.879 255.551 187.871C255.34 187.854 255.052 187.845 254.689 187.845H252.8V196.06H254.689C255.052 196.06 255.34 196.055 255.551 196.047C255.762 196.03 256.037 195.996 256.375 195.945C256.713 195.895 257.026 195.802 257.313 195.667C257.609 195.531 257.883 195.354 258.137 195.134C258.551 194.779 258.881 194.327 259.126 193.778ZM264.279 191.167C264.067 192.088 263.962 193.448 263.962 195.248C263.962 197.048 264.067 198.409 264.279 199.33C264.532 200.361 264.984 201.206 265.635 201.865C266.294 202.524 267.156 202.854 268.221 202.854C269.286 202.854 270.144 202.524 270.794 201.865C271.453 201.206 271.91 200.361 272.163 199.33C272.375 198.409 272.48 197.048 272.48 195.248C272.48 193.448 272.375 192.088 272.163 191.167C271.91 190.136 271.453 189.29 270.794 188.631C270.144 187.972 269.286 187.643 268.221 187.643C267.156 187.643 266.294 187.972 265.635 188.631C264.984 189.29 264.532 190.136 264.279 191.167ZM262.694 199.672C262.457 198.734 262.339 197.26 262.339 195.248C262.339 193.237 262.457 191.762 262.694 190.824C263.032 189.455 263.67 188.331 264.608 187.452C265.546 186.565 266.75 186.121 268.221 186.121C269.691 186.121 270.896 186.565 271.834 187.452C272.772 188.331 273.41 189.455 273.748 190.824C273.984 191.762 274.103 193.237 274.103 195.248C274.103 197.26 273.984 198.734 273.748 199.672C273.41 201.041 272.772 202.17 271.834 203.057C270.896 203.936 269.691 204.375 268.221 204.375C266.75 204.375 265.546 203.936 264.608 203.057C263.67 202.17 263.032 201.041 262.694 199.672ZM281.271 202.182C282.251 199.858 283.075 197.403 283.743 194.817C284.411 192.223 285.006 189.392 285.53 186.324H287.178C286.57 189.789 285.86 192.979 285.049 195.895C284.237 198.802 283.202 201.561 281.943 204.172H280.473C279.213 201.561 278.178 198.802 277.367 195.895C276.556 192.979 275.846 189.789 275.237 186.324H276.885C278.001 192.823 279.42 198.109 281.144 202.182H281.271ZM298.251 186.324V187.845H295.006V202.651H298.251V204.172H290.138V202.651H293.383V187.845H290.138V186.324H298.251ZM312.86 202.486V204.008C311.162 204.253 309.636 204.375 308.284 204.375C306.484 204.375 305.031 203.944 303.924 203.082C302.825 202.212 302.081 201.037 301.693 199.558C301.431 198.527 301.3 197.091 301.3 195.248C301.3 193.406 301.431 191.969 301.693 190.938C302.09 189.451 302.821 188.276 303.886 187.414C304.95 186.552 306.374 186.121 308.157 186.121C309.51 186.121 310.95 186.244 312.48 186.489V188.01C310.891 187.765 309.45 187.643 308.157 187.643C305.538 187.643 303.911 188.859 303.277 191.293C303.04 192.214 302.922 193.533 302.922 195.248C302.922 196.964 303.04 198.282 303.277 199.203C303.928 201.637 305.597 202.854 308.284 202.854C309.577 202.854 311.103 202.731 312.86 202.486ZM314.489 186.324H316.112V194.538H324.225V186.324H325.847V204.172H324.225V196.06H316.112V204.172H314.489V186.324Z" fill="#313131"/>
<path d="M366.69 125.415C368.177 123.227 369.571 120.408 370.873 116.96H372.597C371.828 118.963 371.029 120.784 370.201 122.424C369.381 124.063 368.439 125.589 367.374 127V134.809H365.751V127C364.687 125.589 363.74 124.063 362.912 122.424C362.092 120.784 361.298 118.963 360.529 116.96H362.253C363.546 120.391 364.94 123.21 366.436 125.415H366.69ZM373.554 134.809C374.306 127.727 376.03 121.777 378.726 116.96H380.374C383.069 121.777 384.793 127.727 385.545 134.809H383.834C383.707 133.279 383.475 131.64 383.137 129.89H375.962C375.92 130.152 375.857 130.541 375.772 131.056C375.688 131.563 375.62 131.982 375.569 132.311C375.519 132.641 375.464 133.038 375.404 133.503C375.345 133.968 375.299 134.403 375.265 134.809H373.554ZM382.871 128.369C382.381 126.299 381.886 124.482 381.388 122.918C380.889 121.355 380.297 119.914 379.613 118.596H379.486C378.802 119.914 378.21 121.355 377.712 122.918C377.213 124.482 376.719 126.299 376.228 128.369H382.871ZM388.48 134.809H386.857V116.96H388.467L396.466 131.64H396.593V116.96H398.215V134.809H396.593L388.607 120.13H388.48V134.809ZM411.202 116.96V118.482H406.334V134.809H404.712V118.482H399.844V116.96H411.202ZM412.514 134.809C413.266 127.727 414.99 121.777 417.686 116.96H419.334C422.03 121.777 423.754 127.727 424.506 134.809H422.795C422.668 133.279 422.435 131.64 422.097 129.89H414.923C414.88 130.152 414.817 130.541 414.732 131.056C414.648 131.563 414.58 131.982 414.53 132.311C414.479 132.641 414.424 133.038 414.365 133.503C414.306 133.968 414.259 134.403 414.225 134.809H412.514ZM421.831 128.369C421.341 126.299 420.847 124.482 420.348 122.918C419.849 121.355 419.258 119.914 418.573 118.596H418.447C417.762 119.914 417.171 121.355 416.672 122.918C416.173 124.482 415.679 126.299 415.189 128.369H421.831ZM435.388 124.414C435.634 123.856 435.756 123.248 435.756 122.589C435.756 121.93 435.634 121.325 435.388 120.776C435.143 120.218 434.814 119.762 434.4 119.407C434.146 119.187 433.872 119.01 433.576 118.875C433.288 118.739 432.976 118.646 432.638 118.596C432.3 118.545 432.025 118.515 431.814 118.507C431.602 118.49 431.315 118.482 430.952 118.482H429.063V126.696H430.952C431.425 126.696 431.81 126.687 432.105 126.67C432.401 126.645 432.773 126.561 433.221 126.417C433.677 126.265 434.07 126.049 434.4 125.77C434.814 125.415 435.143 124.963 435.388 124.414ZM430.952 116.96C431.366 116.96 431.704 116.969 431.966 116.986C432.236 117.003 432.595 117.049 433.043 117.125C433.5 117.193 433.931 117.328 434.336 117.531C434.75 117.725 435.135 117.979 435.49 118.291C436.749 119.407 437.379 120.839 437.379 122.589C437.379 124.338 436.749 125.77 435.49 126.886C435.194 127.148 434.864 127.372 434.501 127.558L437.696 134.809H435.972L432.967 128.078C432.46 128.17 431.788 128.217 430.952 128.217H429.063V134.809H427.44V116.96H430.952Z" fill="#313131"/>
<path d="M213.244 130.093C212.965 129.181 212.826 127.981 212.826 126.493C212.826 125.006 212.965 123.806 213.244 122.893C213.54 121.947 214.013 121.148 214.664 120.498C215.314 119.847 216.121 119.403 217.085 119.167V117.569H220.33V119.167C221.293 119.403 222.1 119.847 222.751 120.498C223.402 121.148 223.875 121.947 224.171 122.893C224.45 123.806 224.589 125.006 224.589 126.493C224.589 127.981 224.45 129.181 224.171 130.093C223.875 131.04 223.402 131.839 222.751 132.489C222.1 133.14 221.293 133.584 220.33 133.82V135.151H217.085V133.82C216.121 133.584 215.314 133.14 214.664 132.489C214.013 131.839 213.54 131.04 213.244 130.093ZM216.476 123.451C216.206 124.195 216.071 125.209 216.071 126.493C216.071 127.778 216.206 128.796 216.476 129.548C216.747 130.292 217.22 130.74 217.896 130.892V122.095C217.22 122.247 216.747 122.699 216.476 123.451ZM219.519 130.892C220.195 130.74 220.668 130.292 220.938 129.548C221.209 128.796 221.344 127.778 221.344 126.493C221.344 125.209 221.209 124.195 220.938 123.451C220.668 122.699 220.195 122.247 219.519 122.095V130.892ZM226.826 117.569H236.562V120.612H230.072V124.922H234.939V127.964H230.072V132.375H236.562V135.417H226.826V117.569ZM242.425 132.375H245.492V120.612H243.87C243.853 125.327 243.371 129.248 242.425 132.375ZM239.141 132.375C239.488 131.226 239.767 130.068 239.978 128.902C240.189 127.727 240.337 126.464 240.422 125.112C240.515 123.751 240.57 122.581 240.586 121.6C240.612 120.612 240.625 119.268 240.625 117.569H248.737V132.375H250.36V138.663H247.115V135.417H240.625V138.663H237.379V132.375H239.141ZM255.221 123.223C255.094 123.916 255.031 125.006 255.031 126.493C255.031 127.981 255.094 129.071 255.221 129.764C255.373 130.584 255.652 131.26 256.058 131.792C256.472 132.316 257.009 132.578 257.668 132.578C258.327 132.578 258.859 132.316 259.265 131.792C259.679 131.26 259.962 130.584 260.114 129.764C260.241 129.062 260.304 127.972 260.304 126.493C260.304 125.006 260.241 123.916 260.114 123.223C259.962 122.403 259.679 121.731 259.265 121.207C258.859 120.675 258.327 120.409 257.668 120.409C257.009 120.409 256.472 120.675 256.058 121.207C255.652 121.731 255.373 122.403 255.221 123.223ZM252.141 130.917C251.904 129.979 251.786 128.505 251.786 126.493C251.786 124.482 251.904 123.007 252.141 122.069C252.479 120.7 253.117 119.576 254.055 118.698C254.993 117.81 256.197 117.367 257.668 117.367C259.138 117.367 260.342 117.81 261.28 118.698C262.218 119.576 262.857 120.7 263.195 122.069C263.431 123.007 263.55 124.482 263.55 126.493C263.55 128.505 263.431 129.979 263.195 130.917C262.857 132.286 262.218 133.415 261.28 134.302C260.342 135.181 259.138 135.62 257.668 135.62C256.197 135.62 254.993 135.181 254.055 134.302C253.117 133.415 252.479 132.286 252.141 130.917ZM268.221 120.612V125.784H269.818C270.545 125.784 271.073 125.75 271.402 125.682C271.977 125.564 272.433 125.281 272.771 124.833C273.118 124.385 273.291 123.84 273.291 123.198C273.291 122.555 273.118 122.01 272.771 121.562C272.433 121.114 271.977 120.831 271.402 120.713C271.073 120.645 270.545 120.612 269.818 120.612H268.221ZM264.976 117.569H269.793C271.043 117.569 271.935 117.633 272.467 117.759C273.667 118.047 274.643 118.676 275.395 119.648C276.156 120.612 276.536 121.795 276.536 123.198C276.536 124.6 276.156 125.788 275.395 126.76C274.643 127.723 273.667 128.348 272.467 128.636C271.935 128.762 271.043 128.826 269.793 128.826H268.221V135.417H264.976V117.569Z" fill="#313131"/>
<path d="M215.652 171.899C215.526 172.592 215.462 173.682 215.462 175.17C215.462 176.657 215.526 177.747 215.652 178.44C215.804 179.26 216.083 179.936 216.489 180.468C216.903 180.992 217.44 181.254 218.099 181.254C218.758 181.254 219.29 180.992 219.696 180.468C220.11 179.936 220.393 179.26 220.545 178.44C220.672 177.739 220.736 176.649 220.736 175.17C220.736 173.682 220.672 172.592 220.545 171.899C220.393 171.079 220.11 170.408 219.696 169.884C219.29 169.351 218.758 169.085 218.099 169.085C217.44 169.085 216.903 169.351 216.489 169.884C216.083 170.408 215.804 171.079 215.652 171.899ZM212.572 179.594C212.335 178.656 212.217 177.181 212.217 175.17C212.217 173.158 212.335 171.684 212.572 170.746C212.91 169.377 213.548 168.253 214.486 167.374C215.424 166.486 216.628 166.043 218.099 166.043C219.569 166.043 220.774 166.486 221.712 167.374C222.65 168.253 223.288 169.377 223.626 170.746C223.862 171.684 223.981 173.158 223.981 175.17C223.981 177.181 223.862 178.656 223.626 179.594C223.288 180.963 222.65 182.091 221.712 182.978C220.774 183.857 219.569 184.297 218.099 184.297C216.628 184.297 215.424 183.857 214.486 182.978C213.548 182.091 212.91 180.963 212.572 179.594ZM236.765 180.785V183.828C235.032 184.14 233.507 184.297 232.189 184.297C230.389 184.297 228.935 183.866 227.828 183.004C226.729 182.133 225.986 180.958 225.597 179.48C225.335 178.449 225.204 177.012 225.204 175.17C225.204 173.327 225.335 171.891 225.597 170.86C225.994 169.372 226.725 168.198 227.79 167.336C228.855 166.474 230.279 166.043 232.062 166.043C233.414 166.043 234.855 166.165 236.384 166.41V169.453C234.474 169.208 233.046 169.085 232.1 169.085C230.232 169.085 229.07 170.057 228.614 172.001C228.436 172.77 228.348 173.826 228.348 175.17C228.348 176.513 228.436 177.57 228.614 178.339C229.079 180.282 230.27 181.254 232.189 181.254C233.245 181.254 234.77 181.098 236.765 180.785ZM246.506 184.094V172.71H246.38L241.639 184.094H238.394V166.246H241.639V177.629H241.765L246.519 166.246H249.751V184.094H246.506ZM252.192 166.246H261.927V184.094H258.682V169.288H255.437V184.094H252.192V166.246ZM267.6 171.899C267.473 172.592 267.409 173.682 267.409 175.17C267.409 176.657 267.473 177.747 267.6 178.44C267.752 179.26 268.031 179.936 268.436 180.468C268.85 180.992 269.387 181.254 270.046 181.254C270.705 181.254 271.238 180.992 271.643 180.468C272.057 179.936 272.341 179.26 272.493 178.44C272.619 177.739 272.683 176.649 272.683 175.17C272.683 173.682 272.619 172.592 272.493 171.899C272.341 171.079 272.057 170.408 271.643 169.884C271.238 169.351 270.705 169.085 270.046 169.085C269.387 169.085 268.85 169.351 268.436 169.884C268.031 170.408 267.752 171.079 267.6 171.899ZM264.519 179.594C264.283 178.656 264.164 177.181 264.164 175.17C264.164 173.158 264.283 171.684 264.519 170.746C264.857 169.377 265.495 168.253 266.433 167.374C267.371 166.486 268.576 166.043 270.046 166.043C271.517 166.043 272.721 166.486 273.659 167.374C274.597 168.253 275.235 169.377 275.573 170.746C275.81 171.684 275.928 173.158 275.928 175.17C275.928 177.181 275.81 178.656 275.573 179.594C275.235 180.963 274.597 182.091 273.659 182.978C272.721 183.857 271.517 184.297 270.046 184.297C268.576 184.297 267.371 183.857 266.433 182.978C265.495 182.091 264.857 180.963 264.519 179.594ZM281.968 173.598C282.602 173.598 283.016 173.572 283.21 173.522C283.667 173.412 284.03 173.175 284.301 172.812C284.579 172.44 284.719 171.984 284.719 171.443C284.719 170.91 284.579 170.458 284.301 170.086C284.022 169.715 283.658 169.478 283.21 169.377C282.94 169.317 282.526 169.288 281.968 169.288H281.41V173.598H281.968ZM285.936 174.865C286.806 175.119 287.482 175.639 287.964 176.425C288.454 177.202 288.699 178.136 288.699 179.226C288.699 180.409 288.387 181.423 287.761 182.268C287.144 183.105 286.341 183.646 285.353 183.891C284.812 184.026 283.912 184.094 282.653 184.094H278.165V166.246H281.968C283.058 166.246 283.836 166.301 284.301 166.41C285.34 166.655 286.189 167.192 286.849 168.02C287.508 168.848 287.837 169.863 287.837 171.063C287.837 172.846 287.203 174.071 285.936 174.739V174.865ZM281.41 176.64V181.051H282.665C283.426 181.051 283.933 181.018 284.186 180.95C284.609 180.84 284.947 180.599 285.201 180.227C285.454 179.847 285.581 179.387 285.581 178.846C285.581 178.305 285.454 177.844 285.201 177.464C284.947 177.084 284.609 176.843 284.186 176.742C283.899 176.674 283.392 176.64 282.665 176.64H281.41ZM298.454 184.094V172.71H298.327L293.586 184.094H290.341V166.246H293.586V177.629H293.713L298.466 166.246H301.699V184.094H298.454ZM303.328 166.246H306.573V171.113C306.573 172.237 306.666 173.006 306.852 173.42C307.257 174.316 307.976 174.764 309.007 174.764C310.029 174.764 310.747 174.316 311.162 173.42C311.347 173.015 311.44 172.246 311.44 171.113V166.246H314.686V184.094H311.44V176.665H311.314C310.638 177.426 309.784 177.806 308.753 177.806C307.435 177.806 306.298 177.43 305.343 176.678C304.388 175.926 303.78 174.954 303.518 173.763C303.391 173.188 303.328 172.305 303.328 171.113V166.246Z" fill="#313131"/>
<path d="M361.796 69.5005H364.737V87.3486H361.492V73.3287H361.365L359.857 74.4315L358.247 72.0864L361.796 69.5005ZM371.69 72.0231C372.383 70.1892 373.583 69.2723 375.29 69.2723C376.997 69.2723 378.197 70.1892 378.89 72.0231C379.042 72.4371 379.157 73.0076 379.233 73.7343C379.309 74.4611 379.351 75.1245 379.359 75.7245C379.376 76.3161 379.385 77.2161 379.385 78.4246C379.385 79.633 379.376 80.5373 379.359 81.1373C379.351 81.7288 379.309 82.388 379.233 83.1148C379.157 83.8415 379.042 84.412 378.89 84.8261C378.197 86.6599 376.997 87.5768 375.29 87.5768C373.583 87.5768 372.383 86.6599 371.69 84.8261C371.538 84.412 371.424 83.8415 371.348 83.1148C371.272 82.388 371.225 81.7288 371.209 81.1373C371.2 80.5373 371.196 79.633 371.196 78.4246C371.196 77.2161 371.2 76.3161 371.209 75.7245C371.225 75.1245 371.272 74.4611 371.348 73.7343C371.424 73.0076 371.538 72.4371 371.69 72.0231ZM375.29 72.3653C374.927 72.3653 374.669 72.8977 374.517 73.9625C374.433 74.5287 374.39 76.0161 374.39 78.4246V79.7556L376.089 74.1653C376.03 73.6667 375.933 73.2442 375.797 72.8977C375.662 72.5428 375.493 72.3653 375.29 72.3653ZM374.492 82.6838C374.551 83.1824 374.648 83.6091 374.783 83.9641C374.918 84.3106 375.087 84.4838 375.29 84.4838C375.654 84.4838 375.911 83.9514 376.064 82.8866C376.148 82.3204 376.19 80.833 376.19 78.4246V77.0935L374.492 82.6838ZM385.843 82.7852H390.711V87.3486H385.843V82.7852ZM397.664 72.0231C398.357 70.1892 399.557 69.2723 401.264 69.2723C402.971 69.2723 404.171 70.1892 404.864 72.0231C405.016 72.4371 405.13 73.0076 405.206 73.7343C405.282 74.4611 405.325 75.1245 405.333 75.7245C405.35 76.3161 405.358 77.2161 405.358 78.4246C405.358 79.633 405.35 80.5373 405.333 81.1373C405.325 81.7288 405.282 82.388 405.206 83.1148C405.13 83.8415 405.016 84.412 404.864 84.8261C404.171 86.6599 402.971 87.5768 401.264 87.5768C399.557 87.5768 398.357 86.6599 397.664 84.8261C397.512 84.412 397.398 83.8415 397.322 83.1148C397.246 82.388 397.199 81.7288 397.182 81.1373C397.174 80.5373 397.169 79.633 397.169 78.4246C397.169 77.2161 397.174 76.3161 397.182 75.7245C397.199 75.1245 397.246 74.4611 397.322 73.7343C397.398 73.0076 397.512 72.4371 397.664 72.0231ZM401.264 72.3653C400.901 72.3653 400.643 72.8977 400.491 73.9625C400.406 74.5287 400.364 76.0161 400.364 78.4246V79.7556L402.063 74.1653C402.003 73.6667 401.906 73.2442 401.771 72.8977C401.636 72.5428 401.467 72.3653 401.264 72.3653ZM400.465 82.6838C400.524 83.1824 400.622 83.6091 400.757 83.9641C400.892 84.3106 401.061 84.4838 401.264 84.4838C401.627 84.4838 401.885 83.9514 402.037 82.8866C402.122 82.3204 402.164 80.833 402.164 78.4246V77.0935L400.465 82.6838ZM415.468 81.9105C415.468 80.8626 415.37 80.1105 415.176 79.6542C414.99 79.1894 414.665 78.957 414.2 78.957C413.777 78.957 413.363 79.0457 412.958 79.2232L411.069 77.1189L414.682 72.5428H410.194V69.5005H418.307V72.416L415.113 76.1555L415.201 76.2442C415.328 76.202 415.476 76.1809 415.645 76.1809C417.69 76.1809 418.713 78.0992 418.713 81.9359C418.713 83.8458 418.324 85.2613 417.547 86.1824C416.769 87.0951 415.603 87.5515 414.048 87.5515C413.017 87.5515 411.732 87.4205 410.194 87.1585V84.0908C411.665 84.3697 412.949 84.5092 414.048 84.5092C414.597 84.5092 414.969 84.281 415.163 83.8246C415.366 83.3683 415.468 82.7303 415.468 81.9105ZM424.804 82.7852H429.671V87.3486H424.804V82.7852ZM439.717 69.5005H442.658V87.3486H439.413V73.3287H439.286L437.778 74.4315L436.168 72.0864L439.717 69.5005ZM457.268 75.1668C457.268 77.7443 457.086 79.7471 456.722 81.1753C456.173 83.3134 454.914 85.5233 452.945 87.805L450.473 85.7641C451.251 84.8599 451.889 84.019 452.387 83.2415C452.886 82.4641 453.262 81.6063 453.515 80.6683L453.389 80.6175C453.034 80.9133 452.611 81.0612 452.121 81.0612C451.183 81.0612 450.46 80.719 449.953 80.0344C449.151 78.9612 448.749 77.3428 448.749 75.1794C448.749 73.6836 448.884 72.5681 449.155 71.8329C449.442 71.0554 449.915 70.4385 450.575 69.9822C451.234 69.5258 452.045 69.2977 453.008 69.2977C453.972 69.2977 454.783 69.5258 455.442 69.9822C456.101 70.4385 456.575 71.0554 456.862 71.8329C457.031 72.2808 457.141 72.7456 457.192 73.2273C457.242 73.709 457.268 74.3555 457.268 75.1668ZM452.413 72.7202C452.134 73.1512 451.994 73.971 451.994 75.1794C451.994 76.3879 452.134 77.2076 452.413 77.6386C452.573 77.8922 452.772 78.0189 453.008 78.0189C453.245 78.0189 453.444 77.8922 453.604 77.6386C453.883 77.2076 454.022 76.3879 454.022 75.1794C454.022 73.971 453.883 73.1512 453.604 72.7202C453.444 72.4667 453.245 72.34 453.008 72.34C452.772 72.34 452.573 72.4667 452.413 72.7202ZM470.254 75.1668C470.254 77.7443 470.073 79.7471 469.709 81.1753C469.16 83.3134 467.901 85.5233 465.932 87.805L463.46 85.7641C464.237 84.8599 464.875 84.019 465.374 83.2415C465.873 82.4641 466.249 81.6063 466.502 80.6683L466.375 80.6175C466.021 80.9133 465.598 81.0612 465.108 81.0612C464.17 81.0612 463.447 80.719 462.94 80.0344C462.137 78.9612 461.736 77.3428 461.736 75.1794C461.736 73.6836 461.871 72.5681 462.142 71.8329C462.429 71.0554 462.902 70.4385 463.561 69.9822C464.22 69.5258 465.032 69.2977 465.995 69.2977C466.959 69.2977 467.77 69.5258 468.429 69.9822C469.088 70.4385 469.561 71.0554 469.849 71.8329C470.018 72.2808 470.128 72.7456 470.178 73.2273C470.229 73.709 470.254 74.3555 470.254 75.1668ZM465.399 72.7202C465.121 73.1512 464.981 73.971 464.981 75.1794C464.981 76.3879 465.121 77.2076 465.399 77.6386C465.56 77.8922 465.759 78.0189 465.995 78.0189C466.232 78.0189 466.43 77.8922 466.591 77.6386C466.87 77.2076 467.009 76.3879 467.009 75.1794C467.009 73.971 466.87 73.1512 466.591 72.7202C466.43 72.4667 466.232 72.34 465.995 72.34C465.759 72.34 465.56 72.4667 465.399 72.7202ZM475.128 69.6906C476.472 69.4286 477.689 69.2977 478.779 69.2977C479.59 69.2977 480.3 69.4202 480.909 69.6653C481.526 69.9103 482.007 70.2442 482.354 70.6667C482.709 71.0892 482.971 71.554 483.14 72.0611C483.309 72.5681 483.393 73.109 483.393 73.6836C483.393 74.2414 483.334 74.7231 483.216 75.1287C483.106 75.5259 482.929 75.9527 482.683 76.409L478.83 84.3063H483.495V87.3486H475.128V84.6993L479.616 75.6992C479.971 75.04 480.148 74.3682 480.148 73.6836C480.148 72.7879 479.692 72.34 478.779 72.34C477.757 72.34 476.54 72.4709 475.128 72.7329V69.6906Z" fill="#313131"/>
<path d="M368.186 99.3152H366.589C365.87 99.3152 365.342 99.349 365.004 99.4166C364.438 99.535 363.982 99.8181 363.635 100.266C363.289 100.714 363.115 101.259 363.115 101.901C363.115 102.543 363.289 103.089 363.635 103.536C363.982 103.984 364.438 104.267 365.004 104.386C365.334 104.453 365.862 104.487 366.589 104.487H368.186V99.3152ZM371.431 96.2729V114.121H368.186V107.529H366.614C366.031 107.529 365.613 107.525 365.359 107.517L363.001 114.121H359.553L362.342 106.68C361.581 106.198 360.977 105.548 360.529 104.728C360.09 103.9 359.87 102.958 359.87 101.901C359.87 100.498 360.246 99.3152 360.998 98.3518C361.759 97.38 362.739 96.7504 363.939 96.4631C364.472 96.3363 365.363 96.2729 366.614 96.2729H371.431ZM373.871 96.2729H377.116V103.727H381.984V96.2729H385.229V114.121H381.984V106.769H377.116V114.121H373.871V96.2729ZM398.216 96.2729V99.3152H394.159V114.121H390.914V99.3152H386.858V96.2729H398.216ZM407.362 107.631C406.872 104.445 406.28 101.576 405.587 99.0237H405.46C404.776 101.55 404.184 104.42 403.686 107.631H407.362ZM403.014 96.2729H408.034C409.487 100.819 410.641 106.769 411.494 114.121H408.211C408.11 112.955 407.97 111.806 407.793 110.673H403.255C403.077 111.806 402.938 112.955 402.836 114.121H399.553C400.407 106.769 401.56 100.819 403.014 96.2729ZM416.077 99.3152V104.487H417.674C418.401 104.487 418.929 104.453 419.258 104.386C419.833 104.267 420.289 103.984 420.627 103.536C420.974 103.089 421.147 102.543 421.147 101.901C421.147 101.259 420.974 100.714 420.627 100.266C420.289 99.8181 419.833 99.535 419.258 99.4166C418.929 99.349 418.401 99.3152 417.674 99.3152H416.077ZM412.832 96.2729H417.649C418.899 96.2729 419.791 96.3363 420.323 96.4631C421.523 96.7504 422.499 97.38 423.251 98.3518C424.012 99.3152 424.392 100.498 424.392 101.901C424.392 103.304 424.012 104.491 423.251 105.463C422.499 106.427 421.523 107.052 420.323 107.339C419.791 107.466 418.899 107.529 417.649 107.529H416.077V114.121H412.832V96.2729ZM431.117 103.701C432.376 103.701 433.276 103.769 433.817 103.904C434.806 104.149 435.609 104.728 436.226 105.641C436.851 106.553 437.164 107.656 437.164 108.949C437.164 110.251 436.855 111.345 436.238 112.232C435.621 113.111 434.814 113.673 433.817 113.918C433.276 114.053 432.376 114.121 431.117 114.121H426.63V96.2729H429.875V103.701H431.117ZM429.875 106.744V111.079H431.13C431.89 111.079 432.397 111.045 432.651 110.977C433.082 110.868 433.42 110.644 433.665 110.306C433.918 109.959 434.045 109.507 434.045 108.949C434.045 108.408 433.918 107.952 433.665 107.58C433.411 107.208 433.073 106.963 432.651 106.845C432.397 106.777 431.89 106.744 431.13 106.744H429.875Z" fill="#313131"/>
<path d="M234.892 246.282C234.249 242.101 233.472 238.335 232.563 234.985H232.397C231.498 238.302 230.722 242.067 230.067 246.282H234.892ZM229.185 231.375H235.774C237.682 237.342 239.196 245.151 240.316 254.801H236.007C235.874 253.27 235.691 251.762 235.458 250.275H229.502C229.269 251.762 229.086 253.27 228.953 254.801H224.643C225.764 245.151 227.278 237.342 229.185 231.375Z" fill="#313131"/>
<path d="M227.53 301.225H223.271V277.799H227.53V286.95L232.455 277.799H237.263L231.689 287.616L238.81 301.225H234.035L228.828 291.06L227.53 293.256V301.225ZM241.381 301.225V277.799H245.64V297.232H255.223V301.225H241.381ZM261.62 301.225H257.361V277.799H261.62L264.732 285.087H264.915L268.009 277.799H272.268V301.225H268.009V286.318H267.843L265.73 290.577H263.9L261.787 286.251H261.62V301.225ZM279.73 301.225H275.471V277.799H279.714L283.823 291.076H283.99V277.799H288.249V301.225H283.99L279.897 287.948H279.73V301.225ZM295.694 285.22C295.528 286.129 295.445 287.56 295.445 289.512C295.445 291.464 295.528 292.895 295.694 293.805C295.894 294.881 296.26 295.768 296.792 296.467C297.336 297.154 298.04 297.498 298.905 297.498C299.77 297.498 300.469 297.154 301.001 296.467C301.545 295.768 301.917 294.881 302.116 293.805C302.283 292.884 302.366 291.453 302.366 289.512C302.366 287.56 302.283 286.129 302.116 285.22C301.917 284.144 301.545 283.262 301.001 282.574C300.469 281.876 299.77 281.526 298.905 281.526C298.04 281.526 297.336 281.876 296.792 282.574C296.26 283.262 295.894 284.144 295.694 285.22ZM291.651 295.319C291.341 294.088 291.185 292.152 291.185 289.512C291.185 286.872 291.341 284.937 291.651 283.706C292.095 281.909 292.932 280.434 294.163 279.28C295.395 278.116 296.975 277.533 298.905 277.533C300.835 277.533 302.416 278.116 303.647 279.28C304.878 280.434 305.715 281.909 306.159 283.706C306.47 284.937 306.625 286.872 306.625 289.512C306.625 292.152 306.47 294.088 306.159 295.319C305.715 297.116 304.878 298.596 303.647 299.761C302.416 300.915 300.835 301.491 298.905 301.491C296.975 301.491 295.395 300.915 294.163 299.761C292.932 298.596 292.095 297.116 291.651 295.319ZM313.821 281.792V288.581H314.852C315.806 288.581 316.499 288.536 316.932 288.447C317.686 288.292 318.285 287.921 318.729 287.333C319.184 286.745 319.411 286.029 319.411 285.186C319.411 284.344 319.184 283.628 318.729 283.04C318.285 282.452 317.686 282.081 316.932 281.926C316.499 281.837 315.806 281.792 314.852 281.792H313.821ZM309.562 277.799H314.819C316.461 277.799 317.631 277.883 318.33 278.049C319.905 278.426 321.186 279.252 322.173 280.528C323.171 281.792 323.67 283.345 323.67 285.186C323.67 287.028 323.171 288.586 322.173 289.862C321.186 291.126 319.905 291.947 318.33 292.324C317.631 292.49 316.461 292.574 314.819 292.574H313.821V301.225H309.562V277.799ZM325.742 295.319C325.431 294.088 325.276 292.152 325.276 289.512C325.276 286.872 325.431 284.937 325.742 283.706C326.185 281.909 327.023 280.434 328.254 279.28C329.485 278.116 331.066 277.533 332.996 277.533C334.925 277.533 336.506 278.116 337.737 279.28C338.968 280.434 339.806 281.909 340.25 283.706C340.56 284.937 340.715 286.872 340.715 289.512C340.715 292.141 340.577 294.076 340.299 295.319C340.022 296.483 339.556 297.537 338.902 298.48C338.259 299.412 337.454 300.138 336.489 300.659C336.7 301.159 336.922 301.464 337.155 301.574C337.388 301.685 337.787 301.741 338.353 301.741C338.419 301.741 339.118 301.713 340.449 301.658V305.651C339.551 305.717 338.674 305.751 337.82 305.751C335.957 305.751 334.487 305.063 333.411 303.687C333.045 303.211 332.668 302.467 332.28 301.458C330.517 301.303 329.091 300.659 328.004 299.528C326.928 298.397 326.174 296.994 325.742 295.319ZM329.784 285.22C329.618 286.129 329.535 287.56 329.535 289.512C329.535 291.464 329.618 292.895 329.784 293.805C330.117 295.624 330.833 296.783 331.931 297.282V294.836H335.94C336.284 293.783 336.456 292.008 336.456 289.512C336.456 287.56 336.373 286.129 336.207 285.22C336.007 284.144 335.635 283.262 335.092 282.574C334.559 281.876 333.861 281.526 332.996 281.526C332.13 281.526 331.426 281.876 330.883 282.574C330.35 283.262 329.984 284.144 329.784 285.22Z" fill="#313131"/>
<path d="M361.36 281.684V288.472H362.392C363.346 288.472 364.039 288.427 364.472 288.339C365.215 288.183 365.814 287.812 366.268 287.224C366.723 286.636 366.951 285.921 366.951 285.078C366.951 284.235 366.723 283.519 366.268 282.931C365.814 282.343 365.215 281.972 364.472 281.817C364.028 281.728 363.335 281.684 362.392 281.684H361.36ZM357.101 277.691H362.359C364 277.691 365.17 277.774 365.869 277.94C367.444 278.317 368.725 279.144 369.712 280.419C370.711 281.684 371.21 283.236 371.21 285.078C371.21 286.464 370.916 287.701 370.328 288.788C369.751 289.864 368.964 290.718 367.965 291.35L371.626 301.116H367.1L364.006 292.448C363.673 292.459 363.124 292.465 362.359 292.465H361.36V301.116H357.101V277.691ZM380.202 301.382C378.383 301.382 376.331 301.205 374.047 300.85V296.79C376.72 297.19 378.772 297.389 380.202 297.389C382.177 297.389 383.164 296.336 383.164 294.228C383.164 293.64 383.02 293.086 382.731 292.564C382.454 292.032 382.06 291.666 381.55 291.466C381.228 291.344 380.785 291.245 380.219 291.167C379.653 291.089 379.071 290.978 378.472 290.834C377.884 290.679 377.319 290.44 376.775 290.119C374.69 288.877 373.647 286.913 373.647 284.229C373.647 282.31 374.257 280.696 375.477 279.388C376.709 278.079 378.284 277.424 380.202 277.424C381.7 277.424 383.752 277.563 386.358 277.84V281.85C383.663 281.562 381.611 281.417 380.202 281.417C379.781 281.417 379.409 281.512 379.088 281.7C378.777 281.889 378.539 282.133 378.372 282.432C378.206 282.732 378.084 283.037 378.006 283.347C377.94 283.658 377.906 283.963 377.906 284.262C377.906 285.571 378.35 286.425 379.237 286.825C379.526 286.958 380.18 287.107 381.201 287.274C382.232 287.429 383.064 287.673 383.696 288.006C384.584 288.461 385.316 289.048 385.892 289.769C386.469 290.49 386.869 291.217 387.09 291.949C387.312 292.681 387.423 293.441 387.423 294.228C387.423 296.38 386.758 298.11 385.427 299.419C384.096 300.728 382.354 301.382 380.202 301.382ZM405.034 277.691V281.684H399.71V301.116H395.451V281.684H390.127V277.691H405.034ZM407.172 277.691H411.431V292.598C411.431 293.64 411.47 294.35 411.548 294.727C411.714 295.526 412.069 296.169 412.612 296.657C413.167 297.145 413.838 297.389 414.626 297.389C415.413 297.389 416.079 297.145 416.622 296.657C417.177 296.169 417.537 295.526 417.704 294.727C417.781 294.35 417.82 293.64 417.82 292.598V277.691H422.079V292.598C422.079 294.162 421.99 295.321 421.813 296.075C421.436 297.639 420.593 298.915 419.284 299.902C417.986 300.889 416.434 301.382 414.626 301.382C412.818 301.382 411.259 300.889 409.95 299.902C408.653 298.915 407.815 297.639 407.438 296.075C407.261 295.321 407.172 294.162 407.172 292.598V277.691ZM431.754 297.506C433.14 292.404 434.288 285.799 435.198 277.691H439.507C438.387 287.34 436.873 295.149 434.965 301.116H428.377C426.469 295.149 424.955 287.34 423.834 277.691H428.144C429.064 285.843 430.212 292.448 431.588 297.506H431.754ZM447.185 290.468H450.247L451.361 295.942H451.528C451.905 291.039 452.093 284.956 452.093 277.691H456.319C456.319 285.455 455.881 293.263 455.005 301.116H450.28L448.799 294.661H448.633L447.152 301.116H442.427C441.551 293.263 441.113 285.455 441.113 277.691H445.339C445.339 284.956 445.527 291.039 445.904 295.942H446.071L447.185 290.468ZM465.678 285.41H465.844L468.889 277.691H473.331L468.323 289.121V289.287L473.864 301.116H469.405L465.844 292.831H465.678L462.118 301.116H457.659L463.199 289.287V289.121L458.191 277.691H462.633L465.678 285.41ZM482.89 286.958C484.531 283.186 485.64 280.097 486.217 277.691H490.726C489.861 280.341 488.973 282.743 488.064 284.895C487.154 287.035 486.112 289.026 484.936 290.867V301.116H480.677V290.867C479.501 289.026 478.458 287.035 477.549 284.895C476.639 282.743 475.752 280.341 474.887 277.691H479.396C479.484 278.101 479.59 278.528 479.712 278.972C479.845 279.415 480 279.898 480.178 280.419C480.366 280.94 480.521 281.384 480.643 281.75C480.777 282.105 480.965 282.593 481.209 283.214C481.453 283.824 481.62 284.251 481.708 284.495C481.808 284.728 481.991 285.177 482.257 285.843C482.535 286.497 482.69 286.869 482.723 286.958H482.89ZM492.731 281.684V277.691H506.972V281.184L497.306 296.957V297.123H507.305V301.116H492.398V297.589L502.064 281.85V281.684H492.731Z" fill="#313131"/>
<path d="M267.874 241.025C268.706 241.025 269.249 240.992 269.504 240.925C270.103 240.781 270.58 240.47 270.935 239.993C271.301 239.505 271.484 238.906 271.484 238.196C271.484 237.498 271.301 236.904 270.935 236.416C270.569 235.928 270.092 235.618 269.504 235.485C269.149 235.407 268.606 235.368 267.874 235.368H267.142V241.025H267.874ZM273.081 242.689C274.224 243.021 275.111 243.704 275.743 244.735C276.387 245.755 276.708 246.981 276.708 248.412C276.708 249.965 276.298 251.296 275.477 252.405C274.667 253.503 273.614 254.213 272.316 254.535C271.606 254.712 270.425 254.801 268.772 254.801H262.882V231.375H267.874C269.305 231.375 270.325 231.447 270.935 231.591C272.299 231.913 273.414 232.617 274.279 233.704C275.144 234.791 275.577 236.122 275.577 237.697C275.577 240.038 274.745 241.646 273.081 242.522V242.689ZM267.142 245.018V250.808H268.789C269.787 250.808 270.452 250.763 270.785 250.675C271.34 250.53 271.784 250.214 272.116 249.726C272.449 249.227 272.615 248.623 272.615 247.913C272.615 247.203 272.449 246.598 272.116 246.099C271.784 245.6 271.34 245.284 270.785 245.151C270.408 245.062 269.743 245.018 268.789 245.018H267.142Z" fill="#313131"/>
<path d="M311.844 250.675V254.668C309.859 254.934 308.101 255.067 306.57 255.067C304.296 255.067 302.461 254.501 301.063 253.37C299.677 252.228 298.739 250.686 298.251 248.745C297.907 247.392 297.735 245.506 297.735 243.088C297.735 240.67 297.907 238.784 298.251 237.431C298.739 235.479 299.66 233.937 301.013 232.806C302.366 231.675 304.163 231.109 306.404 231.109C308.101 231.109 309.831 231.209 311.595 231.408V235.401C309.376 235.202 307.663 235.102 306.454 235.102C304.18 235.102 302.793 236.377 302.294 238.929C302.095 239.971 301.995 241.358 301.995 243.088C301.995 244.818 302.095 246.205 302.294 247.247C302.793 249.798 304.219 251.074 306.57 251.074C307.846 251.074 309.604 250.941 311.844 250.675Z" fill="#313131"/>
<path d="M340.55 231.375C344.121 231.375 346.722 232.689 348.353 235.318C348.985 236.316 349.412 237.448 349.634 238.712C349.856 239.977 349.967 241.435 349.967 243.088C349.967 244.741 349.856 246.199 349.634 247.464C349.412 248.728 348.985 249.859 348.353 250.858C346.722 253.486 344.121 254.801 340.55 254.801H334.793V231.375H340.55ZM344.759 248.678C345.391 247.613 345.707 245.75 345.707 243.088C345.707 240.426 345.391 238.563 344.759 237.498C343.927 236.078 342.641 235.368 340.899 235.368H339.052V250.808H340.899C342.641 250.808 343.927 250.098 344.759 248.678Z" fill="#313131"/>
<path d="M370.824 231.375H383.602V235.368H375.084V241.025H381.472V245.018H375.084V250.808H383.602V254.801H370.824V231.375ZM387.869 231.375H400.647V235.368H392.129V241.158H398.518V245.151H392.129V254.801H387.869V231.375Z" fill="#313131"/>
<path d="M436.771 254.451C434.497 254.862 432.495 255.067 430.765 255.067C428.402 255.067 426.494 254.501 425.041 253.37C423.599 252.228 422.623 250.686 422.113 248.745C421.769 247.392 421.597 245.506 421.597 243.088C421.597 240.67 421.769 238.784 422.113 237.431C422.634 235.479 423.594 233.937 424.991 232.806C426.389 231.675 428.258 231.109 430.598 231.109C432.373 231.109 434.319 231.225 436.438 231.458V235.451C434.064 235.218 432.134 235.102 430.648 235.102C428.152 235.102 426.655 236.377 426.156 238.929C425.956 239.971 425.857 241.358 425.857 243.088C425.857 244.818 425.956 246.205 426.156 247.247C426.389 248.445 426.882 249.382 427.637 250.059C428.402 250.736 429.445 251.074 430.765 251.074C431.131 251.074 431.713 251.052 432.512 251.007V246.016H430.382V242.023H436.771V254.451ZM439.973 231.375H444.233V241.158H448.492V231.375H452.751V254.801H448.492V245.151H444.233V254.801H439.973V231.375Z" fill="#313131"/>
<path d="M487.202 231.375V235.368H482.943V250.808H487.202V254.801H474.424V250.808H478.684V235.368H474.424V231.375H487.202ZM499.988 235.368H493.599V231.375H504.247V246.915C504.247 247.458 504.236 247.896 504.214 248.229C504.203 248.551 504.153 248.983 504.064 249.527C503.987 250.07 503.837 250.591 503.615 251.091C503.393 251.579 503.11 252.044 502.767 252.488C502.168 253.253 501.397 253.864 500.454 254.318C499.522 254.773 498.474 255 497.309 255C496.078 255 494.897 254.756 493.766 254.268C492.634 253.78 491.63 253.165 490.754 252.422L493.034 249.227C494.376 250.414 495.801 251.007 497.309 251.007C498.241 251.007 498.929 250.664 499.372 249.976C499.561 249.688 499.705 249.349 499.805 248.961C499.905 248.562 499.96 248.234 499.971 247.979C499.982 247.713 499.988 247.358 499.988 246.915V235.368Z" fill="#313131"/>
<path d="M127.655 137C127.655 151.224 116.338 162.655 102.5 162.655C88.6619 162.655 77.345 151.224 77.345 137C77.345 122.776 88.6619 111.345 102.5 111.345C116.338 111.345 127.655 122.776 127.655 137Z" stroke="#626262" stroke-width="6.69"/>
</svg>
