<svg width="740" height="482" viewBox="0 0 740 482" fill="none" xmlns="http://www.w3.org/2000/svg">
<line x1="340.734" y1="33.3032" x2="340.734" y2="441.577" stroke="#313131" stroke-width="8" stroke-dasharray="16 16"/>
<path d="M22.4202 192.073C22.4202 160.845 24.2886 137.557 28.0253 122.21C33.3634 100.59 43.4392 82.8409 58.2526 68.9617C73.066 54.949 92.0831 47.9427 115.304 47.9427C138.392 47.9427 157.342 54.8823 172.155 68.7615C186.969 82.6407 197.111 100.457 202.583 122.21C206.32 137.023 208.188 160.311 208.188 192.073C208.188 223.301 206.32 246.589 202.583 261.936C198.045 280.486 189.905 296.367 178.161 309.579C166.417 322.791 151.537 331.132 133.521 334.601C140.594 353.819 154.206 363.427 174.357 363.427C182.231 363.427 192.44 362.827 204.985 361.626V385.648C191.773 386.849 181.097 387.449 172.956 387.449C155.874 387.449 141.728 382.645 130.518 373.036C119.308 363.427 111.501 351.016 107.097 335.803C86.2779 334.068 69.1958 326.394 55.8504 312.782C42.505 299.169 33.23 282.221 28.0253 261.936C24.2886 247.122 22.4202 223.835 22.4202 192.073ZM48.0434 192.073C48.0434 221.166 49.7115 242.652 53.0479 256.531C56.5177 270.544 62.4564 282.554 70.864 292.563C79.2716 302.439 90.0813 308.645 103.293 311.18C102.759 304.908 102.493 295.099 102.493 281.754V256.131H128.116V281.754C128.116 294.966 128.383 304.641 128.916 310.78C141.728 308.111 152.137 301.905 160.145 292.163C168.285 282.288 174.09 270.41 177.56 256.531C180.897 243.186 182.565 221.7 182.565 192.073C182.565 162.98 180.897 141.494 177.56 127.615C173.557 111.333 166.35 97.9879 155.941 87.5785C145.665 77.1691 132.119 71.9644 115.304 71.9644C98.3554 71.9644 84.6764 77.1691 74.267 87.5785C63.8576 97.9879 56.7846 111.333 53.0479 127.615C49.7115 142.161 48.0434 163.647 48.0434 192.073Z" fill="#313131"/>
<circle cx="192.151" cy="310.151" r="125.151" fill="white"/>
<mask id="mask0_182_170" style="mask-type:alpha" maskUnits="userSpaceOnUse" x="72" y="191" width="291" height="291">
<circle cx="217.768" cy="336.261" r="142.963" fill="white" stroke="black" stroke-width="4.53851"/>
</mask>
<g mask="url(#mask0_182_170)">
<path d="M36.2073 223.264C36.2073 191.685 38.0967 168.135 41.8754 152.615C47.2737 130.752 57.4628 112.803 72.443 98.7674C87.4231 84.597 106.654 77.5118 130.137 77.5118C153.484 77.5118 172.648 84.5295 187.628 98.5649C202.608 112.6 212.865 130.617 218.398 152.615C222.177 167.595 224.066 191.145 224.066 223.264C224.066 254.844 222.177 278.394 218.398 293.914C213.809 312.673 205.577 328.732 193.701 342.093C181.825 355.454 166.777 363.888 148.558 367.397C155.711 386.831 169.476 396.548 189.855 396.548C197.817 396.548 208.141 395.94 220.827 394.726V419.018C207.466 420.233 196.67 420.84 188.438 420.84C171.163 420.84 156.858 415.981 145.522 406.265C134.185 396.548 126.29 383.997 121.837 368.612C100.784 366.857 83.5094 359.098 70.0138 345.332C56.5182 331.566 47.1387 314.427 41.8754 293.914C38.0967 278.934 36.2073 255.384 36.2073 223.264ZM62.1188 223.264C62.1188 252.685 63.8058 274.413 67.1797 288.448C70.6885 302.618 76.6941 314.764 85.1963 324.886C93.6985 334.873 104.63 341.148 117.991 343.713C117.451 337.37 117.181 327.45 117.181 313.955V288.043H143.092V313.955C143.092 327.315 143.362 337.1 143.902 343.308C156.858 340.609 167.385 334.333 175.482 324.481C183.714 314.495 189.585 302.483 193.094 288.448C196.468 274.952 198.154 253.225 198.154 223.264C198.154 193.844 196.468 172.116 193.094 158.081C189.045 141.616 181.757 128.12 171.231 117.594C160.839 107.067 147.141 101.804 130.137 101.804C112.997 101.804 99.1643 107.067 88.6377 117.594C78.1111 128.12 70.9584 141.616 67.1797 158.081C63.8058 172.791 62.1188 194.519 62.1188 223.264Z" fill="#313131"/>
</g>
<circle cx="190.151" cy="310.151" r="120.151" stroke="#E9AD00" stroke-width="10"/>
<path d="M462.858 174.672H464.937L527.938 53.2451H558.502L481.363 196.088V198.167L565.156 346H534.383L464.937 219.583H462.858L393.412 346H362.639L446.432 198.167V196.088L369.293 53.2451H399.858L462.858 174.672Z" fill="#313131"/>
<circle cx="573.153" cy="330.153" r="125.153" fill="white"/>
<mask id="mask1_182_170" style="mask-type:alpha" maskUnits="userSpaceOnUse" x="455" y="185" width="285" height="285">
<circle cx="597.5" cy="327.5" r="142.5" fill="#D9D9D9"/>
</mask>
<g mask="url(#mask1_182_170)">
<path d="M477.006 182.377H479.285L548.347 49.2674H581.853L497.292 205.854V208.133L589.146 370.189H555.413L479.285 231.609H477.006L400.878 370.189H367.145L459 208.133V205.854L374.439 49.2674H407.944L477.006 182.377Z" fill="#313131"/>
</g>
<circle cx="582.153" cy="316.153" r="120.153" stroke="#E9AD00" stroke-width="10"/>
<line x1="507" y1="274.5" x2="669.816" y2="274.5" stroke="#313131" stroke-width="5"/>
<line x1="556" y1="368" x2="665.778" y2="368" stroke="#313131" stroke-width="5"/>
<path d="M585.359 244.28C587.164 243.928 588.799 243.752 590.263 243.752C591.353 243.752 592.307 243.917 593.124 244.246C593.953 244.575 594.6 245.023 595.065 245.591C595.542 246.159 595.894 246.783 596.121 247.464C596.348 248.145 596.462 248.872 596.462 249.644C596.462 250.393 596.382 251.04 596.223 251.585C596.076 252.118 595.837 252.692 595.508 253.305L590.331 263.913H596.598V268H585.359V264.441L591.387 252.351C591.864 251.466 592.102 250.563 592.102 249.644C592.102 248.44 591.489 247.839 590.263 247.839C588.89 247.839 587.255 248.015 585.359 248.367V244.28ZM602.805 244.28C604.609 243.928 606.244 243.752 607.709 243.752C608.798 243.752 609.752 243.917 610.569 244.246C611.398 244.575 612.045 245.023 612.511 245.591C612.987 246.159 613.339 246.783 613.566 247.464C613.793 248.145 613.907 248.872 613.907 249.644C613.907 250.393 613.827 251.04 613.668 251.585C613.521 252.118 613.282 252.692 612.953 253.305L607.777 263.913H614.043V268H602.805V264.441L608.832 252.351C609.309 251.466 609.548 250.563 609.548 249.644C609.548 248.44 608.935 247.839 607.709 247.839C606.335 247.839 604.7 248.015 602.805 248.367V244.28ZM628.977 255.808V268H624.618V255.808C624.618 255.24 624.532 254.866 624.362 254.684C624.18 254.48 623.902 254.378 623.528 254.378C623.153 254.378 622.875 254.48 622.693 254.684C622.523 254.866 622.438 255.24 622.438 255.808V268H618.079V250.563H622.438V251.159H622.54C623.255 250.58 624.118 250.291 625.128 250.291C625.832 250.291 626.457 250.455 627.001 250.785C627.546 251.114 627.983 251.545 628.313 252.079C629.255 250.887 630.373 250.291 631.667 250.291C632.371 250.291 632.995 250.455 633.54 250.785C634.085 251.114 634.522 251.545 634.851 252.079C635.794 250.887 636.912 250.291 638.206 250.291C638.91 250.291 639.534 250.455 640.079 250.785C640.624 251.114 641.061 251.545 641.39 252.079C642.332 250.887 643.451 250.291 644.745 250.291C645.993 250.291 646.981 250.779 647.708 251.755C647.98 252.13 648.184 252.544 648.321 252.998C648.457 253.452 648.536 253.844 648.559 254.173C648.582 254.491 648.593 254.956 648.593 255.569V268H644.234V255.808C644.234 255.24 644.149 254.866 643.978 254.684C643.797 254.48 643.519 254.378 643.144 254.378C642.769 254.378 642.491 254.48 642.31 254.684C642.139 254.866 642.054 255.24 642.054 255.808V268H637.695V255.808C637.695 255.24 637.61 254.866 637.44 254.684C637.258 254.48 636.98 254.378 636.605 254.378C636.231 254.378 635.953 254.48 635.771 254.684C635.601 254.866 635.516 255.24 635.516 255.808V268H631.156V255.808C631.156 255.24 631.071 254.866 630.901 254.684C630.719 254.48 630.441 254.378 630.067 254.378C629.692 254.378 629.414 254.48 629.232 254.684C629.062 254.866 628.977 255.24 628.977 255.808Z" fill="#E9AD00"/>
<path d="M588.903 339.765C590.518 339.45 591.982 339.292 593.293 339.292C594.268 339.292 595.122 339.44 595.854 339.734C596.596 340.029 597.175 340.43 597.592 340.939C598.019 341.447 598.334 342.006 598.537 342.615C598.74 343.225 598.842 343.876 598.842 344.567C598.842 345.237 598.771 345.817 598.628 346.305C598.496 346.782 598.283 347.295 597.988 347.844L593.354 357.341H598.964V361H588.903V357.814L594.299 346.991C594.726 346.198 594.939 345.39 594.939 344.567C594.939 343.489 594.39 342.951 593.293 342.951C592.063 342.951 590.6 343.108 588.903 343.423V339.765ZM610.862 354.46C610.862 353.2 610.745 352.296 610.511 351.747C610.288 351.188 609.896 350.908 609.337 350.908C608.829 350.908 608.331 351.015 607.843 351.228L605.572 348.698L609.917 343.195H604.52V339.536H614.277V343.042L610.435 347.539L610.542 347.646C610.694 347.595 610.872 347.57 611.075 347.57C613.535 347.57 614.764 349.877 614.764 354.491C614.764 356.788 614.297 358.49 613.362 359.598C612.427 360.695 611.024 361.244 609.154 361.244C607.915 361.244 606.37 361.086 604.52 360.771V357.082C606.289 357.418 607.833 357.585 609.154 357.585C609.815 357.585 610.262 357.311 610.496 356.762C610.74 356.213 610.862 355.446 610.862 354.46ZM622.089 355.512H627.943V361H622.089V355.512ZM635.756 357.082C637.412 357.418 638.855 357.585 640.085 357.585C640.522 357.585 640.888 357.499 641.183 357.326C641.477 357.153 641.696 356.899 641.838 356.564C641.98 356.229 642.077 355.873 642.128 355.497C642.189 355.121 642.219 354.674 642.219 354.155C642.219 351.889 641.62 350.756 640.42 350.756C639.77 350.756 639.267 350.954 638.911 351.35L635.756 350.527V339.536H645.512V343.195H639.658V347.951H639.811C640.431 347.555 641.101 347.356 641.823 347.356C644.607 347.356 646 349.633 646 354.186C646 356.584 645.532 358.363 644.597 359.521C643.672 360.67 642.27 361.244 640.39 361.244C639.15 361.244 637.605 361.086 635.756 360.771V357.082ZM659.186 350.085V361H655.283V350.085C655.283 349.577 655.207 349.242 655.055 349.079C654.892 348.896 654.643 348.805 654.308 348.805C653.972 348.805 653.723 348.896 653.561 349.079C653.408 349.242 653.332 349.577 653.332 350.085V361H649.43V345.39H653.332V345.923H653.424C654.064 345.405 654.836 345.146 655.741 345.146C656.371 345.146 656.93 345.293 657.418 345.588C657.905 345.883 658.297 346.269 658.591 346.747C659.435 345.68 660.436 345.146 661.595 345.146C662.225 345.146 662.784 345.293 663.271 345.588C663.759 345.883 664.151 346.269 664.445 346.747C665.289 345.68 666.29 345.146 667.448 345.146C668.078 345.146 668.637 345.293 669.125 345.588C669.613 345.883 670.004 346.269 670.299 346.747C671.143 345.68 672.144 345.146 673.302 345.146C674.42 345.146 675.304 345.583 675.955 346.457C676.199 346.792 676.381 347.163 676.503 347.57C676.625 347.976 676.697 348.327 676.717 348.622C676.737 348.906 676.747 349.323 676.747 349.872V361H672.845V350.085C672.845 349.577 672.769 349.242 672.616 349.079C672.454 348.896 672.205 348.805 671.869 348.805C671.534 348.805 671.285 348.896 671.122 349.079C670.97 349.242 670.894 349.577 670.894 350.085V361H666.991V350.085C666.991 349.577 666.915 349.242 666.762 349.079C666.6 348.896 666.351 348.805 666.015 348.805C665.68 348.805 665.431 348.896 665.268 349.079C665.116 349.242 665.04 349.577 665.04 350.085V361H661.137V350.085C661.137 349.577 661.061 349.242 660.909 349.079C660.746 348.896 660.497 348.805 660.162 348.805C659.826 348.805 659.577 348.896 659.415 349.079C659.262 349.242 659.186 349.577 659.186 350.085Z" fill="#E9AD00"/>
</svg>
