<svg width="344" height="412" viewBox="0 0 344 412" fill="none" xmlns="http://www.w3.org/2000/svg">
<rect x="3" y="3" width="338" height="122.728" rx="15.6957" fill="white" stroke="#313131" stroke-width="6"/>
<path d="M167 123H185V412H167V123Z" fill="#313131"/>
<path d="M26.8953 85.0391H18.2984V37.7563H26.8953L33.175 52.465H33.5444L39.7906 37.7563H48.3875V85.0391H39.7906V54.95H39.4548L35.1899 63.5469H31.496L27.2311 54.8157H26.8953V85.0391ZM61.8154 72.9497H74.7107V85.0391H61.8154V72.9497ZM98.9854 70.0281C96.0302 65.1476 93.7355 60.0992 92.1012 54.8829C90.4893 49.6441 89.2692 43.9353 88.4408 37.7563H96.9369C97.7877 45.8158 99.6347 53.0583 102.478 59.4835H102.814C105.567 51.4687 107.661 44.2263 109.093 37.7563H117.925C114.702 51.5919 109.832 65.6625 103.317 79.9683C102.668 81.4011 101.672 82.61 100.329 83.5951C98.9854 84.5577 97.3511 85.1398 95.4258 85.3413C93.7915 85.498 91.3624 85.5764 88.1386 85.5764V77.7183C90.3326 77.7183 92.0229 77.6287 93.2094 77.4496C94.4183 77.2481 95.2691 76.8676 95.7616 76.3079C96.0526 75.9944 96.3213 75.6698 96.5676 75.334C96.8138 74.9758 97.0601 74.5392 97.3063 74.0243C97.5526 73.487 97.7317 73.0952 97.8437 72.849C97.9556 72.5803 98.1571 72.0878 98.4481 71.3714C98.7392 70.6326 98.9183 70.1848 98.9854 70.0281ZM153.148 37.7563V45.8158H142.402V85.0391H133.805V45.8158H123.059V37.7563H153.148ZM166.542 52.7336C166.206 54.5694 166.038 57.4574 166.038 61.3977C166.038 65.3379 166.206 68.2259 166.542 70.0617C166.945 72.2333 167.684 74.0243 168.758 75.4347C169.855 76.8228 171.277 77.5168 173.023 77.5168C174.77 77.5168 176.18 76.8228 177.255 75.4347C178.352 74.0243 179.102 72.2333 179.505 70.0617C179.84 68.2035 180.008 65.3155 180.008 61.3977C180.008 57.4574 179.84 54.5694 179.505 52.7336C179.102 50.562 178.352 48.7822 177.255 47.3942C176.18 45.9838 174.77 45.2785 173.023 45.2785C171.277 45.2785 169.855 45.9838 168.758 47.3942C167.684 48.7822 166.945 50.562 166.542 52.7336ZM158.382 73.1176C157.755 70.6326 157.441 66.7259 157.441 61.3977C157.441 56.0694 157.755 52.1628 158.382 49.6777C159.277 46.0509 160.968 43.0734 163.453 40.745C165.938 38.3943 169.128 37.219 173.023 37.219C176.919 37.219 180.109 38.3943 182.594 40.745C185.079 43.0734 186.769 46.0509 187.665 49.6777C188.292 52.1628 188.605 56.0694 188.605 61.3977C188.605 66.7259 188.292 70.6326 187.665 73.1176C186.769 76.7444 185.079 79.7332 182.594 82.0839C180.109 84.4122 176.919 85.5764 173.023 85.5764C169.128 85.5764 165.938 84.4122 163.453 82.0839C160.968 79.7332 159.277 76.7444 158.382 73.1176ZM195.048 37.7563H220.839V85.0391H212.242V45.8158H203.645V85.0391H195.048V37.7563ZM236.382 52.7336C236.046 54.5694 235.878 57.4574 235.878 61.3977C235.878 65.3379 236.046 68.2259 236.382 70.0617C236.785 72.2333 237.524 74.0243 238.599 75.4347C239.696 76.8228 241.117 77.5168 242.863 77.5168C244.61 77.5168 246.02 76.8228 247.095 75.4347C248.192 74.0243 248.942 72.2333 249.345 70.0617C249.68 68.2035 249.848 65.3155 249.848 61.3977C249.848 57.4574 249.68 54.5694 249.345 52.7336C248.942 50.562 248.192 48.7822 247.095 47.3942C246.02 45.9838 244.61 45.2785 242.863 45.2785C241.117 45.2785 239.696 45.9838 238.599 47.3942C237.524 48.7822 236.785 50.562 236.382 52.7336ZM228.222 73.1176C227.595 70.6326 227.282 66.7259 227.282 61.3977C227.282 56.0694 227.595 52.1628 228.222 49.6777C229.117 46.0509 230.808 43.0734 233.293 40.745C235.778 38.3943 238.968 37.219 242.863 37.219C246.759 37.219 249.949 38.3943 252.434 40.745C254.919 43.0734 256.609 46.0509 257.505 49.6777C258.132 52.1628 258.445 56.0694 258.445 61.3977C258.445 66.7259 258.132 70.6326 257.505 73.1176C256.609 76.7444 254.919 79.7332 252.434 82.0839C249.949 84.4122 246.759 85.5764 242.863 85.5764C238.968 85.5764 235.778 84.4122 233.293 82.0839C230.808 79.7332 229.117 76.7444 228.222 73.1176ZM274.963 57.2336C276.642 57.2336 277.739 57.1664 278.254 57.0321C279.463 56.741 280.425 56.1142 281.142 55.1515C281.88 54.1665 282.25 52.9575 282.25 51.5247C282.25 50.1143 281.88 48.9165 281.142 47.9315C280.403 46.9464 279.44 46.3196 278.254 46.0509C277.537 45.8942 276.44 45.8158 274.963 45.8158H273.485V57.2336H274.963ZM285.474 60.5917C287.78 61.2633 289.571 62.6402 290.847 64.7222C292.145 66.7819 292.794 69.2557 292.794 72.1438C292.794 75.278 291.966 77.9646 290.309 80.2033C288.675 82.4197 286.548 83.8525 283.929 84.5018C282.496 84.86 280.112 85.0391 276.776 85.0391H264.888V37.7563H274.963C277.851 37.7563 279.91 37.9018 281.142 38.1928C283.895 38.8421 286.145 40.2637 287.892 42.4577C289.638 44.6517 290.511 47.3382 290.511 50.5173C290.511 55.2411 288.832 58.4873 285.474 60.2559V60.5917ZM273.485 65.2931V76.9795H276.81C278.825 76.9795 280.168 76.8899 280.839 76.7108C281.959 76.4198 282.854 75.7818 283.526 74.7967C284.198 73.7893 284.533 72.5691 284.533 71.1363C284.533 69.7035 284.198 68.4834 283.526 67.4759C282.854 66.4685 281.959 65.8304 280.839 65.5618C280.078 65.3827 278.735 65.2931 276.81 65.2931H273.485ZM306.222 52.7336C305.887 54.5694 305.719 57.4574 305.719 61.3977C305.719 65.3379 305.887 68.2259 306.222 70.0617C306.625 72.2333 307.364 74.0243 308.439 75.4347C309.536 76.8228 310.957 77.5168 312.704 77.5168C314.45 77.5168 315.86 76.8228 316.935 75.4347C318.032 74.0243 318.782 72.2333 319.185 70.0617C319.521 68.2035 319.689 65.3155 319.689 61.3977C319.689 57.4574 319.521 54.5694 319.185 52.7336C318.782 50.562 318.032 48.7822 316.935 47.3942C315.86 45.9838 314.45 45.2785 312.704 45.2785C310.957 45.2785 309.536 45.9838 308.439 47.3942C307.364 48.7822 306.625 50.562 306.222 52.7336ZM298.062 73.1176C297.435 70.6326 297.122 66.7259 297.122 61.3977C297.122 56.0694 297.435 52.1628 298.062 49.6777C298.958 46.0509 300.648 43.0734 303.133 40.745C305.618 38.3943 308.808 37.219 312.704 37.219C316.599 37.219 319.789 38.3943 322.274 40.745C324.759 43.0734 326.45 46.0509 327.345 49.6777C327.972 52.1628 328.285 56.0694 328.285 61.3977C328.285 66.7259 327.972 70.6326 327.345 73.1176C326.45 76.7444 324.759 79.7332 322.274 82.0839C319.789 84.4122 316.599 85.5764 312.704 85.5764C308.808 85.5764 305.618 84.4122 303.133 82.0839C300.648 79.7332 298.958 76.7444 298.062 73.1176Z" fill="#313131"/>
</svg>
