<svg width="354" height="671" viewBox="0 0 354 671" fill="none" xmlns="http://www.w3.org/2000/svg">
<path d="M160.833 419.216C127.64 368.553 102.09 316.144 84.1833 261.987C66.495 207.612 53.3925 148.214 44.8759 83.7933H85.8211C103.728 211.761 138.013 315.052 188.675 393.667H191.951C232.569 291.467 264.67 188.176 288.254 83.7933H332.475C301.903 214.818 254.406 352.066 189.986 495.538C183.653 509.514 173.935 521.306 160.833 530.915C147.73 540.305 131.789 545.983 113.009 547.948C97.0674 549.477 73.3738 550.241 41.9279 550.241V512.899C74.684 512.899 96.849 512.244 108.423 510.934C119.997 509.623 129.278 506.675 136.266 502.089C143.254 497.504 149.696 489.97 155.592 479.488C165.419 462.673 174.59 442.582 183.107 419.216H160.833Z" fill="#313131"/>
<circle cx="205.5" cy="368.5" r="148.5" fill="white"/>
<mask id="mask0_182_188" style="mask-type:alpha" maskUnits="userSpaceOnUse" x="53" y="225" width="297" height="297">
<circle cx="201.5" cy="373.5" r="148.5" fill="#D9D9D9"/>
</mask>
<g mask="url(#mask0_182_188)">
<path d="M180.526 420.785C148.412 371.768 123.693 321.062 106.368 268.665C89.2543 216.057 76.5777 158.59 68.3379 96.2629H107.952C125.277 220.071 158.448 320.006 207.464 396.065H210.633C249.931 297.188 280.988 197.253 303.806 96.2629H346.59C317.011 223.029 271.058 355.817 208.732 494.626C202.605 508.148 193.203 519.557 180.526 528.853C167.849 537.938 152.426 543.431 134.256 545.333C118.833 546.812 95.9096 547.551 65.4856 547.551V511.423C97.1772 511.423 118.622 510.789 129.82 509.521C141.017 508.254 149.997 505.401 156.757 500.964C163.518 496.528 169.751 489.239 175.455 479.097C184.963 462.829 193.837 443.391 202.076 420.785H180.526Z" fill="#313131"/>
</g>
<circle cx="198" cy="369" r="147.436" stroke="#E9AD00" stroke-width="11.1273"/>
</svg>
